<mxfile host="Electron" agent="Mozilla/5.0 (Windows NT 10.0; Win64; x64) AppleWebKit/537.36 (KHTML, like Gecko) draw.io/24.7.5 Chrome/126.0.6478.183 Electron/31.3.0 Safari/537.36" version="24.7.5">
  <diagram name="Page-1" id="H9DldyBOXva_2CUXWXF3">
    <mxGraphModel dx="2183" dy="1309" grid="1" gridSize="10" guides="1" tooltips="1" connect="1" arrows="1" fold="1" page="1" pageScale="1" pageWidth="850" pageHeight="1100" math="0" shadow="0">
      <root>
        <mxCell id="0" />
        <mxCell id="1" parent="0" />
        <mxCell id="5fLJpmokJjt_ChBzvtPg-24" value="" style="group;fillColor=none;" vertex="1" connectable="0" parent="1">
          <mxGeometry x="1060" y="430" width="400" height="220" as="geometry" />
        </mxCell>
        <mxCell id="5fLJpmokJjt_ChBzvtPg-20" style="edgeStyle=orthogonalEdgeStyle;rounded=0;orthogonalLoop=1;jettySize=auto;html=1;exitX=0;exitY=0.5;exitDx=0;exitDy=0;entryX=1;entryY=0.5;entryDx=0;entryDy=0;" edge="1" parent="5fLJpmokJjt_ChBzvtPg-24" source="5fLJpmokJjt_ChBzvtPg-16" target="5fLJpmokJjt_ChBzvtPg-19">
          <mxGeometry relative="1" as="geometry" />
        </mxCell>
        <mxCell id="5fLJpmokJjt_ChBzvtPg-16" value="Header" style="rounded=1;whiteSpace=wrap;html=1;fontSize=17;" vertex="1" parent="5fLJpmokJjt_ChBzvtPg-24">
          <mxGeometry x="256.31067961165047" y="40.74074074074074" width="93.20388349514563" height="48.888888888888886" as="geometry" />
        </mxCell>
        <mxCell id="5fLJpmokJjt_ChBzvtPg-22" style="edgeStyle=orthogonalEdgeStyle;rounded=0;orthogonalLoop=1;jettySize=auto;html=1;exitX=0;exitY=0.5;exitDx=0;exitDy=0;entryX=1;entryY=0.5;entryDx=0;entryDy=0;" edge="1" parent="5fLJpmokJjt_ChBzvtPg-24" source="5fLJpmokJjt_ChBzvtPg-17" target="5fLJpmokJjt_ChBzvtPg-21">
          <mxGeometry relative="1" as="geometry" />
        </mxCell>
        <mxCell id="5fLJpmokJjt_ChBzvtPg-17" value="Footer" style="rounded=1;whiteSpace=wrap;html=1;fontSize=17;" vertex="1" parent="5fLJpmokJjt_ChBzvtPg-24">
          <mxGeometry x="256.31067961165047" y="138.5185185185185" width="93.20388349514563" height="48.888888888888886" as="geometry" />
        </mxCell>
        <mxCell id="5fLJpmokJjt_ChBzvtPg-19" value="Navigation" style="rounded=1;whiteSpace=wrap;html=1;fontSize=17;" vertex="1" parent="5fLJpmokJjt_ChBzvtPg-24">
          <mxGeometry x="62.135922330097095" y="40.74074074074074" width="93.20388349514563" height="48.888888888888886" as="geometry" />
        </mxCell>
        <mxCell id="5fLJpmokJjt_ChBzvtPg-21" value="Socials" style="rounded=1;whiteSpace=wrap;html=1;fontSize=17;" vertex="1" parent="5fLJpmokJjt_ChBzvtPg-24">
          <mxGeometry x="62.135922330097095" y="138.5185185185185" width="93.20388349514563" height="48.888888888888886" as="geometry" />
        </mxCell>
        <mxCell id="5fLJpmokJjt_ChBzvtPg-23" value="Rejected" style="swimlane;whiteSpace=wrap;html=1;fillColor=#a20025;fontColor=#ffffff;strokeColor=#6F0000;swimlaneFillColor=none;" vertex="1" parent="5fLJpmokJjt_ChBzvtPg-24">
          <mxGeometry width="399.99999999999994" height="220" as="geometry" />
        </mxCell>
        <mxCell id="5fLJpmokJjt_ChBzvtPg-34" value="Projects List Pages" style="swimlane;whiteSpace=wrap;html=1;fillColor=#008a00;fontColor=#ffffff;strokeColor=#005700;" vertex="1" parent="1">
          <mxGeometry x="460" y="710" width="370" height="460" as="geometry" />
        </mxCell>
        <mxCell id="5fLJpmokJjt_ChBzvtPg-57" value="" style="shape=image;verticalLabelPosition=bottom;labelBackgroundColor=default;verticalAlign=top;aspect=fixed;imageAspect=0;image=data:image/png,iVBORw0KGgoAAAANSUhEUgAAAlMAAALpCAYAAACXEKP7AAAAAXNSR0IArs4c6QAAAARnQU1BAACxjwv8YQUAAAAJcEhZcwAADsMAAA7DAcdvqGQAAF/oSURBVHhe7d19rF1V/efxXX7yIK1QQNtq2hvbYvEhbSVoeBAdE7iJD2FAiXGiBtDML4r8Mn/ojPrP4E/+mdEZTeYXEc1MRohKNBEV1PjHbY0TETCCSPGJqq22oLY8a1sR1A7vxf5eVvc9D/uede+555y+X8nO2XuffdZee5/b7s9da+19l01NTR2uJEmSNJBj6ldJkiQNwDAlSZJUwDAlSZJUwDAlSZJUwDAlSZJUwDAlSZJUoOejEa6++up6TpIk6eh1zTXX1HNz2TIlSZJUwDAlSZJUwDAlSZJUwDAlSZJUwDAlSZJUwDAlSZJUwDAlSZJUwDAlSZJUwDAlSZJUwDAlSZJUwDAlSZJUwDAlSZJUwDAlSZJUwDAlSZJUwDAlSZJUwDAlSZJUwDAlSZJUwDAlSZJUwDAlZQ4dOlTt3bu3uu+++9LEsiRJvSybmpo6XM/PcfXVV9dzvd12223VD37wg3ppMrznPe+pTjvttHqpvYcffrieq+b9+fyz6PT5W265JZ3rp7+36j/8h/8wUB2HpeRcDBuhadu2bWlqBqj/8l/+S3XGGWfUS+01v89ORv289PLQQw9Vn//859PrmWeemX4eJWlSXXPNNfXcXAsSprjAM02S//7f/3v1/Oc/v15qh4vKRz7ykXqpqv73//7f1bJly+ql3prn8LzzzkuBLkeI4uIVuIBdddVV9dLo+fCHPzwbKD7+8Y+PdHD42Mc+llqkmk488cTq3/7t3+ql+fkf/+N/pNatNtatW5cCMt/7IMFtKfzf//t/0y9SgTB14YUX1kuSNFl6hSm7+UYArSF5kCIkNYMU/vKXv9Rzz7ALamFw7vMgRZghFMQ0DOyfsEwAIzC3adVaapP28xhdu20DsCQFw9QSu/vuu6svf/nL9dIzLRTvfve766Uj0WoRrTu0mNgKsDD4DsK///f/PnXr0crCxPJC4HsjpHWa+M5zEapGPZxwbuLnkVbc17zmNWl+HNGqzDmPMHv4cNcGe0mawzC1hGiNyLvtuCBxIScodcJ6usvYhm5IWrBULm+VWqxzevHFF6fvrdP00Y9+NH2feXDj4n7ttdfWS6OJEEjdmRgSMM7jvySpxIKMmeI//nHolpgPWgzmaz5jpuI34ThvEaQm6YI0LmOm/uN//I/13PzGufXD9xtdRnTb0rLYT3NcHD8Tg/wsan7yf7v8W/xv/+2/LdjPgaTJsOgD0PWMtmHqaAhSMEzNP0wh/xxdud4lt/gMU5L6MUwNSZswxTgY7hwbNEjlt+5zoW12CdJlFWOA6IaJbisuzqxnv/H5eH++LR98nrJ27tyZjhnUI8qKY1nMMEUduJOM483rwDExdqfXvvgs5zHkg/+bY6Q4puaYprYGDVN56xT75t9h/nOUf8ec7/j+WMc5ifMxPT3ddZ+cA+rGlHdzzudnIj+PnPu2Y/jiZ3HQ/TbFsfzkJz+ZPXb0KzOvf79j6TV2js82fxZRckySRo9hakj4j7RXmOI/XS6wcRHhP22CFP/pttUvoOQXYkIFg9mbj11oYru3v/3tqT79cBFkwHzUoYlwyOMaOKbFClMcSx4qO+GY8gHSueb31Mt8QlDToGGKnw8CNzq1kuTfMcdIuSzHvgLvdQoBfIds3+v8tQn5+Xlke8Z99dLvZwfz/eWi5Fjm83Pwf/7P/6nnjtT2Z7Htvy9Jo8tHI4wILiT5b+PzDVKDaAapTv+hc3FuM9iZctiu18WQCxQhgteFFmGUejQvXs3j4pjy4Dquel2kQ6cg1U18h/3OH98fYTh/jlSJbj87nfbb7ZlfTfM5lrZlzgfP2Wr+LBLYmPI6xM9im+9S0niyZWoB8Z92t5Yp/tNlCoO2eMynZYqgxgWE38zptmB/8Z88F18uBvnFrVedaAHIAxdlM5aH17zMCIysp+y4gCxEyxRlR1cMOCa6sqJc9kU9Oc9xXG1aOkZtzBSf4bPgPDa7+fLvmOPiWPkOOB90KzHPuXjuc5+bjj80fwbpfqLlKu+G6vRzwfnr1FWV/7yzn24tU3l90dxvp++NY+AuwW7fGz8H/DyEtmVyLvNzEprH0m/MVPOY2DfnP/4tgG3y/bMNk6TxZMvUEmtexAghgwSp+YogxcWw+R89Fx0CDhfrwH/+3eQXLi7YXOgoo1km6zk29h1BaiFQtzxIEU44j/nFlrrQpZKHJy6ShINxkn8PfH+9LupcqNmG886Fmu+TY+c1Dw2ch/xnkG07haT4uch/PgkNg36XbfYb3xvHED+P7K/b90aZ+c9jrzLznwXKzH+GSuTlxPPI8n8LYP//8i//Ui8dOd5R0mRZkJYpugJ6XYjHERfrbr8Vd5P/dgtaOb75zW8ecTEh1JTcnTWflikwfonw003eCoL/9b/+V7V8+fJ66Rl5mRHOep0bLhj5IHuUtkzl3TRcuJh6YdsYd4ROwSGMUssUP0N8Ls5dp881v2NahPLg1AnBJLrsCCwEl16a3yE/s/zs5vKfd/bfqWUq3y/hotsDaQNl8ttfhI5OP495mXynfLe95D/jBB7KbH7HzWPp1zL1z//8z7MP9uw2nioQomgljFZDSeNp0Vum+I+I/7AmaVqIJyDffvvtRwQpRCAYBi4KvYIUuBjl/8E3/0QIuEsqcEHtF4qiVWChcM7y89ambAJDfux8p6OOf0f5uCK+v3PPPTfNdxMtUf3kx98mzPMd0oUa6DIbRL7ffgEYHHMeHvk31DTfY+FnnF8qCHIMBO/0M14i/6WhE/7N8DNrkJIml918i6hTNwUXgryLYjG1bQnKt+t0YcgvXt1ad5ratMK0le+fgNT2uPI6EAaW8k+E9PqFg5Ymfib4rScPjYSPfq1khI9+21BmHtA2bdqU5vvJzx/1nG8XVb5ffm7afm/R1Yf8fIB65MeSb9sLPzcEmoUKNfk5/PSnP903UEmabIapIeA/fH4zDjT7D/qb/nxwsWmj18WFC2hcRNmu7cWLfTe7ZwZFEAltwxzybZf6YkcLJV1NnSa67JrjaWhxaRNI2wSD/Pzx/bXtxqTsfkG7l3y/lJUHyF5T3nKUl4HmsSyVvMuTwEf3O98j3Y8GK+noY5haZIQKxnTwm3H+HzD/8TYvFKMovzC0uXDnTjjhhHquzKB1yLfNQ+EoIwDy89Icn1Qib91p2zoU8kA+3/OXf2/88tApSHaa8pZbyshbFPMylzJM8e+52W1JCyOt0QQrxl/xb3wYvzRJWnoLMgCd/6z37NlTL00G/rOcb3ggHOUD0CNIxQWMixEXi7i4cTH4z//5P8+rBWc+A9Dp0ug34BfUiRYBNAdqU9cYyM3x9HswY65fXdvK69dvQH3Tf/pP/2k2BHQbqD2MAejUudfFn3PT9mduvt8xrWIxdq/N4P1cr5+N/Oe9089Gvt9BUW4+GLzkWHppHkvbPyfDuaE+cY46oTzquZBd35KGr9cAdJ8ztYCaYarTxZtt8ruVaIGYz919ww5T/S6YvSxUmMrv3prP85rQJiiN2nOm+pnvd0wXYrT2tP2ZCCU/G/l++dwgx0+4zMNzHqbm+2+nl0HDVODz/OLBuWLKWwMDdV3IFkdJw7Xod/Ops07hgf+ouaMocMFhGlV5SwkXjPl09TzyyCP1XJm8DvNpAc0vaPNtZZwk3JYf+A7no+Qc5vvl554gN9+p2QqZ/5vKu/yWGsdHXQlMPHbi3/7t31JozetLCJxvV6mk8WCYWgJcJPLfUPlPdr4XuWHhAppfEDr9xt0Jv50v1N1zefdY2/0jD16UsVAtTuOm2W178ODBeqm3PDzzczDfMUr5fqN1q9RilLkYOF/8O6c1L0Io5zJaWCVNFsPUEmEMRVyc+E/2f/7P/zmyv7XmrQNtLwZ0RS0U9h9BiAto2xaJvK5c2I5WtJpEIOZnbOfOnWm+n7zFNA8xbeX7JZi1DT+9/h1QZh5O2pZJt2hMC4Wfw37/ZqnvK1/5ynqp97FJGl+GqSXCBYHB1HFh4GLzla98Jc2PmjxMEZL6tQ5xLAv5GzjnKH+uT5vndFHP/ELb9tlKkyoPk/yc9buoN7/DQcd75ftt872BcVqMY8vHa+XyVl3CUb9j4WchJsrr12Larzzu0GM8IFObLvo8/Me/d0mTxTC1hPitNR8/xX/2ozh+ilaJvGWi01//D1yEuQgutHygMRezGITcCRfMPJjSCsi5PpoRQPJWIr6jbqGh+T4tqM2xS23l+yWE9/rZAd9rhHW+x7yLOVBm/ksIde1WJmXlPyv8LHTq7s1DDsfdq/WObWN//Hvt9csFgTQPhIOeR0mjbUHu5uPilv/JkUlAyJnvb5H8x57fzdf2zjB+Y89DVP4HX5uGfTdf4NjyuxA5N1wYaLFgnve5qHAcbMMFjzLjQlNyN1+g7Lx1g4DExZFyow78LOYtKpzHfn+HbtLv5gvUhToFzh/fE+eo03cY2/Az0em7y3/e2a7bnZ6d9kvXFz8/7Jd9sV++uzhf4Ltl6qTNsbBN/u+KbXrdpZd/X6B+lEf9mncNNrfle+D7ZR9gvB4/hxxTmM93JWn0LPqjEfjNr1dLwTjq9FiDfvKLC9pemPnPmv+cI3iwX849F4WmpQpToH5t/nQG9f+v//W/Vp/5zGdmy12IMIX5/KxxIeSv9vfb79ESpsDFvU3XGPgeuwUptA1TmM9+QTDq99iD/Dz00+9YwPHwnXX6+ebuvPzfY69tO+HfVN6tL2n8+GiEEcd/sM3xU3SHjBrCCRekXqGAiwZBcKH+lEwTLRW9Wu7AeYztFiLATRJaW/h+en2Hcf7YbqHOX5v9gp8ffsb6BSkQJAlwC3UsEbg6/TKRt0Ihtu13POyfY2Hb+PctafLYMtXFIC1TyH9Tne+FiN/a879L1unz/crPy+A5P23+Ax/kMwQ+WqqiNY3PEHDyC1Fe7kJdlHNt6tBGyXfWyyDntY2FKrfT+eP4OX9tyuTzbVumctSfcBL7Bft9+v+iniG5l9JjaYryqCvHRr26lcM2sW/mwbaD/CxKGl128w1g0DAlHS0GDVOSNI4WPUzxW2azGXzc5XcMSZqLlphB/26jJI2bRQ9Tko4+eYs03VmMC5KkSeUAdEkLgq497qLjERV51z6DwSXpaGWYktQag/V5HEHz+U397mqTpElmmJI0MLv3JKmq/unkk0/+13p+jn/37/5dPSdJz+DGDFqiLr744uqNb3yjN2pIOir8v//3/+q5uWyZktQaXXo8BJMxUoM+E0qSJo1hSpIkqYBhSpIkqYBhSpIkqYBhSpIkqYBhSpIkqYBhSpIkqYBhSpIkqYBhSpIkqYBhSpIkqYBhSpIkqYBhSpIkqYBhSpIkqcCyqampw/X8HNdee209J0mSdPS66qqr6rm5eoapmZmZek6SJOnoNT09Xc/NZTefJElSAcOUJElSAcOUJElSAcOUJElSAcOUJElSAcOUJElSAcOUJElSAcOUJElSAcOUJElSAcOUJElSAcOUJElSAcOUJElSAcOUJElSgWVTU1OH6/k5ZmZm6rn+du/eXc9JkiTN3/r16+u50TM9PV3PzWXLlCRJUgHDlCRJUgHDlCRJUgHDlCRJUgHDlCRJUgHDlCRJUgHDlCRJUgHDlCRJUgHDlCRJUgHDlCRJUgHDlCRJUgHDlCRJUgHDlCRJUoFlU1NTh+v5OWZmZuq5/nbv3l3Ptff1r3+9OnjwYL30rOXLl1dr1qypNmzYUK1evbpeOxz79u2rrrrqqlSHz3zmM+l1nFD/+XxvWLFiRXXJJZek+ZLj37FjR5o2btxYnXvuufVaSZLaWb9+fT03eqanp+u5uZY0TF1xxRXVH//4x3qpMyr/vve9b2ih5otf/GKacPXVV1fnnXdeml8KBBNs2bIlvbbBZz70oQ/VS+0QWG+44YY03+v4CVpMbN8p5MZn+c4++MEP1mslSWrHMFUQpt71rncdcXE+cOBAtWvXrtn909Lx6U9/ulq2bFlaXkyEBQIB9aFeS4V6XH755ake119/fetj59zdfvvt9dKzOCbK5IehGc5omYqWpF7HH2GJ9Z3OTbxvmJIkDWJcw9RIjJnavHlzqmRMb3nLW9LFmNYSuvt+85vfVDfffHO99eIiRLDvpQxSJQhG+bmMifMIglTzvbxLbtyPX5KkYRvpAehc2C+++OI0f9ttt1WHDz/biEYLClNgni4uWrQ6ifeZOo3TyjXL7mQ+5eXafK65/1iez35KNPfPfvP9x3K+zXzwHXH83b4rSZLGyUh083384x+vtm7dWq89Ehdstlu1atUR3V10gfHeTTfdVH3sYx9LF2fQ0pJ3MdGq9bnPfW72/cB2tL4Q2HL5/mIcUW6+5YW2n2P/HFsntCp94hOfqJfm58Mf/nB1zz33pHPDPrvpdPzRfdcJ9Yluw37dfNxwwPt5KOS44xxIko5udvMtkrw1pJPPfvazKaBE9xV3AAbGDnFnWrxP9yETF3CCIgO1CQ9tUQ6fmW95beoRA/EZaM9xRNdb3m0XoWXYGLPG/nnNl5moXxuEKMIkOA7CE8fI+eK9T37yk+k9SZLGzciHKVp06N7LQ1KOgMLgdFpIaA0hpICLNEELXLh5/73vfW+aaHFhHdu0vfONbbngE+o6lUewiG1y/eoRgeJTn/pU2oZwwnFwByMIVx/4wAfSOj6/FKgj+4+AF8tM3b6XHIGRwER45HELnAOO5aMf/Wg6B4znYhsmSZLGzUiHKYLLl770pTRPWOl0RxsX5dNPP71eehYXZkIKn+sUQlhHCwnbMB6rH0Jbr/IIRwSf2C70qweBhDDRreVtEsR3SIgiUOVYJizCMCVJGkcjEaYYb0UIiYluMcbXvP/970/dX1xwueOvk25dXxGQCDHdREtLp0cJNMWFPh5u2USLUjyTiWMIUXa3evA5xoJde+219ZrJQpBk6vUAVr5DzgPnbZJDpSRpMo1EmKIbjO62mBhQzvgaLsJcaBmgHrf2txV3isU4n05i0Dtdif3ENt/4xjdSV16nKfaZt0y1qcck41zQTbt///6O5yymuFOT52RJkjRORiJM0aJDy00+0SVGtxDTfINUrteT0+O9Nq0hsQ0tVN2mXqGsVz0mWQRLQlKncxaTLVKSpHE1EmGKZ0nFgOaYYkzToNoEpbjQtwk6sQ3dcQya7jXFIPjc0RoW4rwRmDudq+bUrStQkqRRNdID0EvERblXa1GEqTYtX1EeLSzM95rycBZ3u7XpSpxEdG9y4wDH3+lcNSdJksbNxIapGAzOLfndxHsxEL2XKG/btm3ptRO6q/LB54iyu9WDQMdDMrs9qHPcEZAIlxxn89wE3uOGA5+ILkkaRxMbprjrjos4F/BOQYZ1XMS52He70y4X5RGYGITexHoGUjOAPlq80KsedP0x+J47FptdmtG6RVl5eUsp6sSx5H/ap594JATnp9OxcF644SCexyVJ0jiZ2DDFrfbx4Esu1oQcLthMzLOOcMAA9zby8rjo05KUl0dQAMEh765q1oMnocfnLrvssvToBLZ/5zvfmbYJfC4CFi1XUeelROtcBEPqxLG0CXoESgIr23LerrnmmnQsnLNLL700BVHKZaycJEnjZmLDFLiAM6iZcUsEALqSmJgnqPA07jz49BPl8VmCQV4eY4Ni4HwTnyO0UQ/GDsXnaJmirG6Pfrj66qtnW83YB6FjKXGuOEZeOX6OhXq1ETcW8FmeAUaY4njiHDCwfz7fhSRJo2JJ/9DxMHHxj1YUgk90WTWxTa8/dBwIATGonBDQNgi0rUeOfTHwndaqNtsPQxzDIAGI88YxcSyEyFE5JknS0hrXP3R81ISpthgETfdVvzAlSZIW1riGqYnu5hsEXVAMrrbLSZIktWGYqjH25w1veMPsIO/mgHBJkqRODFM1xiPRGsVgaAaLx9/tkyRJ6sUxU5IkaSQ4ZkqSJOkoZJiSJEkqYJiSJEkqYJiSJEkqYJiSJEkqYJiSJEkqYJiSJEkqYJiSJEkqYJiSJEkqYJiSJEkqYJiSJEkqYJiSJEkqYJiSJEkqYJiSJEkqYJiSJEkqYJiSJEkqsGxqaupwPT/HzMxMPdff7t2767l2br311nqutxNOOKF61ateVS8tjp07d1b79++vzj///LT8+OOPVzfeeGOaf8973lMdf/zxaV6SJC2e9evX13OjZ3p6up6ba8lapghTbaYf/ehH9ScWz69+9au0r/DEE0+kQMWrJElSL0vWMtUU4ekd73hH9XSd6rXD8e1vf7u69957q4985CP1mmdap2gVs1VKkqThsGVqwpx88skGKUmS1NdYtUzxPi1ItBqBwLN58+bZsU45tqHFad++fdVf//rXtC3bEZC2b99eXXrppdWqVavStp1aphgzxWfe/OY3p+UYR8X4LVqsqEvUI+rA9k10U955552z265evTqVwWckSdKzbJlaZAQeAgyB5YILLkgTwYh1hJVcBB+C1JYtW1LQIaBRBuOjeL/feCi2iQAUWObz27ZtqzZt2pTKfclLXpKCWAxYz1E3glsEOSb2Sz2adZYkSeNpLMIUIYZgRHCh5erVr351mrjTjpBEaMkRVvgM2xK6CDG0MLFM8ClBPdhvlEsLF61M7G/Pnj31Vs/cIUi92Ib9Rph697vfnVrEeI8WM0mSNN7GIkzRskOAIbg08V7cfYcINQQcutRyBK9uXYht0SLV7M4j5IHHKwRCG92BBKgc6y688MJU59JgJ0mSlt7YDUAnLNHVxlgkutBoAcpFqGoGqRDBZ1DNIAUCEvKuQwId3ZAEpuZE6xbiVZIkja+xCVOEp+uuuy5NN91002yQiiATIkx1uxOvuf1ioQuPutDl2JyouyRJmgxjEaZozYkAwtinK6+8Mt15x2uz267f4wz6DTxfKNSDulHHbhPdfZIkabyNRZiKgd0M5GYsVN7V1gxHEa4IYJ3QRTgMdDMyhoq6dpv6BT9JkjT6xiJMReho3v1GN1o+6Bt04xGoCGDNxw9wB11+x91iIvQR9Jp3GoIuy89//vNz6i5JksbPWIQp7qADY6VocSIQEUh4tlOnbju6Amn54XlQhJavfe1r6ZXPNO+uWyyEKUIdYYpxUrSIMbFMlyX1tmVKkqTxNxZhilASIYhgQogilPCsqQhaOYJUPGOKwMJdcyeddFJax3vD8ta3vjWFKgIgQZCJenM8w66LJElaHCPz52Taim46xiQN0rITj1QgzBBqhoHuSQId9V25cqUtUpIkdeCfkxkSAhBTr0BCcOk0VgkxTmmYrULUlToPGgAlSdLoGrsw1QbdaoQpxkrRksVAdV7pIuS95h2BkiRJgxq7br62CFOdWqcYZ8X4K1uIJEkaLePazTexYQoxVok753hkgt1skiSNLsdMjaAYq8Qdf/3GWUmSJA1iosOUJEnSYjNMSZIkFTBMSZIkFTBMSZIkFTBMSZIkFTBMSZIkFTBMSZIkFTBMSZIkFTBMSZIkFTBMSZIkFTBMSZIkFTBMSZIkFTBMSZIkFTBMSZIkFTBMSZIkFTBMSZIkFTBMSZIkFTBMSZIkFTBMSZIkFTBMSZIkFTBMSZIkFViyMPX73/+++vnPf37EtGvXrurPf/5zvcVoufXWW6u77rqrXiqzZ8+eVN4TTzxRr1l8jz76aDrHHAPTzp07q7/85S/1u5IkaVBLFqa4uO/fv79eesaDDz5Y/fCHP6zuu+++es3oWLVqVfW85z2vXmqPYyHE5JYtWzZQWYMipBKgCE+nnHJKmjjXsS6wjpC30Ciz+V1LkjQplrSb79hjj61e/vKXz05nn312tXXr1uoPf/jDyAWqTZs2pWm+/va3v81pAVq3bl06zhNOOKFes7hoCduwYUN11llnpVcmzjWhbvfu3fVWVfXUU08tSmsZZf7973+vlyRJmiz/dPLJJ/9rPT/HZZddVs/199hjj9Vz7dAKwkV2amqqXvOM5cuXV//4xz+q3/3ud+m9Y455Nu8RCn79619Xe/furR5//PHUukMgCwSX3/72t6kL64EHHui4DcGGAPGLX/wihbaDBw9WK1eunN0P+3j44YdTd+Mvf/nL6k9/+lP1ghe8IJVJebTqgNamw4cPp23ZrtP+2IbjfPLJJ9N2HC+fjy63F73oRWk7tKk7LUms432227dvX/rc099hvcVcHC/nkgD13Oc+t177dIp++nhPPfXU6qSTTqqOP/74dNzsn/KoH/Ves2ZN2rZf3Xj/7rvvTuVzbgnCHOehQ4fScXLc1IP6ss/nPOc56XOSJOXiGjuKvvCFL9Rzcy1py1Q3EbC4oAcu5HRXcaJp2aFVhS7BfIzVz372sxSQeJ/pwIEDKYAELugsExbYxwtf+MLqoYceOmIbymM8F+XwfnyxrM9bbR555JEUHGJ/bEug3LFjRwoXIIQROggZeVnUgzoElu+44450vGwXZVGvKAt8hvNAPdgn5bJMEOqGbQgvbMN+citWrEj1A68EHbD/POhRtzgf7Jc6ce6jbrRoUTe+H3BuCVpx3CC0MW+QkiRNmpEMU1xw6QKLiz8XasLAOeeck1pYuNDTLUgAIEyACzthhPW8z0S3Vt7yxcWeEBbrmZgnDOShLN8mwkAn7JPt2FeURZ0JYyBMcRwcD9t0S9yd6kU3HOU3gxIBJY4xXgk6vVAuwZIAdM8996T6NYMVdaOFDpRJ3UEd4th45b1XvOIV6b087IIyqBPbcdxMbB/vMW+YkiRNmpEMU01ctKMFhVaZmLjgRwjiIs1E+MjXcWEPhDJaVvILOhf8888/f7Z80GLT5qLP/ptlERryVqc2CDrNspjvFJSagYx9RgtRNxzba17zmuqMM85IywTQH/zgB6k7rt9nqUeEI3Deux1fs26SJB0NRjZMcZGPcBEtR9wVlk+EgjwM5C0w3/ve91K3X94CQxDIxyB102Yb5AEs0HLUL6A0cWydyiLUcewLhVY2Br6//vWvT61LBLVeXYSBbehy3LZtWzrvo3i3pSRJS2UkwxQtHwSSPGDQ6kELUqcpRAsM6wgLEawi3OQtPwuhU9Bpdp+1QatPp7Kod9tgN18Eq04tX010CRJa4/wTxHhd6HMpSdK4GrkwRYCgRYkWnug2IiTResMFnOARE3fTMYHPxRge3qPbjJaqfD3lxHimHGOWaLWar+aYIXRrZeqFY+1UFutKu844XlqUIlDmCHD9QhHnheNhrBrnle0JjIOcL0mSJtGShylaoZgIDoQa7hyLwdiBFhRaaAhZMR6Kz9D1FM9J4gLP4Oq4o4zwEPMRSAgEfI71vM9Eq0u/1pluCBR5WdSP13ycVgTBaG3rpFu9WMd7JXjYKGGN80p51DnqzXHnA+zZDnTrRQsb65iPh27yWeo2HwQwHjHBeYhzQBl0GcYy79E1m3c78v3ynUqSNMqW9DlTXNy5oDPxDCIu2gQnuuiOO+64esunE98xx6RQwDOOCAERBAhJL3vZy9L7PCuJwBXPYOK5SDxD6vTTT69OO+20VA7BgInnVPG8KrbhGVBbtmxJz7cC9SLMxd1sgf1Rfqznok9oiudMURYPpjzzzDNnywLzlBn14dlNBAfWRVCiToQungcV9WLbzZs3H/EMKY67+SR2ziHdmXmAy8W5i7BGvZmoA+cm/xz1INzE+X3xi1+c9sU54pzG59euXZvqx6MUeJ/PcE757iijie+SFjKOi++CbZgnmPGZCFvsk/fjmAnK7LvbsUmSJktpb8xi6vWcqWVPX6ie6SfrYGZmpp7rL1qIFhsXbiYuwN26qLhIg26pbtps0wutKhs3bkwtO23KihaYbnUOpfXqhToQoggz860r6wi7fLbfMXTDseX7je8xNJfRaZ0kaTKtX7++nhs909PT9dxcY/FohBwXVi7IvS6wvN8vjLTZpq02ZVHfNqFgIevVxP5J/YPUlWVaodocQzfN/XbaR1PJ/iRJGoaxC1OSJEmjxDA1IMZ1NcdVSZKko49hakB0l9kFJUmSDFOSJEkFDFOSJEkFDFOSJEkFDFOSJEkFDFOSJEkFDFOSJEkFDFOSJEkFDFOSJEkFDFOSJEkFDFOSJEkFDFOSJEkFDFOSJEkFDFOSJEkFDFOSJEkFDFOSJEkFDFOSJEkFDFOSJEkFDFOSJEkFDFOSJEkFDFOSJEkFlk1NTR2u5+eYmZmp5/rbvXt3PSdpWO66667q/vvvr5eesWLFiurss89Or4uN/eOss85Kr5JUYv369fXc6Jmenq7n5rJlShpjTz31VApN55xzzuy0fPny6pZbbqkeffTReqvFw/6ZJOloZpiSxhzhafXq1bMTgWrVqlXVrl276i2e8eSTT1b79+9PUzcEMN7vFsQoI7Zpg+1jan4u6nPgwIF6zZHi/U77ysttlsG6+dRRkkrZzSeNsTvuuCO9EqByrD948GB1wQUXpGWCFV1yxx13XAobvL7uda+rTjnllPQ+YYTPEEJim1NPPbV67Wtfm5bxyCOPVNu3b0/zYD2f57W5/0CZlE1dwCvN+Hzu3nvvTZ9lHd2EZ5xxRtoGO3bsqH7605+moBj15Vii67JZ7oYNG6rNmzd3PE7KXrt2bdpO0mizm0/SyNi3b1+1cuXKNB9BiVBx8cUXV29729vSf1gEIwIHGHdFMLnkkkvSNm9605tSeIpfkijj+9//fvXSl740fZ6J8NMcr9UJAY3gRrlvfOMbU5kPPPDA7L4oh2AVdSEQ3XfffdWFF144W19a2vIgB1qezj333LQNQYo6EqS2bNky+zmOk2OPsiVpMRimpDFHWCGMxLRt27YUHgg+IJisW7cutd4EAsfhw4dnwxDbEkCOPfbYtEyLEK1HEUKiy4zQEvgMIaefNWvWzLaA8UrZhJzYF+Wwnxh7RZiivnnZBEHCXt5119yGkEZrWt7CxXGynzahT5IGZZiSxhwtMrREMRFEHnvssdSyRGgBYSu66PIJ0U2GvXv3plac73znO9XNN998RHBhu053B0ZI6iVCU1vsNw9+oLuO4+FYQrNc3uNcNI+ToJYfpyQtNMOUNOZooaFLjImxS83wQBAhCNEalE/5WKI777yz+vGPf5wCC61PlNVsdYpWqtxi3MlHSOq0r37aHKckLQbDlDRBuJuPEER3X4ixU7T25BMBI1qWdu7cmcYfEaRYH61agWUCWjPk0Bq20KhTs1xanNh/r5awE088Mb32Ok5JWgyGKWnCEIgII9FNt3HjxtTNlwcs7pb76le/OtuCReCimy/wft7NRyChxYgB3gQbsM0gLUj9UH/GP9FlCfZB9yOBrtcYLcZexXFGvSiD46TrE4ydohsz3qdrkOXoPuTYGHPmGCtJ82GYkiYMrVOEn9tvvz0tE0LotiNY3HjjjWliUDrdX9ECRasUASLef/DBB48ILnShUQYBiweCsg1BLAa5LyTqv2nTphSK2A9haNmyZWn/vUQdI0DxWcIfx5nf2UhwOnToUFpmnilCJa8c42KEREmTy+dMSUeRCA3NbrxAsIjB3t30K2MhsS/qM99B7L3qyDivvLx+y5KGh3GOo8rnTElKCBe9QhBji/qFpH5lLCT2M0iw6VXHZnn9liWpH8OUJElSAcOUJElSgQUbMxV3w0iSJA1ilB9j4pgpSZKkRWKYkiRJKmCYkiRJKmCYkiRJKmCYkiRJKmCYkiRJKmCYkiRJKrBgz5mSJEmaVD5nSpIkaZEYpiRJkgoYpiRJkgoYpiRJkgoYpiRJkgoYpiRJkgoYpiRJkgoYpiRJkgoYpiRJkgoYpiRJkgoYpiRJkgos2N/m2717dz0nSZI0f+vXr6/nRo9/m0+SJGmRGKYkSZIKGKYkSZIKGKYkSZIKGKYkSZIKGKYkSZIKGKYkSZIKGKYkSZIKGKYkSZIKGKYkSZIKGKYkSZIKGKYkSZIKGKYkSZIKLJuamjpcz88xMzNTz/W3e/fueq69r3/969XBgwfrpWctX768WrNmTbVhw4Zq9erV9drh2LdvX3XVVVelOnzmM59Jr+OE+s/ne8OKFSuqSy65JM2XHP+OHTvStHHjxurcc8+t10qS1M769evrudEzPT1dz821pGHqiiuuqP74xz/WS51R+fe9731DCzVf/OIX04Srr766Ou+889L8UiCYYMuWLem1DT7zoQ99qF5qh8B6ww03pPlex0/QYmL7TiE3Pst39sEPfrBeK0lSO4apgjD1rne964iL84EDB6pdu3bN7p+Wjk9/+tPVsmXL0vJiIiwQCKgP9Voq1OPyyy9P9bj++utbHzvn7vbbb6+XnsUxUSY/DM1wRstUtCT1Ov4IS6zvdG7ifcOUJGkQ4xqmRmLM1ObNm1MlY3rLW96SLsa0ltDd95vf/Ka6+eab660XFyGCfS9lkCpBMMrPZUycRxCkmu/lXXLjfvySJA3bSA9A58J+8cUXp/nbbrutOnz42UY0WlCYAvN0cdGi1Um8z9RpnFauWXYn8ykv1+Zzzf3H8nz2U6K5f/ab7z+W823mg++I4+/2XUmSNE5Gopvv4x//eLV169Z67ZG4YLPdqlWrjujuoguM92666abqYx/7WLo4g5aWvIuJVq3Pfe5zs+8HtqP1hcCWy/cX44hy8y0vtP0c++fYOqFV6ROf+ES9ND8f/vCHq3vuuSedG/bZTafjj+67TqhPdBv26+bjhgPez0Mhxx3nQJJ0dLObb5HkrSGdfPazn00BJbqvuAMwMHaIO9PifboPmbiAExQZqE14aIty+Mx8y2tTjxiIz0B7jiO63vJuuwgtw8aYNfbPa77MRP3aIEQRJsFxEJ44Rs4X733yk59M70mSNG5GPkzRokP3Xh6ScgQUBqfTQkJrCCEFXKQJWuDCzfvvfe9700SLC+vYpu2db2zLBZ9Q16k8gkVsk+tXjwgUn/rUp9I2hBOOgzsYQbj6wAc+kNbx+aVAHdl/BLxYZur2veQIjAQmwiOPW+AccCwf/ehH0zlgPBfbMEmSNG5GOkwRXL70pS+lecJKpzvauCiffvrp9dKzuDATUvhcpxDCOlpI2IbxWP0Q2nqVRzgi+MR2oV89CCSEiW4tb5MgvkNCFIEqxzJhEYYpSdI4GokwxXgrQkhMdIsxvub9739/6v7igssdf5106/qKgESI6SZaWjo9SqApLvTxcMsmWpTimUwcQ4iyu9WDzzEW7Nprr63XTBaCJFOvB7DyHXIeOG+THColSZNpJMIU3WB0t8XEgHLG13AR5kLLAPW4tb+tuFMsxvl0EoPe6UrsJ7b5xje+kbryOk2xz7xlqk09Jhnngm7a/fv3dzxnMcWdmjwnS5KkcTISYYoWHVpu8okuMbqFmOYbpHK9npwe77VpDYltaKHqNvUKZb3qMckiWBKSOp2zmGyRkiSNq5EIUzxLKgY0xxRjmgbVJijFhb5N0Ilt6I5j0HSvKQbB547WsBDnjcDc6Vw1p25dgZIkjaqRHoBeIi7KvVqLIky1afmK8mhhYb7XlIezuNutTVfiJKJ7kxsHOP5O56o5SZI0biY2TMVgcG7J7ybei4HovUR527ZtS6+d0F2VDz5HlN2tHgQ6HpLZ7UGd446ARLjkOJvnJvAeNxz4RHRJ0jia2DDFXXdcxLmAdwoyrOMizsW+2512uSiPwMQg9CbWM5CaAfTR4oVe9aDrj8H33LHY7NKM1i3KystbSlEnjiX/0z79xCMhOD+djoXzwg0H8TwuSZLGycSGKW61jwdfcrEm5HDBZmKedYQDBri3kZfHRZ+WpLw8ggIIDnl3VbMePAk9PnfZZZelRyew/Tvf+c60TeBzEbBouYo6LyVa5yIYUieOpU3QI1ASWNmW83bNNdekY+GcXXrppSmIUi5j5SRJGjcTG6bABZxBzYxbIgDQlcTEPEGFp3HnwaefKI/PEgzy8hgbFAPnm/gcoY16MHYoPkfLFGV1e/TD1VdfPdtqxj4IHUuJc8Ux8srxcyzUq424sYDP8gwwwhTHE+eAgf3z+S4kSRoVS/qHjoeJi3+0ohB8osuqiW16/aHjQAiIQeWEgLZBoG09cuyLge+0VrXZfhjiGAYJQJw3joljIUSOyjFJkpbWuP6h46MmTLXFIGi6r/qFKUmStLDGNUxNdDffIOiCYnC1XU6SJKkNw1SNsT9veMMbZgd5NweES5IkdWKYqjEeidYoBkMzWDz+bp8kSVIvjpmSJEkjwTFTkiRJRyHDlCRJUgHDlCRJUgHDlCRJUgHDlCRJUgHDlCRJUgHDlCRJUgHDlCRJUgHDlCRJUgHDlCRJUgHDlCRJUgHDlCRJUgHDlCRJUgHDlCRJUgHDlCRJUgHDlCRJUoFlU1NTh+v5OWZmZuq5/nbv3l3PtXPrrbfWc72dcMIJ1ate9ap6aXHs3Lmz2r9/f3X++een5ccff7y68cYb0/x73vOe6vjjj0/zkiRp8axfv76eGz3T09P13FxL1jJFmGoz/ehHP6o/sXh+9atfpX2FJ554IgUqXiVJknpZspappghP73jHO6qn61SvHY5vf/vb1b333lt95CMfqdc80zpFq5itUpIkDYctUxPm5JNPNkhJkqS+xqplivdpQaLVCASezZs3z451yrENLU779u2r/vrXv6Zt2Y6AtH379urSSy+tVq1albbt1DLFmCk+8+Y3vzktxzgqxm/RYkVdoh5RB7ZvopvyzjvvnN129erVqQw+I0mSnmXL1CIj8BBgCCwXXHBBmghGrCOs5CL4EKS2bNmSgg4BjTIYH8X7/cZDsU0EoMAyn9+2bVu1adOmVO5LXvKSFMRiwHqOuhHcIsgxsV/q0ayzJEkaT2MRpggxBCOCCy1Xr371q9PEnXaEJEJLjrDCZ9iW0EWIoYWJZYJPCerBfqNcWrhoZWJ/e/bsqbd65g5B6sU27DfC1Lvf/e7UIsZ7tJhJkqTxNhZhipYdAgzBpYn34u47RKgh4NClliN4detCbIsWqWZ3HiEPPF4hENroDiRA5Vh34YUXpjqXBjtJkrT0xm4AOmGJrjbGItGFRgtQLkJVM0iFCD6DagYpEJCQdx0S6OiGJDA1J1q3EK+SJGl8jU2YIjxdd911abrppptmg1QEmRBhqtudeM3tFwtdeNSFLsfmRN0lSdJkGIswRWtOBBDGPl155ZXpzjtem912/R5n0G/g+UKhHtSNOnab6O6TJEnjbSzCVAzsZiA3Y6HyrrZmOIpwRQDrhC7CYaCbkTFU1LXb1C/4SZKk0TcWYSpCR/PuN7rR8kHfoBuPQEUAaz5+gDvo8jvuFhOhj6DXvNMQdFl+/vOfn1N3SZI0fsYiTHEHHRgrRYsTgYhAwrOdOnXb0RVIyw/PgyK0fO1rX0uvfKZ5d91iIUwR6ghTjJOiRYyJZbosqbctU5Ikjb+xCFOEkghBBBNCFKGEZ01F0MoRpOIZUwQW7po76aST0jreG5a3vvWtKVQRAAmCTNSb4xl2XSRJ0uIYmT8n01Z00zEmaZCWnXikAmGGUDMMdE8S6KjvypUrbZGSJKkD/5zMkBCAmHoFEoJLp7FKiHFKw2wVoq7UedAAKEmSRtfYhak26FYjTDFWipYsBqrzShch7zXvCJQkSRrU2HXztUWY6tQ6xTgrxl/ZQiRJ0mgZ126+iQ1TiLFK3DnHIxPsZpMkaXQ5ZmoExVgl7vjrN85KkiRpEBMdpiRJkhabYUqSJKmAYUqSJKmAYUqSJKmAYUqSJKmAYUqSJKmAYUqSJKmAYUqSJKmAYUqSJKmAYUqSJKmAYUqSJKmAYUqSJKmAYUqSJKmAYUqSJKmAYUqSJKmAYUqSJKmAYUqSJKmAYUqSJKmAYUqSJKmAYUqSJKmAYUqSJKnAkoWp3//+99XPf/7zI6Zdu3ZVf/7zn+stRsutt95a3XXXXfVSmT179qTynnjiiXrN4nv00UfTOeYYmHbu3Fn95S9/qd+VJEmDWrIwxcV9//799dIzHnzwweqHP/xhdd9999VrRseqVauq5z3vefVSexwLISa3bNmygcoaFCGVAEV4OuWUU9LEuY51gXWEvIVGmc3vWpKkSbGk3XzHHnts9fKXv3x2Ovvss6utW7dWf/jDH0YuUG3atClN8/W3v/1tTgvQunXr0nGecMIJ9ZrFRUvYhg0bqrPOOiu9MnGuCXW7d++ut6qqp556alFayyjz73//e70kSdJk+aeTTz75X+v5OS677LJ6rr/HHnusnmuHVhAuslNTU/WaZyxfvrz6xz/+Uf3ud79L7x1zzLN5j1Dw61//utq7d2/1+OOPp9YdAlkguPz2t79NXVgPPPBAx20INgSIX/ziFym0HTx4sFq5cuXsftjHww8/nLobf/nLX1Z/+tOfqhe84AWpTMqjVQe0Nh0+fDhty3ad9sc2HOeTTz6ZtuN4+Xx0ub3oRS9K26FN3WlJYh3vs92+ffvS557+Dust5uJ4OZcEqOc+97n12qdT9NPHe+qpp1YnnXRSdfzxx6fjZv+UR/2o95o1a9K2/erG+3fffXcqn3NLEOY4Dx06lI6T46Ye1Jd9Puc5z0mfkyQpF9fYUfSFL3yhnptrSVumuomAxQU9cCGnu4oTTcsOrSp0CeZjrH72s5+lgMT7TAcOHEgBJHBBZ5mwwD5e+MIXVg899NAR21Ae47koh/fji2V93mrzyCOPpOAQ+2NbAuWOHTtSuAAhjNBByMjLoh7UIbB8xx13pONluyiLekVZ4DOcB+rBPimXZYJQN2xDeGEb9pNbsWJFqh94JeiA/edBj7rF+WC/1IlzH3WjRYu68f2Ac0vQiuMGoY15g5QkadKMZJjigksXWFz8uVATBs4555zUwsKFnm5BAgBhAlzYCSOs530murXyli8u9oSwWM/EPGEgD2X5NhEGOmGfbMe+oizqTBgDYYrj4HjYplvi7lQvuuEovxmUCChxjPFK0OmFcgmWBKB77rkn1a8ZrKgbLXSgTOoO6hDHxivvveIVr0jv5WEXlEGd2I7jZmL7eI95w5QkadKMZJhq4qIdLSi0ysTEBT9CEBdpJsJHvo4LeyCU0bKSX9C54J9//vmz5YMWmzYXffbfLIvQkLc6tUHQaZbFfKeg1Axk7DNaiLrh2F7zmtdUZ5xxRlomgP7gBz9I3XH9Pks9IhyB897t+Jp1kyTpaDCyYYqLfISLaDnirrB8IhTkYSBvgfne976Xuv3yFhiCQD4GqZs22yAPYIGWo34BpYlj61QWoY5jXyi0sjHw/fWvf31qXSKo9eoiDGxDl+O2bdvSeR/Fuy0lSVoqIxmmaPkgkOQBg1YPWpA6TSFaYFhHWIhgFeEmb/lZCJ2CTrP7rA1afTqVRb3bBrv5Ilh1avlqokuQ0BrnnyDG60KfS0mSxtXIhSkCBC1KtPBEtxEhidYbLuAEj5i4m44JfC7G8PAe3Wa0VOXrKSfGM+UYs0Sr1Xw1xwyhWytTLxxrp7JYV9p1xvHSohSBMkeA6xeKOC8cD2PVOK9sT2Ac5HxJkjSJljxM0QrFRHAg1HDnWAzGDrSg0EJDyIrxUHyGrqd4ThIXeAZXxx1lhIeYj0BCIOBzrOd9Jlpd+rXOdEOgyMuifrzm47QiCEZrWyfd6sU63ivBw0YJa5xXyqPOUW+OOx9gz3agWy9a2FjHfDx0k89St/kggPGICc5DnAPKoMswlnmPrtm825Hvl+9UkqRRtqTPmeLizgWdiWcQcdEmONFFd9xxx9VbPp34jjkmhQKecUQIiCBASHrZy16W3udZSQSueAYTz0XiGVKnn356ddppp6VyCAZMPKeK51WxDc+A2rJlS3q+FagXYS7uZgvsj/JjPRd9QlM8Z4qyeDDlmWeeOVsWmKfMqA/PbiI4sC6CEnUidPE8qKgX227evPmIZ0hx3M0nsXMO6c7MA1wuzl2ENerNRB04N/nnqAfhJs7vi1/84rQvzhHnND6/du3aVD8epcD7fIZzyndHGU18l7SQcVx8F2zDPMGMz0TYYp+8H8dMUGbf3Y5NkjRZSntjFlOv50wte/pC9Uw/WQczMzP1XH/RQrTYuHAzcQHu1kXFRRp0S3XTZpteaFXZuHFjatlpU1a0wHSrcyitVy/UgRBFmJlvXVlH2OWz/Y6hG44t3298j6G5jE7rJEmTaf369fXc6Jmenq7n5hqLRyPkuLByQe51geX9fmGkzTZttSmL+rYJBQtZryb2T+ofpK4s0wrV5hi6ae630z6aSvYnSdIwjF2YkiRJGiWGqQExrqs5rkqSJB19DFMDorvMLihJkmSYkiRJKmCYkiRJKmCYkiRJKmCYkiRJKmCYkiRJKmCYkiRJKmCYkiRJKmCYkiRJKmCYkiRJKmCYkiRJKmCYkiRJKmCYkiRJKmCYkiRJKmCYkiRJKmCYkiRJKmCYkiRJKmCYkiRJKmCYkiRJKmCYkiRJKmCYkiRJKrBsamrqcD0/x8zMTD3X3+7du+s5ScNy1113Vffff3+99IwVK1ZUZ599dnpdbOwfZ511VnqVpBLr16+v50bP9PR0PTeXLVPSGHvqqadSaDrnnHNmp+XLl1e33HJL9eijj9ZbLR72zyRJRzPDlDTmCE+rV6+enQhUq1atqnbt2lVv8Ywnn3yy2r9/f5q6IYDxfrcgRhmxTRtsH1Pzc1GfAwcO1GuOFO932ldebrMM1s2njpJUym4+aYzdcccd6ZUAlWP9wYMHqwsuuCAtE6zokjvuuONS2OD1da97XXXKKaek9wkjfIYQEtuceuqp1Wtf+9q0jEceeaTavn17mgfr+Tyvzf0HyqRs6gJeacbnc/fee2/6LOvoJjzjjDPSNtixY0f105/+NAXFqC/HEl2XzXI3bNhQbd68ueNxUvbatWvTdpJGm918kkbGvn37qpUrV6b5CEqEiosvvrh629velv7DIhgROMC4K4LJJZdckrZ505velMJT/JJEGd///verl770penzTISf5nitTghoBDfKfeMb35jKfOCBB2b3RTkEq6gLgei+++6rLrzwwtn60tKWBznQ8nTuueembQhS1JEgtWXLltnPcZwce5QtSYvBMCWNOcIKYSSmbdu2pfBA8AHBZN26dan1JhA4Dh8+PBuG2JYAcuyxx6ZlWoRoPYoQEl1mhJbAZwg5/axZs2a2BYxXyibkxL4oh/3E2CvCFPXNyyYIEvbyrrvmNoQ0WtPyFi6Ok/20CX2SNCjDlDTmaJGhJYqJIPLYY4+lliVCCwhb0UWXT4huMuzduze14nznO9+pbr755iOCC9t1ujswQlIvEZraYr958APddRwPxxKa5fIe56J5nAS1/DglaaEZpqQxRwsNXWJMjF1qhgeCCEGI1qB8yscS3XnnndWPf/zjFFhofaKsZqtTtFLlFuNOPkJSp3310+Y4JWkxGKakCcLdfIQguvtCjJ2itSefCBjRsrRz5840/oggxfpo1QosE9CaIYfWsIVGnZrl0uLE/nu1hJ144onptddxStJiMExJE4ZARBiJbrqNGzembr48YHG33Fe/+tXZFiwCF918gffzbj4CCS1GDPAm2IBtBmlB6of6M/6JLkuwD7ofCXS9xmgx9iqOM+pFGRwnXZ9g7BTdmPE+XYMsR/chx8aYM8dYSZoPw5Q0YWidIvzcfvvtaZkQQrcdweLGG29ME4PS6f6KFihapQgQ8f6DDz54RHChC40yCFg8EJRtCGIxyH0hUf9NmzalUMR+CEPLli1L++8l6hgBis8S/jjO/M5GgtOhQ4fSMvNMESp55RgXIyRKmlw+Z0o6ikRoaHbjBYJFDPbupl8ZC4l9UZ/5DmLvVUfGeeXl9VuWNDyMcxxVPmdKUkK46BWCGFvULyT1K2MhsZ9Bgk2vOjbL67csSf0YpiRJkgoYpiRJkgos2JipuBtGkiRpEKP8GBPHTEmSJC0Sw5QkSVIBw5QkSVIBw5QkSVIBw5QkSVIBw5QkSVIBw5QkSVKBBXvOlCRJ0qTyOVOSJEmLxDAlSZJUwDAlSZJUwDAlSZJUwDAlSZJUwDAlSZJUwDAlSZJUwDAlSZJUwDAlSZJUwDAlSZJUwDAlSZJUYMH+Nt/u3bvrOUmSpPlbv359PTd6/Nt8kiRJi8QwJUmSVMAwJUmSVMAwJUmSVMAwJUmSVMAwJUmSVMAwJUmSVMAwJUmSVMAwJUmSVMAwJUmSVMAwJUmSVMAwJUmSVMAwJUmSVGDZ1NTU4Xp+jpmZmXquv927d9dz7X3961+vDh48WC89a/ny5dWaNWuqDRs2VKtXr67XDse+ffuqq666KtXhM5/5THodJ9R/Pt8bVqxYUV1yySVpvuT4d+zYkaaNGzdW5557br1WkqR21q9fX8+Nnunp6XpuriUNU1dccUX1xz/+sV7qjMq/733vG1qo+eIXv5gmXH311dV5552X5pcCwQRbtmxJr23wmQ996EP1UjsE1htuuCHN9zp+ghYT23cKufFZvrMPfvCD9VpJktoxTBWEqXe9611HXJwPHDhQ7dq1a3b/tHR8+tOfrpYtW5aWFxNhgUBAfajXUqEel19+earH9ddf3/rYOXe33357vfQsjoky+WFohjNapqIlqdfxR1hifadzE+8bpiRJgxjXMDUSY6Y2b96cKhnTW97ylnQxprWE7r7f/OY31c0331xvvbgIEex7KYNUCYJRfi5j4jyCINV8L++SG/fjlyRp2EZ6ADoX9osvvjjN33bbbdXhw882otGCwhSYp4uLFq1O4n2mTuO0cs2yO5lPebk2n2vuP5bns58Szf2z33z/sZxvMx98Rxx/t+9KkqRxMhLdfB//+MerrVu31muPxAWb7VatWnVEdxddYLx30003VR/72MfSxRm0tORdTLRqfe5zn5t9P7AdrS8Etly+vxhHlJtveaHt59g/x9YJrUqf+MQn6qX5+fCHP1zdc8896dywz246HX9033VCfaLbsF83Hzcc8H4eCjnuOAeSpKOb3XyLJG8N6eSzn/1sCijRfcUdgIGxQ9yZFu/TfcjEBZygyEBtwkNblMNn5ltem3rEQHwG2nMc0fWWd9tFaBk2xqyxf17zZSbq1wYhijAJjoPwxDFyvnjvk5/8ZHpPkqRxM/JhihYduvfykJQjoDA4nRYSWkMIKeAiTdACF27ef+9735smWlxYxzZt73xjWy74hLpO5REsYptcv3pEoPjUpz6VtiGccBzcwQjC1Qc+8IG0js8vBerI/iPgxTJTt+8lR2AkMBEeedwC54Bj+ehHP5rOAeO52IZJkqRxM9JhiuDypS99Kc0TVjrd0cZF+fTTT6+XnsWFmZDC5zqFENbRQsI2jMfqh9DWqzzCEcEntgv96kEgIUx0a3mbBPEdEqIIVDmWCYswTEmSxtFIhCnGWxFCYqJbjPE173//+1P3Fxdc7vjrpFvXVwQkQkw30dLS6VECTXGhj4dbNtGiFM9k4hhClN2tHnyOsWDXXnttvWayECSZej2Ale+Q88B5m+RQKUmaTCMRpugGo7stJgaUM76GizAXWgaox639bcWdYjHOp5MY9E5XYj+xzTe+8Y3Ulddpin3mLVNt6jHJOBd00+7fv7/jOYsp7tTkOVmSJI2TkQhTtOjQcpNPdInRLcQ03yCV6/Xk9HivTWtIbEMLVbepVyjrVY9JFsGSkNTpnMVki5QkaVyNRJjiWVIxoDmmGNM0qDZBKS70bYJObEN3HIOme00xCD53tIaFOG8E5k7nqjl16wqUJGlUjfQA9BJxUe7VWhRhqk3LV5RHCwvzvaY8nMXdbm26EicR3ZvcOMDxdzpXzUmSpHEzsWEqBoNzS3438V4MRO8lytu2bVt67YTuqnzwOaLsbvUg0PGQzG4P6hx3BCTCJcfZPDeB97jhwCeiS5LG0cSGKe664yLOBbxTkGEdF3Eu9t3utMtFeQQmBqE3sZ6B1AygjxYv9KoHXX8MvueOxWaXZrRuUVZe3lKKOnEs+Z/26SceCcH56XQsnBduOIjncUmSNE4mNkxxq308+JKLNSGHCzYT86wjHDDAvY28PC76tCTl5REUQHDIu6ua9eBJ6PG5yy67LD06ge3f+c53pm0Cn4uARctV1Hkp0ToXwZA6cSxtgh6BksDKtpy3a665Jh0L5+zSSy9NQZRyGSsnSdK4mdgwBS7gDGpm3BIBgK4kJuYJKjyNOw8+/UR5fJZgkJfH2KAYON/E5wht1IOxQ/E5WqYoq9ujH66++urZVjP2QehYSpwrjpFXjp9joV5txI0FfJZngBGmOJ44Bwzsn893IUnSqFjSP3Q8TFz8oxWF4BNdVk1s0+sPHQdCQAwqJwS0DQJt65FjXwx8p7WqzfbDEMcwSADivHFMHAshclSOSZK0tMb1Dx0fNWGqLQZB033VL0xJkqSFNa5haqK7+QZBFxSDq+1ykiRJbRimaoz9ecMb3jA7yLs5IFySJKkTw1SN8Ui0RjEYmsHi8Xf7JEmSenHMlCRJGgmOmZIkSToKGaYkSZIKGKYkSZIKGKYkSZIKGKYkSZIKGKYkSZIKGKYkSZIKGKYkSZIKGKYkSZIKGKYkSZIKGKYkSZIKGKYkSZIKGKYkSZIKGKYkSZIKGKYkSZIKGKYkSZIKLJuamjpcz88xMzNTz/W3e/fueq6dW2+9tZ7r7YQTTqhe9apX1UuLY+fOndX+/fur888/Py0//vjj1Y033pjm3/Oe91THH398mpckSYtn/fr19dzomZ6erufmWrKWKcJUm+lHP/pR/YnF86tf/SrtKzzxxBMpUPEqSZLUy5K1TDVFeHrHO95RPV2neu1wfPvb367uvffe6iMf+Ui95pnWKVrFbJWSJGk4bJmaMCeffLJBSpIk9TVWLVO8TwsSrUYg8GzevHl2rFOObWhx2rdvX/XXv/41bct2BKTt27dXl156abVq1aq0baeWKcZM8Zk3v/nNaTnGUTF+ixYr6hL1iDqwfRPdlHfeeefstqtXr05l8BlJkvQsW6YWGYGHAENgueCCC9JEMGIdYSUXwYcgtWXLlhR0CGiUwfgo3u83HoptIgAFlvn8tm3bqk2bNqVyX/KSl6QgFgPWc9SN4BZBjon9Uo9mnSVJ0ngaizBFiCEYEVxouXr1q1+dJu60IyQRWnKEFT7DtoQuQgwtTCwTfEpQD/Yb5dLCRSsT+9uzZ0+91TN3CFIvtmG/Eabe/e53pxYx3qPFTJIkjbexCFO07BBgCC5NvBd33yFCDQGHLrUcwatbF2JbtEg1u/MIeeDxCoHQRncgASrHugsvvDDVuTTYSZKkpTd2A9AJS3S1MRaJLjRagHIRqppBKkTwGVQzSIGAhLzrkEBHNySBqTnRuoV4lSRJ42tswhTh6brrrkvTTTfdNBukIsiECFPd7sRrbr9Y6MKjLnQ5NifqLkmSJsNYhClacyKAMPbpyiuvTHfe8drstuv3OIN+A88XCvWgbtSx20R3nyRJGm9jEaZiYDcDuRkLlXe1NcNRhCsCWCd0EQ4D3YyMoaKu3aZ+wU+SJI2+sQhTETqad7/RjZYP+gbdeAQqAljz8QPcQZffcbeYCH0EveadhqDL8vOf//ycukuSpPEzFmGKO+jAWClanAhEBBKe7dSp246uQFp+eB4UoeVrX/taeuUzzbvrFgthilBHmGKcFC1iTCzTZUm9bZmSJGn8jUWYIpRECCKYEKIIJTxrKoJWjiAVz5gisHDX3EknnZTW8d6wvPWtb02higBIEGSi3hzPsOsiSZIWx8j8OZm2opuOMUmDtOzEIxUIM4SaYaB7kkBHfVeuXGmLlCRJHfjnZIaEAMTUK5AQXDqNVUKMUxpmqxB1pc6DBkBJkjS6xi5MtUG3GmGKsVK0ZDFQnVe6CHmveUegJEnSoMaum68twlSn1inGWTH+yhYiSZJGy7h2801smEKMVeLOOR6ZYDebJEmjyzFTIyjGKnHHX79xVpIkSYOY6DAlSZK02AxTkiRJBQxTkiRJBQxTkiRJBQxTkiRJBQxTkiRJBQxTkiRJBQxTkiRJBQxTkiRJBQxTkiRJBQxTkiRJBQxTkiRJBQxTkiRJBQxTkiRJBQxTkiRJBQxTkiRJBQxTkiRJBQxTkiRJBQxTkiRJBQxTkiRJBQxTkiRJBZYsTP3+97+vfv7znx8x7dq1q/rzn/9cbzFabr311uquu+6ql8rs2bMnlffEE0/Uaxbfo48+ms4xx8C0c+fO6i9/+Uv9riRJGtSShSku7vv376+XnvHggw9WP/zhD6v77ruvXjM6Vq1aVT3vec+rl9rjWAgxuWXLlg1U1qAIqQQowtMpp5ySJs51rAusI+QtNMpsfteSJE2KJe3mO/bYY6uXv/zls9PZZ59dbd26tfrDH/4wcoFq06ZNaZqvv/3tb3NagNatW5eO84QTTqjXLC5awjZs2FCdddZZ6ZWJc02o2717d71VVT311FOL0lpGmX//+9/rJUmSJss/nXzyyf9az89x2WWX1XP9PfbYY/VcO7SCcJGdmpqq1zxj+fLl1T/+8Y/qd7/7XXrvmGOezXuEgl//+tfV3r17q8cffzy17hDIAsHlt7/9berCeuCBBzpuQ7AhQPziF79Ioe3gwYPVypUrZ/fDPh5++OHU3fjLX/6y+tOf/lS94AUvSGVSHq06oLXp8OHDaVu267Q/tuE4n3zyybQdx8vno8vtRS96UdoObepOSxLreJ/t9u3blz739HdYbzEXx8u5JEA997nPrdc+naKfPt5TTz21Oumkk6rjjz8+HTf7pzzqR73XrFmTtu1XN96/++67U/mcW4Iwx3no0KF0nBw39aC+7PM5z3lO+pwkSbm4xo6iL3zhC/XcXEvaMtVNBCwu6IELOd1VnGhadmhVoUswH2P1s5/9LAUk3mc6cOBACiCBCzrLhAX28cIXvrB66KGHjtiG8hjPRTm8H18s6/NWm0ceeSQFh9gf2xIod+zYkcIFCGGEDkJGXhb1oA6B5TvuuCMdL9tFWdQrygKf4TxQD/ZJuSwThLphG8IL27Cf3IoVK1L9wCtBB+w/D3rULc4H+6VOnPuoGy1a1I3vB5xbglYcNwhtzBukJEmTZiTDFBdcusDi4s+FmjBwzjnnpBYWLvR0CxIACBPgwk4YYT3vM9Gtlbd8cbEnhMV6JuYJA3koy7eJMNAJ+2Q79hVlUWfCGAhTHAfHwzbdEnenetENR/nNoERAiWOMV4JOL5RLsCQA3XPPPal+zWBF3WihA2VSd1CHODZeee8Vr3hFei8Pu6AM6sR2HDcT28d7zBumJEmTZiTDVBMX7WhBoVUmJi74EYK4SDMRPvJ1XNgDoYyWlfyCzgX//PPPny0ftNi0ueiz/2ZZhIa81akNgk6zLOY7BaVmIGOf0ULUDcf2mte8pjrjjDPSMgH0Bz/4QeqO6/dZ6hHhCJz3bsfXrJskSUeDkQ1TXOQjXETLEXeF5ROhIA8DeQvM9773vdTtl7fAEATyMUjdtNkGeQALtBz1CyhNHFunsgh1HPtCoZWNge+vf/3rU+sSQa1XF2FgG7oct23bls77KN5tKUnSUhnJMEXLB4EkDxi0etCC1GkK0QLDOsJCBKsIN3nLz0LoFHSa3Wdt0OrTqSzq3TbYzRfBqlPLVxNdgoTWOP8EMV4X+lxKkjSuRi5MESBoUaKFJ7qNCEm03nABJ3jExN10TOBzMYaH9+g2o6UqX085MZ4px5glWq3mqzlmCN1amXrhWDuVxbrSrjOOlxalCJQ5Aly/UMR54XgYq8Z5ZXsC4yDnS5KkSbTkYYpWKCaCA6GGO8diMHagBYUWGkJWjIfiM3Q9xXOSuMAzuDruKCM8xHwEEgIBn2M97zPR6tKvdaYbAkVeFvXjNR+nFUEwWts66VYv1vFeCR42SljjvFIedY56c9z5AHu2A9160cLGOubjoZt8lrrNBwGMR0xwHuIcUAZdhrHMe3TN5t2OfL98p5IkjbIlfc4UF3cu6Ew8g4iLNsGJLrrjjjuu3vLpxHfMMSkU8IwjQkAEAULSy172svQ+z0oicMUzmHguEs+QOv3006vTTjstlUMwYOI5VTyvim14BtSWLVvS861AvQhzcTdbYH+UH+u56BOa4jlTlMWDKc8888zZssA8ZUZ9eHYTwYF1EZSoE6GL50FFvdh28+bNRzxDiuNuPomdc0h3Zh7gcnHuIqxRbybqwLnJP0c9CDdxfl/84henfXGOOKfx+bVr16b68SgF3ucznFO+O8po4rukhYzj4rtgG+YJZnwmwhb75P04ZoIy++52bJKkyVLaG7OYej1natnTF6pn+sk6mJmZqef6ixaixcaFm4kLcLcuKi7SoFuqmzbb9EKrysaNG1PLTpuyogWmW51Dab16oQ6EKMLMfOvKOsIun+13DN1wbPl+43sMzWV0WidJmkzr16+v50bP9PR0PTfXWDwaIceFlQtyrwss7/cLI222aatNWdS3TShYyHo1sX9S/yB1ZZlWqDbH0E1zv5320VSyP0mShmHswpQkSdIoMUwNiHFdzXFVkiTp6GOYGhDdZXZBSZIkw5QkSVIBw5QkSVIBw5QkSVIBw5QkSVIBw5QkSVIBw5QkSVIBw5QkSVIBw5QkSVIBw5QkSVIBw5QkSVIBw5QkSVIBw5QkSVIBw5QkSVIBw5QkSVIBw5QkSVIBw5QkSVIBw5QkSVIBw5QkSVIBw5QkSVIBw5QkSVKBZVNTU4fr+TlmZmbquf52795dz0kalrvuuqu6//7766VnrFixojr77LPT62Jj/zjrrLPSqySVWL9+fT03eqanp+u5uWyZksbYU089lULTOeecMzstX768uuWWW6pHH3203mrxsH8mSTqaGaakMUd4Wr169exEoFq1alW1a9eueotnPPnkk9X+/fvT1A0BjPe7BTHKiG3aYPuYmp+L+hw4cKBec6R4v9O+8nKbZbBuPnWUpFJ280lj7I477kivBKgc6w8ePFhdcMEFaZlgRZfccccdl8IGr6973euqU045Jb1PGOEzhJDY5tRTT61e+9rXpmU88sgj1fbt29M8WM/neW3uP1AmZVMX8EozPp+7995702dZRzfhGWeckbbBjh07qp/+9KcpKEZ9OZboumyWu2HDhmrz5s0dj5Oy165dm7aTNNrs5pM0Mvbt21etXLkyzUdQIlRcfPHF1dve9rb0HxbBiMABxl0RTC655JK0zZve9KYUnuKXJMr4/ve/X730pS9Nn2ci/DTHa3VCQCO4Ue4b3/jGVOYDDzwwuy/KIVhFXQhE9913X3XhhRfO1peWtjzIgZanc889N21DkKKOBKktW7bMfo7j5NijbElaDIYpacwRVggjMW3bti2FB4IPCCbr1q1LrTeBwHH48OHZMMS2BJBjjz02LdMiROtRhJDoMiO0BD5DyOlnzZo1sy1gvFI2ISf2RTnsJ8ZeEaaob142QZCwl3fdNbchpNGalrdwcZzsp03ok6RBGaakMUeLDC1RTASRxx57LLUsEVpA2IouunxCdJNh7969qRXnO9/5TnXzzTcfEVzYrtPdgRGSeonQ1Bb7zYMf6K7jeDiW0CyX9zgXzeMkqOXHKUkLzTAljTlaaOgSY2LsUjM8EEQIQrQG5VM+lujOO++sfvzjH6fAQusTZTVbnaKVKrcYd/IRkjrtq582xylJi8EwJU0Q7uYjBNHdF2LsFK09+UTAiJalnTt3pvFHBCnWR6tWYJmA1gw5tIYtNOrULJcWJ/bfqyXsxBNPTK+9jlOSFoNhSpowBCLCSHTTbdy4MXXz5QGLu+W++tWvzrZgEbjo5gu8n3fzEUhoMWKAN8EGbDNIC1I/1J/xT3RZgn3Q/Uig6zVGi7FXcZxRL8rgOOn6BGOn6MaM9+kaZDm6Dzk2xpw5xkrSfBimpAlD6xTh5/bbb0/LhBC67QgWN954Y5oYlE73V7RA0SpFgIj3H3zwwSOCC11olEHA4oGgbEMQi0HuC4n6b9q0KYUi9kMYWrZsWdp/L1HHCFB8lvDHceZ3NhKcDh06lJaZZ4pQySvHuBghUdLk8jlT0lEkQkOzGy8QLGKwdzf9ylhI7Iv6zHcQe686Ms4rL6/fsqThYZzjqPI5U5ISwkWvEMTYon4hqV8ZC4n9DBJsetWxWV6/ZUnqxzAlSZJUwDAlSZJUYMHGTMXdMJIkSYMY5ceYOGZKkiRpkRimJEmSChimJEmSChimJEmSChimJEmSChimJEmSChimJEmSCizYc6YkSZImlc+ZkiRJWiSGKUmSpAKGKUmSpAKGKUmSpAKGKUmSpAKGKUmSpAKGKUmSpAKGKUmSpAKGKUmSpAKGKUmSpAKGKUmSpAKGKUmSpAKGKUmSpAKGKUmSpAKGKUmSpAKGKUmSpAKGKUmSpAKGKUmSpAKGKUmSpAKGKUmSpAKGKUmSpAKGKUmSpAKGKUmSpAKGKUmSpALLpqamDtfzc8zMzNRzkrTwDh06VP3kJz9J0969e6uHH344rV+7dm31/Oc/v3rlK19ZnXfeeWmdJC2l6enpem4uw5SkJXH33XdXN9xwQwpUvZx22mnVRRddZKiStKR6hSm7+SQN3Ze//OXquuuu6xukQGvV9ddfX91yyy31GkkaLYYpSUNFKPrud79bL7X3rW99q/rKV75SL0nS6DBMSRqa2267LYWiQW3fvj11D0rSKDFMSRqab37zm/Xc4NqMs5KkYTJMSRoKWqXibr0ScQegJI0Kw5SkoVjIAHTPPffUc5K09AxTkobioYcequfK7dmzp56TpKVnmJI0FPfff389V24hugslaaEYpiRJkgoYpiQNBU8yXyjr1q2r5yRp6RmmJA3FQgYg/m6fJI0Kw5SkoeCPFi+UrVu31nOStPQMU5KGgjB14okn1kuDo7vQP3osaZQYpiQNBUHq8ssvr5cGd9FFF9VzkjQaDFOShubMM8+sLrjggnpp/ghStkpJGjWGKUlD9fa3v32g1iVCmK1SkkaRYUrS0BGKrrjiilaPS6B78Morr0whTJJG0bKpqanD9fwcMzMz9ZwkLQ7+ADJ/t4+nmu/duzetI2TxKAUGrS/UwHVJKjE9PV3PzWWYkiRJ6qNXmLKbT5IkqYBhSpIkqYBhSpIkqYBhSpIkqYBhSpIkqYBhSpIkqYBhSpIkqYBhSpIkqYBhSpIkqYBhSpIkqYBhSpIkqYB/m0/Skjl06FB1++23V/fdd1/6I8f8sWOsXbu2ev7zn5/+yPF5552X1knSUvIPHUsaOXfffXd1ww03pEDVy2mnnVZddNFFhipJS8o/dCxppHz5y1+urrvuur5BCrRWXX/99dUtt9xSr5Gk0WKYkjRUhKLvfve79VJ73/rWt6qvfOUr9ZIkjQ7DlKShue2221IoGtT27dtT96AkjRLDlKSh+eY3v1nPDa7NOCtJGibDlKShoFUq7tYrEXcAStKoMExJGoqf/OQn9Vy5nTt31nOStPQMU5KG4qGHHqrnyu3Zs6eek6SlZ5iSNBT3339/PVduIboLJWmhGKYkSZIKGKYkDQVPMl8o69atq+ckaekZpiQNxUIGIP5unySNCsOUpKE444wz6rlyW7dureckaekZpiQNxbnnnludeOKJ9dLg6C70jx5LGiWGKUlDQZC6/PLL66XBXXTRRfWcJI0Gw5SkoTnzzDOrCy64oF6aP4KUrVKSRo1hStJQvf3tbx+odYkQZquUpFFkmJI0dISiK664otXjEugevPLKK1MIk6RRtGxqaupwPT/HzMxMPSdJi4M/gMzf7eOp5nv37k3rCFk8SoE7ABdq4LoklZienq7n5jJMSZIk9dErTNnNJ0mSVMAwJUmSVMAwJUmSVMAwJUmSVMAwJUmSVMAwJUmSVMAwJUmSVMAwJUmSVMAwJUmSVMAwJUmSVMAwJUmSVMC/zSdpyRw6dCj9kWMm/sgxf+wYa9eurZ7//OdXr3zlK6vzzjsvrZOkpeQfOpY0cu6+++7qhhtuSIGql9NOO6266KKLDFWSlpR/6FjSSPnyl79cXXfddX2DFGituv7666tbbrmlXiNJo8UwJWmoCEXf/e5366X2vvWtb1Vf+cpX6iVJGh2GKUlDc9ttt6VQNKjt27en7kFJGiWGKUlD881vfrOeG1ybcVaSNEyGKUlDQatU3K1XIu4AlKRRYZiSNBQLGYDuueeeek6Slp5hStJQPPTQQ/VcuT179tRzkrT0DFOShuL++++v58otRHehJC0Uw5QkSVIBw5SkoeBJ5gtl3bp19ZwkLT3DlKShWMgAxN/tk6RRYZiSNBT80eKFsnXr1npOkpaeYUrSUBCmTjzxxHppcHQX+kePJY0Sw5SkoSBIXX755fXS4C666KJ6TpJGg2FK0tCceeaZ1QUXXFAvzR9BylYpSaPGMCVpqN7+9rcP1LpECLNVStIoMkxJGjpC0RVXXNHqcQl0D1555ZUphEnSKFo2NTV1uJ6fY2Zmpp6TpMXBH0Dm7/bxVPO9e/emdYQsHqXAoPWFGrguSSWmp6frubkMU5IkSX30ClN280mSJBUwTEmSJBUwTEmSJBUwTEmSJBUwTEmSJBUwTEmSJBUwTEmSJBUwTEmSJBUwTEmSJBUwTEmSJBUwTEmSJBUwTEmSJBUwTEmSJBUwTEmSJBUwTEmSJBUwTEmSJBUwTEmSJBUwTEmSJBUwTEmSJBUwTEmSJBUwTEmSJBUwTEmSJBUwTEmSJBUwTEmSJBUwTEmSJBUwTEmSJBUwTEmSJBUwTEmSJBUwTEmSJBUwTEmSJBUwTEmSJBUwTEmSJBUwTEmSJBUwTEmSJBUwTEmSJBUwTEmSJBUwTEmSJBUwTEmSJBUwTEmSJBUwTEmSJBUwTEmSJBUwTEmSJBUwTEmSJBUwTEmSJBVYNjU1dbielyRJ0jzZMiVJklTAMCVJklTAMCVJklTAMCVJklTAMCVJklTAMCVJklTAMCVJklTAMCVJkjSwqvr/QSBpy1qRnBMAAAAASUVORK5CYII=;" vertex="1" parent="5fLJpmokJjt_ChBzvtPg-34">
          <mxGeometry x="21.27" y="40" width="327.45" height="410" as="geometry" />
        </mxCell>
        <mxCell id="5fLJpmokJjt_ChBzvtPg-52" value="" style="group" vertex="1" connectable="0" parent="1">
          <mxGeometry x="850" y="710" width="820" height="640" as="geometry" />
        </mxCell>
        <mxCell id="5fLJpmokJjt_ChBzvtPg-31" value="Homepage" style="swimlane;whiteSpace=wrap;html=1;container=0;fillColor=#008a00;fontColor=#ffffff;strokeColor=#005700;swimlaneFillColor=none;" vertex="1" parent="5fLJpmokJjt_ChBzvtPg-52">
          <mxGeometry width="820" height="640" as="geometry" />
        </mxCell>
        <mxCell id="5fLJpmokJjt_ChBzvtPg-10" style="edgeStyle=orthogonalEdgeStyle;rounded=0;orthogonalLoop=1;jettySize=auto;html=1;entryX=0;entryY=0.5;entryDx=0;entryDy=0;" edge="1" parent="5fLJpmokJjt_ChBzvtPg-31" source="5fLJpmokJjt_ChBzvtPg-5" target="5fLJpmokJjt_ChBzvtPg-9">
          <mxGeometry relative="1" as="geometry" />
        </mxCell>
        <mxCell id="5fLJpmokJjt_ChBzvtPg-11" style="edgeStyle=orthogonalEdgeStyle;rounded=0;orthogonalLoop=1;jettySize=auto;html=1;exitX=0.5;exitY=1;exitDx=0;exitDy=0;entryX=0;entryY=0.5;entryDx=0;entryDy=0;" edge="1" parent="5fLJpmokJjt_ChBzvtPg-31" source="5fLJpmokJjt_ChBzvtPg-5" target="5fLJpmokJjt_ChBzvtPg-8">
          <mxGeometry relative="1" as="geometry" />
        </mxCell>
        <mxCell id="5fLJpmokJjt_ChBzvtPg-12" style="edgeStyle=orthogonalEdgeStyle;rounded=0;orthogonalLoop=1;jettySize=auto;html=1;exitX=0.5;exitY=1;exitDx=0;exitDy=0;entryX=0;entryY=0.5;entryDx=0;entryDy=0;" edge="1" parent="5fLJpmokJjt_ChBzvtPg-31" source="5fLJpmokJjt_ChBzvtPg-5" target="5fLJpmokJjt_ChBzvtPg-7">
          <mxGeometry relative="1" as="geometry" />
        </mxCell>
        <mxCell id="5fLJpmokJjt_ChBzvtPg-13" style="edgeStyle=orthogonalEdgeStyle;rounded=0;orthogonalLoop=1;jettySize=auto;html=1;exitX=0.5;exitY=1;exitDx=0;exitDy=0;entryX=0;entryY=0.5;entryDx=0;entryDy=0;" edge="1" parent="5fLJpmokJjt_ChBzvtPg-31" source="5fLJpmokJjt_ChBzvtPg-5" target="5fLJpmokJjt_ChBzvtPg-6">
          <mxGeometry relative="1" as="geometry" />
        </mxCell>
        <mxCell id="5fLJpmokJjt_ChBzvtPg-5" value="Projects" style="rounded=1;whiteSpace=wrap;html=1;fontSize=24;container=0;" vertex="1" parent="5fLJpmokJjt_ChBzvtPg-31">
          <mxGeometry x="59.92538461538464" y="170" width="127.38461538461539" height="60" as="geometry" />
        </mxCell>
        <mxCell id="5fLJpmokJjt_ChBzvtPg-6" value="Other" style="rounded=1;whiteSpace=wrap;html=1;fontSize=24;container=0;" vertex="1" parent="5fLJpmokJjt_ChBzvtPg-31">
          <mxGeometry x="176.69461538461536" y="510" width="169.84615384615384" height="60" as="geometry" />
        </mxCell>
        <mxCell id="5fLJpmokJjt_ChBzvtPg-7" value="Game Jams" style="rounded=1;whiteSpace=wrap;html=1;fontSize=24;container=0;" vertex="1" parent="5fLJpmokJjt_ChBzvtPg-31">
          <mxGeometry x="176.69461538461536" y="370" width="169.84615384615384" height="60" as="geometry" />
        </mxCell>
        <mxCell id="5fLJpmokJjt_ChBzvtPg-8" value="Dev Tools" style="rounded=1;whiteSpace=wrap;html=1;fontSize=24;container=0;" vertex="1" parent="5fLJpmokJjt_ChBzvtPg-31">
          <mxGeometry x="176.69461538461536" y="440" width="169.84615384615384" height="60" as="geometry" />
        </mxCell>
        <mxCell id="5fLJpmokJjt_ChBzvtPg-9" value="Unity" style="rounded=1;whiteSpace=wrap;html=1;fontSize=24;container=0;" vertex="1" parent="5fLJpmokJjt_ChBzvtPg-31">
          <mxGeometry x="176.69461538461536" y="300" width="169.84615384615384" height="60" as="geometry" />
        </mxCell>
        <mxCell id="5fLJpmokJjt_ChBzvtPg-43" value="Socials" style="rounded=1;whiteSpace=wrap;html=1;fontSize=24;container=0;" vertex="1" parent="5fLJpmokJjt_ChBzvtPg-31">
          <mxGeometry x="482.6953846153846" y="440" width="127.38461538461539" height="60" as="geometry" />
        </mxCell>
        <mxCell id="5fLJpmokJjt_ChBzvtPg-42" value="Skillset" style="rounded=1;whiteSpace=wrap;html=1;fontSize=24;container=0;" vertex="1" parent="5fLJpmokJjt_ChBzvtPg-31">
          <mxGeometry x="482.6953846153846" y="300" width="127.38461538461539" height="60" as="geometry" />
        </mxCell>
        <mxCell id="5fLJpmokJjt_ChBzvtPg-41" value="Experience" style="rounded=1;whiteSpace=wrap;html=1;fontSize=24;container=0;" vertex="1" parent="5fLJpmokJjt_ChBzvtPg-31">
          <mxGeometry x="482.6953846153846" y="370" width="127.38461538461539" height="60" as="geometry" />
        </mxCell>
        <mxCell id="5fLJpmokJjt_ChBzvtPg-49" style="edgeStyle=orthogonalEdgeStyle;rounded=0;orthogonalLoop=1;jettySize=auto;html=1;exitX=0.5;exitY=1;exitDx=0;exitDy=0;entryX=1;entryY=0.5;entryDx=0;entryDy=0;" edge="1" parent="5fLJpmokJjt_ChBzvtPg-31" source="5fLJpmokJjt_ChBzvtPg-39" target="5fLJpmokJjt_ChBzvtPg-43">
          <mxGeometry relative="1" as="geometry" />
        </mxCell>
        <mxCell id="5fLJpmokJjt_ChBzvtPg-50" style="edgeStyle=orthogonalEdgeStyle;rounded=0;orthogonalLoop=1;jettySize=auto;html=1;exitX=0.5;exitY=1;exitDx=0;exitDy=0;entryX=1;entryY=0.5;entryDx=0;entryDy=0;" edge="1" parent="5fLJpmokJjt_ChBzvtPg-31" source="5fLJpmokJjt_ChBzvtPg-39" target="5fLJpmokJjt_ChBzvtPg-42">
          <mxGeometry relative="1" as="geometry" />
        </mxCell>
        <mxCell id="5fLJpmokJjt_ChBzvtPg-51" style="edgeStyle=orthogonalEdgeStyle;rounded=0;orthogonalLoop=1;jettySize=auto;html=1;exitX=0.5;exitY=1;exitDx=0;exitDy=0;entryX=1;entryY=0.5;entryDx=0;entryDy=0;" edge="1" parent="5fLJpmokJjt_ChBzvtPg-31" source="5fLJpmokJjt_ChBzvtPg-39" target="5fLJpmokJjt_ChBzvtPg-41">
          <mxGeometry relative="1" as="geometry" />
        </mxCell>
        <mxCell id="5fLJpmokJjt_ChBzvtPg-39" value="About" style="rounded=1;whiteSpace=wrap;html=1;fontSize=24;container=0;" vertex="1" parent="5fLJpmokJjt_ChBzvtPg-31">
          <mxGeometry x="632.6953846153846" y="170" width="127.38461538461539" height="60" as="geometry" />
        </mxCell>
        <mxCell id="5fLJpmokJjt_ChBzvtPg-14" style="edgeStyle=orthogonalEdgeStyle;rounded=0;orthogonalLoop=1;jettySize=auto;html=1;entryX=0.5;entryY=0;entryDx=0;entryDy=0;" edge="1" parent="5fLJpmokJjt_ChBzvtPg-31" source="5fLJpmokJjt_ChBzvtPg-1" target="5fLJpmokJjt_ChBzvtPg-5">
          <mxGeometry relative="1" as="geometry" />
        </mxCell>
        <mxCell id="5fLJpmokJjt_ChBzvtPg-40" style="edgeStyle=orthogonalEdgeStyle;rounded=0;orthogonalLoop=1;jettySize=auto;html=1;exitX=1;exitY=0.5;exitDx=0;exitDy=0;entryX=0.5;entryY=0;entryDx=0;entryDy=0;" edge="1" parent="5fLJpmokJjt_ChBzvtPg-31" source="5fLJpmokJjt_ChBzvtPg-1" target="5fLJpmokJjt_ChBzvtPg-39">
          <mxGeometry relative="1" as="geometry" />
        </mxCell>
        <mxCell id="5fLJpmokJjt_ChBzvtPg-1" value="Home" style="rounded=0;whiteSpace=wrap;html=1;fontSize=24;container=0;" vertex="1" parent="5fLJpmokJjt_ChBzvtPg-31">
          <mxGeometry x="350" y="70" width="132.77" height="60" as="geometry" />
        </mxCell>
        <mxCell id="5fLJpmokJjt_ChBzvtPg-30" value="Hamburger" style="text;html=1;align=center;verticalAlign=middle;resizable=0;points=[];autosize=1;strokeColor=none;fillColor=none;container=0;" vertex="1" parent="5fLJpmokJjt_ChBzvtPg-31">
          <mxGeometry x="376.61538461538476" y="130" width="80" height="30" as="geometry" />
        </mxCell>
        <mxCell id="5fLJpmokJjt_ChBzvtPg-58" value="Project Page" style="swimlane;whiteSpace=wrap;html=1;fillColor=#008a00;fontColor=#ffffff;strokeColor=#005700;" vertex="1" parent="1">
          <mxGeometry x="270" y="1200" width="560" height="510" as="geometry" />
        </mxCell>
        <mxCell id="5fLJpmokJjt_ChBzvtPg-59" value="" style="shape=image;verticalLabelPosition=bottom;labelBackgroundColor=default;verticalAlign=top;aspect=fixed;imageAspect=0;image=data:image/png,iVBORw0KGgoAAAANSUhEUgAAAtsAAAJ9CAYAAADkNb5bAAAAAXNSR0IArs4c6QAAAARnQU1BAACxjwv8YQUAAAAJcEhZcwAADsMAAA7DAcdvqGQAAKewSURBVHhe7b1v0HVXWd9/AplAnZg4iMSGkPYHUgI6RWxCqAqdBDJDxWn40xmhlT+djjgT/sx0SEfFFxWnCM7UYUYlL8AX8JAZ4IVCnGI7oGS02qpJrbESSS1/WmMqBqgRlIJAfnz2c74P17Oy9j77nPvs+7nv+/l8Zvacc/ZZe63ruta1rnXttfc5+4Irr7zywZWIiIiIiOydh61fRURERERkz5hsi4iIiIgshMm2iIiIiMhCdO/Z/vt//++v34mIiIiIyBw+9rGPrf7qr/5q/ek0D0m2L7vsstWtt966/iQiIiIiInO4+eabV3fdddf602m8jUREREREZCFMtkVEREREFsJkW0RERERkIUy2RUREREQWYqcfSP7+Zy9c/ft7L1p/EhERERE5uXzTRQ+uXn3VF9afxun9QHLnZPtf/tbF608iIiIiIieXf/HEL56bZPuSC76wuurhf7beKyIiIiJycvjrBy9a/eFXHntuk+3XP+Lfr/eKiIiIiJwcbv2b7z5wsu0PJEVEREREFsJkW0RERERkIUy2RUREREQWwmRbRERERGQhTLZFRERERBbCZFtEREREZCFMtkVEREREFsJkW0RERERkIUy2RUREREQWwmRbRERERGQhTLZFRERERBbCZFtEREREZCFMtkVEREREFsJkW0RERERkIUy2RUREREQWwmRbRERERGQhTLZFRERERBbCZFtEREREZCFMtkVEREREFsJkW0RERERkIUy2RUREREQWwmRbRERERGQhTLZFRERERBbCZFtEREREZCFMtkVEREREFsJkW0RERERkIUy2RUREREQWwmRbRERERGQhTLZFRERERBbCZFtEREREZCFMtkVEREREFsJkW0RERERkIUy2RUREREQWwmRbRERERGQhTLZFRERERBbCZFtEREREZCFMtkVEREREFsJkW0RERERkIUy2RUREREQWwmRbRERERGQhTLZFRERERBbCZFtEREREZCFMtkVEREREFsJkW0RERERkIUy2RUREREQWwmRbRERERGQhTLZFRERERBbCZFtEREREZCFMtkVEREREFsJkW0RERERkIUy2RUREREQWwmRbRERERGQhTLZFRERERBbCZFtEREREZCFMtkVEREREFsJkW0RERERkIUy2RUREREQWwmRbRERERGQhTLZFRERERBbCZFtEREREZCFMtkVEREREFsJkW0RERERkIUy2RUREREQWwmRbRERERGQhTLZFRERERBbCZFtEREREZCFMtkVEREREFsJkW0RERERkIUy2RUREREQWwmRbRERERGQhTLZFRERERBbCZFtEREREZCFMtkVEREREFsJkW0RERERkIUy2RUREREQWwmRbRERERGQhTLZFRERERBbCZFtEREREZCFMtkVEREREFsJkW0RERERkIUy2RUREREQWwmRbRERERGQhTLZFRERERBbCZFtEREREZCFMtkVEREREFsJkW0RERERkIUy2RUREREQWwmRbRERERGQhTLZFRERERBbCZFtEREREZCFMtkX2zOc+97nVe97zntUv/MIvrP7X//pf673b8z/+x/9YfehDHxpe5XiCL/z6r//6sPFe5CjwxS9+cfV7v/d7Q3zRL7fnS1/60urUqVNDjP8//+f/rPeKjGOyLWdB4CWAsBGMt+EDH/jAcNx73/ve9Z7zk4985COrz3/+86u/9/f+3urv/J2/s967HfTDb/zGbwzJOq8HCegcmz51Ytg/jJPYt+VXf/VXV3/8x388bNuOp5NObKZdDh/iCnbn9X3ve996r8zloosuWn3Hd3zH8F7/lTmYbIvsEZLkP/zDPxzef/u3f/vw2kLCS4A+aJDeVz1HiSQBseFxh0k5XHDBBet3IucWFgPCIx7xiPW7/ZP4dBJP8km2Gd/o5tVH2YTJtsgeSeL7zd/8zcPWY06S/I3f+I2rf/SP/tGwMv6MZzxj9bf/9t9ef/N1TmKy/clPfnLQh6sDJ4H0IRPzd33Xd633ipxb8MdcebvhhhvWe/dP4tNJTLZJtLEhcOVKZAqTbZE9wX18uUf7iU984vB6EKiDiTCXK+X4cfHFFw99yAkT70WOAiSKz3rWswbffNSjHrXeK9uS2wQ5mTiJJxSyP0y2RfYEq7Ik3PB3/+7fHV5FRORkwhXH3CqWhRaRHg+/9NJLf2L9foDVlxe+8IXrT33+7AsPW/3yn1y0esQFX14980LvVTpJkCzmEj6BpHf7whhcSuNeQO4B3LQayyoA9+V+9KMfHTYC1Re+8IXV3/pbf2vyHkLKffzjHx/a4TYNflX/B3/wB2fqgt7tG5Tj+7vuumt4RdbPfOYzqwsvvHC4ZWMfcLn0gQceGOrr3TKQy6ls9Z7JuipSZeE+QPSNrmFTPfThN33TN633nr4/M5c5uew5pS/HUzb2TJ8SF5a6txN56Rfa/rM/+7PBD+ArX/nKGZ2Y0L7hG75h2N/C99WXdulb7rXH71MPdqf92D12od7HPOYxw74QGaHtd8pTH99T18Mf/vD1N19vk++QM/d/tuOiyrEJ/PxP//RPB3tSNzJTJzaeW8e+oF18tcqBD6VP+A7mxJm2rtgFv6Sfx8hYAdrF5uyLffkOu1TfbmNF2uL42n9j5Pg/+qM/OiMvfvDVr371rHG5C9WfYjPe4zPEwbn9XcccTI2TbWMndUaO1A/Ekeyr/V1lmRrngJ733nvvcExryzZeIjc2ob+RB3o2GdMPOaZkCX/xF3+x+uxnPzu8PvWpT13vlZPEH3z1cas/f/CS1dO++Surpz/6y+u943zwgx9cfepTn1p/Oo3JtpwFQYwJAuZMghWCFIFuKtkmsN15552r3/qt31rdf//9Q3LKMbwSRGvbPQiIlEFOyvzyL//yEGBTD8G0PZYAzb9C1HJstJ9JgWMOmkyiE5MydT3hCU9Y7/06/FsLbdF2yOTDxsRVZf/t3/7tQT50zb2BsKkeEoK6sk65TDZjyXbtF+qoduJzbH7FFVesj9gff/3Xfz30D+30Em22yy677CETJRPi7bffPkym1ZfY0rckV5dffvlkkoSdqYd2Ugev+AsTOJeKeU877G99OzJCm2yT+FI/31911VVn+RgTdP5phjaQl8/tuKhyTPko9sA3SBioO7bgferAv+YkEAcBm9Of2KuVI36IHHyf99XvK9SFTiRNta7YhRNv/Hksic1YoQx1/cqv/MpZ9qXOGnOwIf/OQd1tH3zsYx/b2Ac11lR5aRNZ5/TjFNWf8DVsGJ9JW7Sb/h5rq465Nu5Udomd7Ecuvgscw+dsdZxUWXrjvMI4RZY2xkGNl9RBPzKnROaxuQGfoFyrH+MIn+G4qf76m7/5m0EmYhb2Xnp8yeGzj2Tb20jkUGHyI8ABAYzEhcBbk8BMIFMQUKmLwMhx3N9MoEsdgQDMRnnaoxzt0W7KEuSpi8C6K0zStAFjExdts9XJJPva/VNsqofkclvm9Avfb+qXXUi/sKUtVriqTu39zknC6DvA5pG59i2TL/0/Bt9VvWmr1oF/kQgsTRKUKkO1PXJM2R47kFxQDrAHdbDFH/mOMrHZErT9go+mXzI+0TM2n4K6kJfkEWofUxeg05z/oqcu7Fd9O3UAMlEHdfGvMa0fwKY+oI5erGFr+4B4cVCQt/UZ5E1cSFu7xrUxfapNEjsT+4D2KcsW6r66fwmQhX7kFTlpb2pugDH9GJetfi31nvclx5Ycb1zZlrMgqCy1sk1gYwUACGrPfe5zh5VS2iAYklywsslExIYv1oQSOJ7Jl3JMit/zPd8z/OMDqxysJtfyTEZ33HHH8J79L3jBC4YytEe7yEhSl8uS1IsMu5CVK+BSYhvYARnZkD1BmbGW/e3qXOxJXVWuTfW0NqMO6oKawAUm1ciOTZ73vOed1S/so470CzZrb6U4CFmlYqN++oHVIeTI/lZmkoisguNL+EBkTt9SF6tVvLK/rWOOfwC2iZ17vs13+R5ZKlllBI7j+FD7BRnpG8ZEZMD26E7d6Er5nh4kUzW54EdvyEFZNuplQw7KUB+f59wSsS2McW4FAmS4/vrrz/QLekWf6A2RsyV9jM2wC/XVulqdnvzkJz9EJ3wb6If0MXZNHcSY9A+vtPVP/sk/GeqmDO3xnlsEsvLJ/rYP6D9WXYHvah1svGc/ciIvMYd92/ZB9Sde27aQFzskrrHa2otryDAV5xkbSUSxG2OxtpExEH1YnaZvgTiWcRv7I9M//If/8Mz+SpWF79r4VckVNsq09SRe4jPMDfge8wPl6Otabx376FXHXU8/+qm1UeB2Gq64ArdBtnLJ8ceVbVkUJnGCzdyNoDQGdWU1i0mzTUqACYJfyCcoJgCP8bSnPe0hk0glgZ4JicmC+lsIqjWwsu0Ck23otXNUoV9iJ2zJv2b0oF8y2aT8uYSJG3nHfAnq/to/ofoHCWqv36gj/rEkyICNWxlIBtkfSBJa0IMkA/DzXlJQ66Fsr56Dgo3rSV2vX5BjbCxWkC86Pec5zxnVibqA2LNptbzXx8hZ60Zm6q1wzCZfSmKaWNPWAVk5BXSbs7q/ibG28Nm0tUtca8dGrw3qj+1y0nNUII5xUjVG9EP+3rgD9Mv8Ql+N6cex2AmOkg3kaGGyLaMwcXIJbe7Wm4RCVmMITAlgYyS5ob6xOqlnKglicslkTdDsBdNQv991AqxBdmpl5qhRJ+FMzmPke3Td9aRkXzCRMklOyVz7oZ0EW//oJRNhk132wdSldfTIZB6ZK+kLxtWUHiQWNTnaN3W1espmm8Yu5EQ7q9BjoG++r+23UM+YbWr9Y3+DN+VLWZQA6prqA/ROewcdQ5v6m7Z2iWvbjA2uKLFx8ntUQOep8YTvR7+xxYWQeujzqTETO3MVQaSHybYcCglUmyYj+NZv/db1u/HgVS/H96iBcWqFAwiUKbPrBMgPDI8jSVDm9EtNOHpJ31Fjqi/rSdym/xnGP5Y+gdpU/1jfoEf6YirBCGln6sR4V1LnHF+akpXEJnXNuSSfsUvS2ybCYW7/JWnahupnY0+NrUQWjhuTdw6b+htdkthvkwRWfXL8GPQzcrDtYrsl2DQ3RD9OYDf5BfpHr6kxc1R0l6OLybaMwsrID/zAD8zepgJXEgIC1q//+q9PbrkkC0ygu5DjCKhzAmFkZ/I7yAR43Iiu2KvXF3X7L//lvwxlYdd+WQJ8ipU75OPe5fe+972rU6dODVdbxqgnC3MSsaUf/LHrZF31wAa9fqvbfffdN5Rdwscjy6ZEG7JS36MmNdxO0tOjbvXE+lyc9G7rS7XMQcbRHDunrW3aqbFzThvHjfgXvtLzp3YLx3VBRY4GJtsyCgkAAXfuNpUwJIAzMbGaOrVNXa6bS5KJuZNFXQ05n4Jq7DSnX9iOEtx3SVLND+k4QePWA3wHX0OvqRWu9DF+e5ypSTO69/qsbnWF8yCJXo/Ut2llcRtYhezpUbe6EnsuiN5zT5hqTFripGeMuf1dTx5OMti+50/tdph9JCcXk205FDIRsdLCfYBzt02XMcdIe3MD5fm+anFY/bIv+As2ku30L/JwJYZ7R/lBF1daXvrSlw7f9UhCeJL6Hf17fTW27TMphoy5fdqU+5J7so9t+9bpJDHXNidxNbsHJ9o9Hxrb/JcROQgm23IoJNBzOb4XyMa2gybbu6zm7LLaWY/Z94rhksROTLA9+49t5zLZZgU3/6bBScKLX/zi4V8Z+LET98xyD++mPkxCQbI+p7+O6mpf+g/Qu9dXY1s9dh9kjM+x1ZTNa7KHn/VkH9v2rdMccqsGvjTn5L7eJnMQebe189y20o8ndQGi+lfPh8a2qd/+pC/OlxMV2R6TbTkU8qPHfdwiMoc6Ac65zJwyOW5banI3Z8I9KiRpPteX4rehJitjf0u2idrPXCqegoTlqNqnnvScaxkzxumfTWNgSlbGUhLD2tdHlepLc+JbdEfHXeMNzOnvlNnm5Hjb2HmY7GMhI/pR175ideQ6Fyd7cjww2ZZDIZfg5gRwJlhWLg8SWOvfC276T2HkyaQ+tXoxRf0B3bn4+6ddbRV96ZdNiQJt8CO8c50A1QlyKtGe6neSj0yM6DQ16eY/eY8i6JBECn03JQ+UoZ+XWLXMk0uRYdOY23SCE7881zrNgeQtvrRJb8ZQxtlBb0vY1BbtZMV1m7hG2eizyfeRgR8ks23qpzHq7S2f/OQn1+8eyjZ/XzhFtcWmOufEvPrdQU6e5GRjsi2HAgEuq7/8wnssOWTC5B8luCeXAL7r5XsmiyTcTOxjExNy5BfnyFeT9G2oK9vbJKMHWTnKhAi72olELRPEnH7hh4j8ILHXHmU4fqyOOWTinaqnJthj9uPYTYlC/huYJOGXfumXHtIe+qAv/lMTgqMGl7iBPpnSGVsxrujH3/md31nvPZvYfZfEtU3SxvqP7zb5fcYhfVP/EaKFNqLTYTxWvwc6c788oNdYH2QMhfTbrtDf9Z+bKtil/nvQNol9jZ1T+tBG+pljajwK2TfV35RJDOIEoRerp+TYFmJ1TlCpcype831i3pgONRZucwVBzi9MtuXQqE+w42/ZCGIEuiRpJDU1kWMyOsg9cNzDmySYCZlJu7bHigVypD3u9921PSaMBNqpiQVqQEYm5ED3bZJ0qKsoB6knT1Ajsck/e1Q7MQFip6zYk1j07JQTpIOsctVVJ9qMTnVCIxHIJI7eTM5JDmu/8sjmKfhv4CRJ1I/cHEdCxMZn6qK9K6+8cih3FMGfkhwh73ve856hz7AFdqEvSRrQDThx6CV6lE///bf/9t/We+dDn/CAE6D/aY++iS8xLvAtZCH5Sx/2QKfIiC7oVOtCVurBX0PaPhfgRxmPyIVfou/YGDpobANsSH+3bcX/DxJHOSaxs6dPr40esQnHUgdjuZdM1/8MT6ymLBvtsCFPXdQ4CPhK6sKHWv14T5u0D8SlsUSasqHGZJHKwy+99NKfWL8fYFC+8IUvXH/q82dfeNjql//kotUjLvjy6pkXTl/KkuMFk2Se3kZwGQswPZIUMZkniakQ3PAvgtMXvvCF1Z//+Z+vPvrRj67+4A/+4MzftiVJI3noPd2LMkxYY21UHv7whw8TUurluNrevffee6Y9JounPvWpw/tdQffohmy03wM7UJbEgfaRAxm/4Ru+4Sx7x56UTzJVyWRBm7WeCy+8cHXFFVcM3wF1ZNKgnhwXaPebvumbztij7ZePf/zjg07A8d/zPd8zvG/hmMi7qy05Fn2op+qE3zzmMY8ZymBXtsjL98hKUlD7lQkV2WHMl2OnTJi0+8ADDwzbV77yleEY6qHOMb/j2BzfJh0cg3zAcXWFfFO/VDb5AslA+o5X9MYW2IV+iXy0z+PPe0kBskaexz/+8WfsvQ34EdBe+ia+RN3Ihw7XX3/9ICNlxvom+3p1oRv76SN0wid7deATMNYGUE/s0/ZRZaou/PFxj3vcICOyxpa9MYSPjCWnm6j+dN11163uv//+wTdrW/F/GGuL7ykLY/q0sXOqjSc/+cnD+xZuLSK5pp8iO1sbH/E1/JuYCLVs/P65z33uIAPt4r/taj3fUbY3Rls40ZvSL3UBtsFfq7yVO+64Y+hbyo3ZQY43f/DVx63+/MFLVk/75q+snv7oL6/3jvPBD35w9alPfWr96TSubMtDILCxjU06Y5AQcdzUKgqJAidzvPbqJ2DxzxJZBW/hmE1tVChHfQRfjqtQV9rbdfKr1ABPEJ8C/erqCrCiUok9p1YAkZt6avLU1sPx1NPqXyFZS7/0ymEnfow41i+QifKgD4BJf1Q5MvEFbE25XtKYPkWn6D3ly7TFP5pgR+rNijd1sE3ZH+KTPbtN2X5Ov4Q5vsDJKTqgfwsyotMLXvCC7veQ5AkOskKHPcfaSd+gT3Ta1DdTOtFXtNU7AYHYd6qNqf6rbKoLffjLyXZch+iOTvsAX2BM9nSf09YcfbAtdeyqD3UkrgTaa2MU9GIiZeO3m3wm3/E6B8oh/1TMY0xRZmzcoUfi3pgPisAFV1555YPr9wOXXXbZ6tZbb11/6vP7n71w9S9/6+LVJRd8YfX6R/z79V6R7SFYkUgR+AigU8nEPli6PS49skqWiWgOSXIOKsu+6oFt7UTbPGAGmKCYIPfBHJ0okwkPeXsT50HhthJOoKibhOqog02S0GC7OTZh5ZaN8i972cvWew9GlQMZDuqbuRq0VD/vk/jlPmMNK67c8gD4YWywbzv32EfspI45/YY+sIQeY6S/aHOuDVm157YXyh+HuCC7cevffPfqD7/y2NW/eOIXV6++6vQVqiluvvnm1V133bX+dBpXtuWcQpAiMV1qgmhZur2s8uTS9xyQYx+y7Kse2NZOSXaB4/bFHJ34njYj7zZwj+acfsrKOonGcQCbsDrNNtcm6cODrGq3VDk29eMcqGeXfj4XxC/njqGDsG8790CPg+ozt9+of2mbtdAe+m1jw9xaVO85F+lhsi2yRwjWbMCPiM4X6qoak9VxgBMifhzF1YiphDs/zIO5ycJxJCcUXg4X2QxxgTFDTHDMyCZMtkX2DPcdsjJCsp0k9KTDD4wgJxrHgfz4ikSav/7Lj+QCq96sXOXv1bh0vq/7bY8auYQOx6kPRc4VWdUmJhyXK15y7jDZFtkzBF7u1+bHS5v+fu6kkETtOF1O5d7yrEiRdLPCzX3n+fu7d73rXcOESiJKon3ttdee2Em1JtomDiLTEBNYVOGHm95CInMw2RZZgNxber4kLqzucIJx3FZF239AYBLlakSuSJBko1P+teCkgv7oiC1EZJp6f7fIHPw3EhGRr8HqNkl27l3mLwxJQg/7h1oiInJ08N9IRET2BFchWK3isjDbkv/sICIi5w8m2yIiIiIiC2GyLSIiIiKyECbbIiIiIiILYbItIiIiIrIQJtsiIiIiIgthsi0iIiIishAm2yIiIiIiC2GyLSIiIiKyECbbIiIiIiILYbItIiIiIrIQJtsiIiIiIgthsi0iIiIishAm2yIiIiIiC2GyLSIiIiKyECbbIiIiIiILYbItIiIiIrIQJtsiIiIiIgthsi0iIiIishAm2yIiIiIiC2GyLSIiIiKyECbbIiIiIiILYbItIiIiIrIQJtsiIiIiIgthsi0iIiIishAm2yIiIiIiC2GyLSIiIiKyECbbIiIiIiILYbItIiIiIrIQJtsiIiIiIgthsi0iIiIishAm2yIiIiIiC2GyLSIiIiKyECbbIiIiIiILccGVV1754Pr9wGWXXba69dZb15/6/P5nL1z9y9+6eHXJBV9YXfXwP1vvFRERERE5Ofz1gxet/vArj139iyd+cfXqq76w3jvOzTffvLrrrrvWn05zoGRbREREROSkc06S7X9/70XrTyIiIiIiJ5dvuujBw022RURERETkbHrJtj+QFBERERFZCJNtEREREZGFMNkWEREREVkIk20RERERkYUw2RYRERERWQiTbRERERGRhTDZFhERERFZCJNtEREREZGFMNkWEREREVkIk20RERERkYU40OPav/zlL6/ficgSXHjhhet3y/DVr3512ERkOZYex87FIsvysIc9bNjm0Htc+87JNoP73nvvXX8SkSX41m/91tUjH/nI9af98xd/8RfDJiLLQKJ9xRVXrD8twyc/+cn1OxFZgkc/+tGriy++eP1pml6y7W0kIiIiIiILYbItIiIiIrIQJtsiIiIiIgthsi0iIiIishAm2yIiIiIiC2GyLSIiIiKyECbbIiIiIiILYbItIiIiIrIQJtsiIiIiIgthsi0iIiIishAm2yIiIiIiC2GyLSIiIiKyECbbIiIiIiILYbItIiIiIrIQJtsiIiIiIgthsi0iIiIishAm2yIiIiIiC2GyLSIiIiKyECbbIiIiIiILYbItIiIiIrIQJtsiIiIiIgthsi0iIiIishAm2yIiIiIiC2GyLSIiIiKyECbbIiIiIiILYbItIiIiIrIQJtsiIiIiIgthsi0iIiIishAm2yIiIiIiC2GyLSIiIiKyECbbIiIiIiILYbItIiIiIrIQJtsiIiIiIgthsi0iIiIishAm2yIiIiIiC2GyLSIiIiKyECbbIiIiIiILYbItIiIiIrIQJtsiIiIiIgthsi0iIiIishAm2yIiIiIiC2GyLSIiIiKyECbbIiIiIiILYbItIiIiIrIQJtsiIiIiIgthsi0iIiIishAm2yJyrPmTP/mT1X/+z/959cADD6z3iIiIHB1MtkXkSPPFL35x9d73vnfY/viP/3i99zT/83/+z2E/yTavlN2V//pf/+tQx/vf//71HhERkYNjsi0iR5r/9//+37B6zfalL31pvfc0dTX7L//yL9fvduPP//zPhzbuv//+9R4REZGDY7ItIseW7/iO71g98YlPXD3iEY9YXXfddcOriIjIUcJkW0SOLSTXN9544+o1r3nN6h/8g3+w3ivnM1yh4HYg7+EXkaOCybaIiJwIcn8/twOZcIvIUcFkW0QOFe6t5seI/KiRjfcHSYr+8A//cNhIsDZBmbTN65xjxqh1sW1bF4khclc7HEQeOX2lg9uJAD8z4RaRo8AFV1555YPr9wOXXXbZ6tZbb11/GufLX/7y6t57711/EpEl+NZv/dbVIx/5yPWn/fMXf/EXw3YYkPT8x//4H0cTym//9m9fXX/99Q+575rj3v72tw/v//E//sdDucq/+3f/bnjl/u3nPve5w/sW/rXkwx/+cPdHlN/1Xd81tPsf/sN/WH3kIx9ZXXrppasf+qEfWn/7UJJg9/755JJLLll993d/9yDLGByX5LoHdfzAD/zAIIfsBicx+Bqca3teeOGFqyuuuGL9aRk++clPrt+JyBI8+tGPXl188cXrT9PcfPPNq7vuumv96TSubIvI4pAw5/I+kACRkH7bt33bmSSIRJcy+4bElr/zS6JN24973OOGDX7v935vSMTnQF233377mUT7MY95zFAPr0AbJHmUGwMdk2hzYoEN2GodrsgejHripT1F5Fzz8K9NdD+xfj9A5v7CF75w/Wmcr371q91VIhHZH4xHVsaWgr/VY1saEtRcCWN1mo0E86qrrjrzw0YS8b/6q78a3icRBhJbEmLgn0eSlIYktuynzgoJ1m233Ta8J6l//vOfP6xik4xlowyJPvHsK1/5ynAlofdjS1ZL0QNo65//83++evrTnz7U8dSnPnV4ZQUdedEFHdrVVOrIigdtsOKKDdiog/Kpg78gpE7ZDfqIE6vYk1f8Y8krRT0e9rCHDXIsyWFdnRI5X/mGb/iG1UUXXbT+NM0HP/jB1ac+9an1p9O4si0ii0MyCySP7W0gwK0XJNK9BPUg5FYCILGtSTyQBJGAsz+r1WPUpP5lL3vZQxIoPrM/8vdWt2MH2su9xRVsgy34vpVVtgd/c4VbRM41JtsicmhM/Q82f+FHQtxLxneBpCq3rZB0Ta0ukuBOwYp0ruSRnI+BftwDDrTN39BVktBPJfbIgh02ySTzMOEWkXONP5AUOcKclB9Ivu1tbxsSHZLRuvo7BxKjXX4gyW0DefR6b1W7JTIiW/sDyfx4MqvaU0zJm3qAle2l/hu8rujLaf73//7fZ06YOPHCJ/Z5FWUMfyApcvw56A8kTbZFjjAnJdluf4RI4psfBW5KgndNtrmNI7dyEPw2MfVvJKyGslLNd3NW3tMuq9N1hZo6qCuQ9HH7TGwxtfK/DbGJjIPfkXAvjcm2yPHHZFvkBHOS/vqvJr8tJD4ksSTMLbsm23UV+aDJdla9t6VNtoEVd35o2buVYcoO21ATejkN/Reb08ck2lO3Fu0Lk22R44/JtsgJ5iQl20DC88d//MdDwsn9zO29yySb3BNdV3iPUrKNXKxAzwWZeivh+XcMbMFqd2uHw7zN4Xwgj3DHzoeZaIPJtsjx56DJtn/9J3KEYTyehL/+CySrl19++ZCEXnvttUNyTfL6f//v/x0SIWIKJ/L/3//3/62P2P2v//jrvPxAknujN9mRRPuzn/3scHLT3kvNd/wtIXL903/6Twf552xjiTmy8B1/+YcdkBu7oD/toLN//bcfzmWiDf71n8jxx7/+E5FjC8k2iW390WRWow9KTXDafwXpMVXmW77lW4ZXEuAlIPFmBRw75ISh928msh25R/5cJdoiImCyLSKLQ7LDbRNjsOKd2y0ou4+rZqyCh7FHoweSsqk2OSkAbmnJavkYU2XQje94HaOuZnv1cHc4aTPRFpGjgMm2iCwK/1H9cz/3c8Pf8E0lqnUVdx9JEQl8kmQS/akEmPu1pyBxz33klJ1KlrmthSSP+7yrTrzHDnw3lfxXOdOmbAeJdvrURFtEzjUm2yKyKG2i2ia9JK78O0dWvvd5nzI/qEzbJPsk/hVkIfllBXns/mqgDuoCyr7zne8c1SO3wVBfrZP3uVWGZLuVheNJ1JOIUzYnCzIfE20ROWr4byQiR5iT+j/bJK8kn9xyUW+V6CVHu/4bSSCprQ95oe0k4Gk7f89HsosM7b+RBL7PDzKhVxeMJXmsbufWBogd+Iyedf/LX/5yk8QtwX5cUeD1qCTa/huJyPHnoP9G4sq2iCwOjzAnUSYBApIhVoaToJJckvDyA8F9J0ck4a985SvPapt20zY/0Gz/C3sMyrV61Lo26UFiTRKdFevYgSSc98B3Jtq7gf1JsLGzK9oiclRwZVvkCHPS/mcbSCxJTvOXgySuJEckSmPUZLYtN/VdC22zhXqLC8luEt45SdouelQ4ljpyPP1Moj33eDkeuLItcvzxoTYiJ5iTmGyLnE+YbIscf7yNRERERETkiGKyLSIiIiKyECbbIiIiIiILYbItIiIiIrIQJtsiIiIiIgthsi0iIiIishAm2yIiIiIiC2GyLSIiIiKyECbbIiIiIiILYbItIiIiIrIQJtsiIiIiIgthsi0iIiIishAm2yIiIiIiC2GyLSIiIiKyECbbIiIiIiILYbItIiIiIrIQJtsiIiIiIgthsi0iIiIishAm2yIiIiIiC2GyLSIiIiKyECbbIiIiIiILYbItIiIiIrIQJtsiIiIiIgthsi0iIiIishAm2yIiIiIiC2GyLSIiIiKyECbbIiIiIiILYbItIiIiIrIQJtsiIiIiIgthsi0iIiIishAm2yIiIiIiC2GyLSIiIiKyECbbIiIiIiILYbItIiIiIrIQJtsiIiIiIgthsi0iIiIishAm2yIiIiIiC2GyLSIiIiKyECbbIiIiIiILYbItIiIiIrIQJtsiIiIiIgthsi0iIiIishAm2yIiIiIiC2GyLSIiIiKyECbbIiIiIiILYbItIiIiIrIQF1x55ZUPrt8PXHbZZatbb711/Wmcr371q6vPfvaz608isgSXXHLJ6qKLLlp/2j9//dd/PWwisgwPe9jDVo961KPWn5bh05/+9PqdiCzBxRdfvHrkIx+5/jTNzTffvLrrrrvWn06zc7ItIiIiIiJfp5dsexuJiIiIiMhCmGyLiIiIiCyEybaIiIiIyEKYbIuIiIiILITJtoiIiIjIQphsi4iIiIgshMm2iIiIiMhCmGyLiIiIiCyEybaIiIiIyEKYbIuIiIiILITJtoiIiIjIQphsi4iIiIgshMm2iIiIiMhCXHDllVc+uH4/cNlll61uvfXW9adxvvCFL6z++3//7+tPIiIiIiInj2/7tm9bPepRj1p/mubmm29e3XXXXetPp9k52f7sZz+7+rf/9t+uP4mIiIiInDxe8pKXrK655pr1p2l6yba3kYiIiIiILITJtoiIiIjIQphsi4iIiIgshMm2iIiIiMhCmGyLiIiIiCyEybaIiIiIyEKYbIuIiIiILMTO/7MtIiIiIiJfx//ZFhERERE5REy2RUREREQWwmRbRERERGQhTLZFRERERBbCZFtEREREZCFMtkVEREREFsJkW0RERERkIUy2RUREREQWwmRbRERERGQhTLZFRERERBbCZFtEREREZCFMtkVEREREFsJkW0RERERkIUy2RUREREQWwmRbRERERGQhTLZFRERERBbCZFtEREREZCFMtkVEREREFsJkW0RERERkIUy2RUREREQWwmRbRERERGQhTLZFRERERBbCZFtEREREZCFMtkVEREREFsJkW0RERERkIUy2RUREREQWwmRbRERERGQhTLZFRERERBbCZFtEREREZCFMtk8wn/vc59bv9sO+6xMRERE56Zhsz+BHf/RHVy996UvPbK961atWP/VTP7X6nd/5nXWJo8ef/umfrq6//vpB9n3x/Oc/f6hTREREROZhsj2DO+64Y0heH/vYxw7bN37jNw6J9ste9rIh8f7Lv/zLdcmjAzI++clPXj3lKU9Z75kPupFUf/SjH13vOQ37nvOc56w/iYiIiMgmLrjyyisfXL8fuOyyy1a33nrr+pPAs5/97NU111yzevOb37zec5pf/dVfHVaOSWpPnTq1uuCCC9bfHG9yIvGud71r9fSnP329V0RERESmuPnmm1d33XXX+tNpHn7ppZf+xPr9wMUXX7x64QtfuP4kQCLNina7qvv4xz9+2H7hF35hSEqvuOKK9Ter1R/90R+t3v72t6/e9ra3rd73vvcN+0jKK9wDzfc///M/P5Rh9ZyV6Ec84hHrEqf5uZ/7uUGG97znPavf/d3fHeq55JJLhu9YVf83/+bfDPve+c53DnXxHXLlFhLeA59Z8WbF+md+5meG+njP96nvl37plwZZPvGJTwzy0N611147yIQc7Kt6tDrw+QlPeMJZOuQ4ZH3Tm97U1UNERETkuPPBD35w9alPfWr96TTeRnJASMBJYH/t135t9eCDpy8SsDLMvd0k3CThJOo/9mM/NiSdgeTzxhtvHBJU6qAc72+66aYz9QD3SZNEUwdlSFKp+9577x2+J7nlOBLpNoF9//vfP8gQKEfSTtnUx+o89eXHjxyb4ynDFridhjZC1YF2k/CzL/UBx1AGG6TO6FHLiYiIiJw0TLb3AEkmiWcgqSSB5jaM17zmNcPtJ7x/61vfeuZHlXffffdwDPtf/vKXnylHXZ///OeHMqwykyzfdtttq9e//vVDGRJobldhJbkm5SSw1EU5kugx2vo4hoQ3JwLI/YIXvGB4zxUOynAy0SPHIBP1sVEfK9jveMc7hu8CupLoUwY92dhXTwZEREREThom23siP5IkmSaJJEmtZIU7K8OXXnrp8MrKcqAMyWiSW1aDSXzr6jKrziS31F/vEZ9760/kCLxn9Zy2tgF9OQY56q0g1IfMJNYVTiJquzkhyAq9iIiIyEnEZHtPJOHMCje3SPDvHXUjseR7VqRJNvkRIn8hyHf8qwkr2RVWfWuCGkjGe/vnkCS3QiKck4W5RM+eHKmv3iIytjouIiIicpIx2T4gJJ2sVpPE1pVmVnzbjVsnWIFOuR//8R8fVqm5jYQEnNtPSLy3TXzPBXU1W0RERET6mGwfEFajSZT5e0DIP5KwusvtFO3WrixTjmT7lltuGe53vu+++1Yf+tCHznxXf5AYSPDb/8CeS+842th2pZyVarbcg15Jfa5mi4iIyPmOyfaOcIvEG9/4xuGHiqxaJ8kmmSbR5LsKt4SQkCc55QeErGL3/o0j93OzCk7iWhNuEm1uP+H4+gPJuXCfdW4BAd6zul7v+Y4uU/8Uwso2P6bk3ux63zX1cR/63HvIRURERE4yJtszIYHMvddsV1999ZC4civIq1/96nWp0/CvIySdlONebP5qj3u4L7/88jMr2zfccMPwyt/k8T0bf/vHw3OySs5KOIk1x6YeypNk0+YuD9GhTuqo9V111VXD6nrgZIF9yMOPJ8d+xJgfc+ZJmqmPFfnWJiIiIiLnIz7UZgYktySQ2XjIy4tf/OIh0e794PBbvuVbhlVfVn9z//UP//APr173utedSZCzMszrpz/96WFfWwae9axnDSvNX/ziF4ftec973uonf/InhzYCD5BBpvY+auRmf24RYRUeuXm60cc//vEz9aFHe8sH7aIrdX/nd37nUDf18dCdPCSH70jS+e7+++8f9r3kJS8ZkvCWelzlGc94xurRj370+pOIiIjI8aX3UBsf134e8aQnPWl4gqMnUyIiIiL7p/e4dm8jERERERFZCJPt8whuJ8mPL0VERERkeUy2zyM+/OEPn/nxpYiIiIgsj8m2iIiIiMhCmGyLiIiIiCyEybaIiIiIyEKYbIuIiIiILITJtoiIiIjIQphsi4iIiIgshMm2iIiIiMhCmGyLiIiIiCyEybaIiIiIyEKYbIuIiIiILITJtoiIiIjIQphsi4iIiIgshMm2iIiIiMhCmGyLiIiIiCyEybaIiIiIyEKYbIuIiIiILITJtoiIiIjIQphsi4iIiIgshMm2iIiIiMhCmGyLiIiIiCyEybaIiIiIyEKYbIuIiIiILITJtoiIiIjIQphsz+CnfuqnVr/0S7+0/nRyeNnLXrZ66UtfunrwwQfXe04m9N073/nO9af5/Oqv/urQ9+fSPn/6p3+6uv7663eSX+So8aM/+qOr3/md3xne/+Vf/uXg2z/3cz83fN4GYterXvWqvY9N4iEyHTWwGbb73Oc+N3x+xzveMcj5R3/0R8Png0Kcq/WPQbtzyonI2Zhsz+DXfu3XVr/7u7+7/iTHDfqOxHlbmMh2OW6ffOM3fuPwStIdmHhJCu699971nqMPE/RJPGHdF9jmIMkjydIuSeth8/73v/8hfrtL4kaizrZvGG+Pfexj15+ODoz/973vfWd0vuCCC4b3iQ9wEB9gjqP+qTGKDG9+85vPkkOm4eSEfhEx2T6POXXq1Opd73rXELjlaHLJJZesPvzhD69e//rXr/ecnvSO28nfHXfccdYJg5wNtjnIKiXHHjf79nx7LiTtS8SuW265Zaj3qPPyl798deedd66uuOKK9Z79+MDU4gKJ+Em/CrpvPvrRj+7t6oMcbx5+6aWX/sT6/cDFF1+8euELX7j+JEBSymrHc57znPWecT70oQ+t3v72tw9Bi7P/Jz/5yetvTsP+u+66a5hofv7nf371n/7Tf1o985nPXH/79Vsexo5n5eJrfbb62Mc+NhxP0vX4xz9+qI8VT2T9wAc+0D22hbbuu+++4fj6+RGPeMRQN/UQKAjo1F9hNeptb3vbsMqBDN/yLd+yevSjH73+9vQZ/Wc+85kzdQMycQzyUzafqR990bvVBznGbNGjlYu6eGV/69dt/bRZ9eQ4giUTW53UNx3H/trH2PHZz372aGLABJlyVf+ALb/0pS8NPkgfUf8nPvGJob7f//3fX1177bXrkn2qX/T6M/3+xS9+cfDd6j/IRr9kNYtj8Y8Kdea4Vv4cjwzowGfk3nb1sO3Xiy666KxEI2waPz0fZ6UV/602gU12g019F2pdrc/Qv7/5m795pg/wue/8zu8cvoOpNqgLu7AfG91///1n7IvM73nPex7iH/HP2Kb11zYmtdDOu9/97qFu2qXN3thsdaYM9TMWnvKUpwxlqm/n8yMf+cihzuqLrd+lH7FFqO2N9UXrR23col7sH3228Zc6VtI+r4zVKmePVq5WdvqS1WdiEftr3/Z84POf//zGNivY7fLLLx/8gDp745OTIlbSaSNyhDljBehf5B4bn9DaYtexHt+ivyLbWJtz5Gf/WJzrwVxNuU9/+tNDu/hRbXtTmxmX7I89Iv8mf2nzhE323jSeqy2pb6wuOc0HP/jB1ac+9an1p9O4sr1HuI/wx37sx4b3OCNOyX11BOGA0zMQuA2AAUY5wOFf8IIXnLnkxH7qev7znz98F9761rcOx3PJGagv9z2yj+Noj2MJRFOwOsTJQVYrGLgMqiob+9pbFqj/uuuuGwYmA5zvbrzxxiH4hVNfCyLUXUEP5P/IRz5y5jM2QmfaAfShvaoj7aBPrb8HciFH9EYu6qr2D2984xuH/uK79NVY2Qq3Q/SOq/ZBB2RgP3acqpPvkZlXbMkr/UkgDtgyn2kz/kC9c+WlXsDO+FQ9Dj+g31v/oV9uuumm4TP72cfnCn1Cfak//khiENIWcvO++vMcqBt/S7/yGZ3wkUCdyFHHT8Yf70N8HD3Yz/amN71p6KsqF3Wnn+mXjINaBt2pf0p3SF2Ui1zV15iEUy/72DImqTP+AbzSRh0LlI8uvE9dlKWtdjWSOjm+toGM8VfqGQM/pC+oF/B7/KL2BVSdgfLsa2U5VXwbWFUmbsQXYy9sUG3fxi50qO1RZ/VL4H3rRzVeAP1cbTvXX6iL9mrdlOFzGwdbIhdxLp/p4ypXC2Vq37Y+wOu2sJh01VVXDbZswSb0dWJyJbEUmSAxhpOWgK2Y3+I3yIffUK6C7K0dqbv1L/a1Y53jap/gS8hdfYk2Wx3myI9NkD9leG3LtNSxyHu20I6PtJnPQJvYAR9NnyYusw9/YR86tv6IPaI75NjWRrF3+iXjmXmjgi3rHFHrkHlcuH6VA4JjE+AZNFm1wZEZBDjuqa9NKlnZZD/O+/SnP334DDjyAw88MEwiOYunHIOK717zmtcM+4AByeVXkgAcn8DMYGFfViRok30M6LEV1R4M4B//8R8fjgPq5z0DMDogD23Xy620ReAh+G/THnBM6srgx4633377mXsSsSP7CHhj9SdA1OM4hv3V1vQVujBpZrUbPdNXVa8Kx1EffZSzeuRt7QP0UbXjGARO6qptso8ErMcrXvGKwfY5Aemt+ARkY2v7MxM5x0de6qv+k0SBk6Nc0WGCoJ+pk3K8Iiu++epXv3ooA0xe2DH1cZ8nq5ls1Y/nQoCn/376p3/6TL/SBrJkhe1nf/ZnB91uu+22MzogH76EHrXdVlc+Yx+SovgDdaNTjuM9OtGvyDJHd2TFZ6ir9gHHYl/siW1YMeQ9voVPpk/SBn3etkE5+gXdqYP6YutdoK02JvXAVqx80k76In6RvqAuPre22TQWAsdiixpHe3GwggzEhqo/flNXqcf8CBtzLLL3QGdOoDLW+Iy9q7+gJ4kq4yX1oEfkmiJycQtL4Fg26o+sY+zLBwCfIo5h59ouMQ8Z23hD32DjNtZdffXVQ39FFsbn2PyGjdKv1EG79H9rR8YB3/GepHDOXElf1XIcS32Ux1Zz5ccmxC+OzfjkBIx4QL/34FhiAW3UPuEzftKOD+ojJqN7nUfquMRfiWdV3vgjr8gYSNY32Qh7MP/WcrRJ3GTcMKYDdqrlZDtc2d4TDEaCar20wmBmQDAI6pkgAyeDJzDAcOzqyBxPnRxfqRMDrwRI6qN84DPJx7ZE5kD9TAb1nlt0YctnIGiQNCRIbMOLXvSi9bvT7dMm8tdgz+faXgvfYSeCUD0OW1W7ALamvjoJ0ibHUsdYOwQabN32MfZp+7i14xjI2toSO1bZdgUZCNRtfyJ/qyN6VTthH6jBO4lFjiXZiH9UmBTxPYL2QeEElvZe+9rXntWvTBboFn8jGULmqkP6gLFZacvlc7VJ+iUrh+hJMhS7IBdt18kSWt2Z8Dim9gFtMdnWiawHbSBD2wa6s3/Tiuk2IGN0m4K2kb0dm9gi8YbJHB1bufk8Jz70xhi2avux0o4hQM6Mo7l+1AP9Wn+hjrSXutEPPwl8rm31yLHEnkr8hZO1wwQ74/O1XeQjvvX8Fbu0MQawUewDxFzs0c5v9HXmt9iChLPakbppIxCHx+ZK2qm0ca2NYXPlh3Y+JR7sEqcZH9yy044PYgcJbW0X+ZAl8B5fveaaa9Z7Tu8DTmYq7K+6tzZCH2zZ9gtjj7jfXuFobSnbYbK9J7KC0gbt3C/ZDtwKTs/3DALOUOtGEjF17L6pk1yoK0xAoGMSYYUUGQkeB5Fx04Q0h9zG0VtlqMEKkDVBq5JAQtDvMbaKQR9T1y7JJZM9srPiQNJ6UFu2kIRQJyss9BV9xuTWThy79AE+T/1MVNVnaQvSJwchNm3tzmRMHyJ3xs8NN9yw/vbrcFwvEdsE/cIKEpMO+pB8UE+IXFXvnu7YqPU/YJz1xlolMrdt4CckRNyXey5gfLAajBysgEWegNy9SXlsBbCFcu3YZF/6uQf9hV/j38hDf9Wyc/xojJ4uNRmkHfQf6+cpkJm6Mj5rH6NvO06XBllIyGqixeonyWE98a70Ykx7GxllTn3tZKnqyIb+6acxO/bG+thcWccocEzrSy2b5AdiHAtO2KDnX9twzz33DG228jOm0H+q3vjdnHhNQt7qjj+m/oyJno9ib2JXZY4tZRyT7T3Cj0vHmAqaCRAEdZy8bgS+3orCUswZxAxOVgO4NEZ5gigBiuTkKDJ3woru/LCkB/1UJ9l9gC259YGVLQLtPm1JUKUuLn0iNysTrJrPTXrmgM1an2VjtSQnaUvTTrCVXfuLMcetIIw/7MhqGydEmajS5hzdp+SbIn471samRG4JuIxN4sFEjR9hJ3xqaTb1I/1EfyEPdiNx4USgnjjve+y27NrPMNbHWaw5TDhpJQlmA5JMVl17iRbjgXHRxpheYo6/tDruOr+NzZXtCvUmkB8/2SQ/+0nAkZU4jX8RW9uV9DkQM3vy02a7yrxvenPh2Jw/d96UeZhs7wkGD2esDMTK1Nlj4NgkLazQtNsuwWhX2rNZuPvuu4fXOlkhM8GNS2lMcgQ5Alarf2XJwZsA1ZM/CVJAdiaSsb7i+x5MFilTiX3GjttEa0sCO7Y8KKzW4FfUyQSCH1H3vpIO7EGCwQTR89t9JPVJWnv9mtVj7Iee6YcK/UU/79I3HIMenFhiQ3RllQ+iW6tztnxPHT2foa5NK/+RmUSn1wbxYg6t/+86Djnu1NdOBjkxxCbIgN8iZ03E+Nzrr54deiBvb2zit7FJD77Dx9NffE5M4j3yt7aAg16BIbajf0+/TTpHroP28T5J8scJPyu42IfEskeu+LQxpoKOjE/s1NMx8xsxHDsmya+kj/AB6mJ89epi2wbkx/5T8of4F3Gav13ERokH28BVAujJzkY7+6CXjzAuk4tMzZm1nOwHk+09wdkxZ7k1mBOECPYMSgLEFExaBLc28HN5aZcBvStMDm2wYwWbAJEEgh9ytDIRBOskTtn2FphNyfhBIEBhZxLMCsG0DSbct4eO7X7sTz3Rs4WVh1YnwD4cs0uQpH/bVWx8ZZO/bEOtC9l7k9kukAgnAatgc/Rq7cR4aPsff2f/GNgV+dt+5TP9kfHC+EGO2ibvSbz4bhs4jvFc/YO+xccjK6t/6N6Og1b3+Fprc1YD+ZFjpbUDx2KvVnfu1aaNNla0xycJrKtvjO/2Evm2tH5O/bVfY5vWr9tyY7RjjPf0bW+1FGgLe1QbJzGPTVghxo9amVo/2gXsTOzh6ketB9+Y8m0gsUOu1o/QuTeGNtFrDx23rQebYE9idk6opmhjTOtj2Ajb1zkC0DG6Y0Paoa+rnzCmkCc6sLCDL7V91puX5rIpRtImclQSEzbR9gnjg9hSxyXQT9hjzhiZA/XXfo9emd+QH5vTx7VfKMexub9d9oP/RjITnJSB0MIqD87LGS8/NmBQJoBmMJGM9S7BVTij5ey6Hk+bTI6ccR8WDD6CFjIwGJGBH14QAKMDExeX0RiUlCGYEEjRIWVYqSHgYjMCLZdze/fU7hPsRHuswjBBIBfyo1OF7wic2JogHj2xNcnZGPQx9zLSRiYGdMQ+6L+pj3vgO9iStqkvyRC2HIO+IVFDfuSov3SvECyTbKIn9kB+2tkHtI2cyI/90CW+gK1qO7lUi88gDzpkP3KO+TiTGfpxnyQTVPSIv2V1hvfxt/R97jtl5X0bkJvJh3FAXZBxEDkpQ5tM7sgV3fEr/Dy6c3ySY96zn7qov+rMmEpig47Uje6xb9sGY6ral77geOxEHdg3SSD7aROwP/t2AXk4lltJGM+JUW0CRRl8s/o15ZBnDuiZOAjpR2zRIwkPutfxzJZ/d6EMsZr7cpEJGZNUUO9BL91nPKZ9bIIfbLJ1T670MTLVPt4Ex8YHkINxhe8xfrgVhB+MzoVj63gdi230EWMxfhvZW72RAfsw3jkG32G8kjDX+BU71vraeNKba9PfzDvbwPHMba38ra+y2MTJFG1U/6LvpmBc42OMf9pCdmxDTKLPGUfUl7jP9/sCfWLL6JWYEmJv+qWWQ3/2y/7woTYzIODw4AMctd14+ATf8dADnJWHHfBQCI4h2BJI6kMTcGaOa4MRxzMY+Y5BzPE4PMfXhxMQnJ7xjGecta9XJ/uAOscCJcnDE57whDOBhaDAwH/LW94yTHA8jIHPb3jDG866BxWdmQgIEJThQRw//MM/fFag4DgCTVYfCIIMXv7gH/n5HvhMuWojdKeNGvD4MRg24mEbY/pg++c973nD8SQnlEf29FW1Dz5O+Slbt23y/iUveclZfYScHFcn6/TH1INBwrOe9azh2NSHTARwfCmw/2lPe9oZ2ZAjejKpUwf7WqiLenjwTfoJe2DrxzzmMYPdofUDQHceJtH6T9tf2BT5eXhC9YVXvvKVw/eBYyiHLLWtn/mZnxlsWttuQW/66+Mf//jQrz1/Q/+MH8Yfcmb8YYeAvdC9HX+tjaN39Q+S4+of1IFe1b74eZvc01e1j+NrGQPAe/YzXnioy/d+7/cO7eNfyMJYi+7Ygn6s/TJmXyZcHkaBPdhXx0P6fywm9UAWbB1dqOPmm28+k1zGD1u/ptzrXve64X0d/3yudifxQWbsyMM+4m/IXe3V+mw7ninLOELeQFnKxZbQ+lHrH3xuxwa0cmM/6qEc+5Cfz8RUvqtytLRy0cfYEp1jz8Tz2LgX36sPEK+pF5ukvuq7La0+tMGxJLLokTZ4rX1NGfy7jgHsjhzVp2ID5EZP2kvsbMcBMasd6zWe0G4716Ir9qLO0OoUagybKz+yV3+Of33f933f8P0YyMVxjGtsl3FNvezPHIpO0TO27s0jrf0DMqFTbMmJEvMtY425HJ2///u/f7B3nWvTLxw/5nswZkvp03uozQVXXnnlWdcsLrvsstWtt966/iTnE5x9M1gZkCJLw0TDikrurxUh0cYnxlaxjyokRiRBrR9zlY3Eypgqh8mTnvSk4cpS/VtdOTxYgODpnxXv2RaRcwKrPSQnJtpy3OHWDRYrfvu3f3v4jG9zu01WHEXk/MZkW0TOCfzFIpdiRY473PvKSSO3XLCqyAo9t5Dg3/WWMBE5P/E2EhERkT2Qe5K9YiNy/uJtJCIiIgvBDwq5R9tEW0QqJtsiIiIiIgthsi0iIiLnNfk7RZElMNk+BPiTeP6wPvArdf7e6rDgfzZpj/8IBf6iKg/j2ARPtcpxIj3wb/yLe1XnwgMd+PeGow7jBN0YM4CO7NvXxJz6zif4hw50bjce8CHziA153RaOmxP7zxeY466++uph4+/ygNiU93OhL4gVPIQnHNf5E13428qqixwMk+1DgF+l8ySvPIb1nnvuOTN5Hwb50U4CM5/50/uPfOQjw+cpeAKhk6BMgT/xV2fcrzoXfHGXRGFJmFzztMLAQx/QrSbbjJ19jd/Udz6BPXmaIbYmEWHjPQ/hYII/zNh4ruAEddtkrhIb8rot+Nvdd9+9/nR+g6/xH+g82IW5Lv/vTmxibG5DYloeSgOnTp06lvNnTxfG6EF89nzHZPscwADkQR6HBX89RYLvX1DJEvB3Z3feeefwRLS5MLEd5hiYA5NJO8HuopvMg7/Fww/YbrvttsEfshCQhYmTSk4w5NySK1TMjfywNQsG+CJ+uQ0cz2PxT8JjztGFnKHqQmzUZ3fHx7XPhEH57ne/e/We97xncDomX1a9Wmo5zpp5XGt9ZC9nijgsfwvDdxXOgEnEeQTt/fff/5Dve3BJkP8r5nHZY8dyhsrlIB7hyyNYkZHP/Bcs8rz97W8fbZM6r7rqqkFfVmN+5Vd+ZbZsPWIf6qFNHg/bewRstSOrNzxWt2fvFmyIvdmmjqu2HpOh7Q/qqXXF9u2j5qut8RV04MEW2I/v8Avsyfdpg8cF93yK+jhuyg7UgU+NlYm/UX/1zVafFsq87W1vG45Dj9iCx7izL1QdQ9vP7TFjYyDwPcfVxy9D7FttVX1lamxydem9733vQ/o88pMA8Whz2ki/JimKHJTlljCS8NiEvmv9oNquytLaKvVlRY326O9qS2Afl/5jLz7fd999gw9hD+qITtUeiUGb4Bgej864ib/3jptr6ymw7/vf//4hwan/2kE9tMt3P/RDPzTEJi7D0yfoQZziMd7pi9bHDhJLahn6oPXXsCluJCagx1hcpQxtfOYznxnqoB839VFtF/k5Ljascs7pH05mmItqm5uOa2NBrsb07B3a+NnTcVOZfft5hXGNz+cv2qreaTf68Zn28n5sHmznBGSmDPVG/t5xY/Ew/l/HSWsz6sY+24K+6N8bF238Qo7f/M3fHGyC/YlFbWyWr9N7XLsr2zNgcuBerAQYAiWXOxlYFZyX/ZTDWXnt3ZfKwGLAVijHWSR1sP3Yj/3Y0GYG+Bi0wUDgCWa0mWOrbAykyFRh4NAu3+c47qVtQX/KoXfK9fTaRLUjstAucreXprBPteOprwUWjiNQTYHO2BA5cxxy0m6ltTUytHqnLgJb7NfWxb72cmxra+rnM/fpk8hwPPa76aabhjbQnWP4Dh15H2KH6B19apnIWctQD+2G+NuNN944lIsM1NX6RAXf41I1bWAj2qUu2mPiCNExq5HUT1uxA8e1x/TGQIXjsE3bd/THWFsQm9W2AJugc+RBH/QC6sBn6vvYhfaoq11pjU0oR3lkSH2A7ZCplT+2GqPVL+Af1V4kWox7/Ig60TtjqdfPU1AO+8QX2XJclYN2rrvuujPyI1PP1geBiT22h1Nf82f0RhZsg6zIFJmRpfZpO47pm14sqfcs17oAPVt/BfbRBt+z9dpjvEReZKIctqy+weon/hHfocwUHEvblKNO+hzbtz6CHnUsRPfadg/qjY2gN4YSC9AXvWlram5KufQNNmBflbnVi/Zpl/cBPffl5y34QPyAurFXdKJdTs4D441+RY70Wa9NbNTenol8lKvHoWe1X+Jh26f4K34fejbDDlN90YP28Pl2bkFWoD7qzmd8lvdzfVYeisn2DHBuBsHtt98+3N+Ve7twRhwvvPrVr15dc801Q7lbbrlluBTFqnAt04MBRBkGeC6rciyDiUCzCY7lMmxkQ15kY2BMQXsEEWTlON6zr51kqJ/BmHK0w75NerUQTLhMRzvUQX3YjPYyqHnlaWzYkcv3sSOf22Bd4Thkz6VpjqMdgkbVB1sTKHKZMFuCKVAX9qOPsWv0ZqWtnVznwmpHbQ/bIUetH7BzdERWVq74DnshMyscBL5A0ETOWgafQ/5qK9p7xStecaZ9Nk62sNkmsAf1pi+4xEj9YzBJYff4JMe9/vWvH2QY678WVt7wlfRJQN76P8b4OvpmbNIm9mAyjv8jT2wdeZgUkYcyuV+TRC/2po0pOLYXD+rEuDTIgB61X/D12s+ML8plfPXg+8svv/yML7JxLPvZAnXRRvSmzbmxZi7I2Vv1QzY2/Ihx2IslJDH4R3TllX25FSh2IskgsYjM1MX7+Ef6s+rOWCQeUya2pe0kSZXIGzu2Njr1tTEeH+Z7dBoD3+XYGtd4rTEgoBM+vGmeaqnzFsche8ZQ6zd8phx1M1Z6MAboBx6Ol76hPMemvpxURs6UoW/pszZ28T0b/Xfttdfu5OctHEP7tEkfUA+xZAx0ynijbGLalG2B47BnZEUH4iMLMNuCzZCbeiIH42Db5DdzC76IDfBlVrHrSWgFvSkfn+UY2Q6T7Q1kNYUEEKcOODyOR6AlMKQcg6qWaz/3YDDiyHWSoW4mCQbDJiiX5AO4DYgAsinw1KQFaJ9bS5gsKm25BNltBzi2yKAOJDpQgzCTWjsBMdkw4NGrB/Jl8g9MPMhe5cTWtFn1oQx2JogDgYjv6ePAZ8pMTYxTYNdAexDdgfqxf01aeqsVBLo6yTExVjkBf2uTH+qutkmfYvdNCTD+hS0D7VN/T74xqGOq/1qS+GblBZCViY391JMxh2+0Y5Pj6WvoyVkT7F1gsum1WeVdmnZcxq9qP8+JBdgTW/TqyirjmK0Z0/TrLnak7rrl6g/yVz9hXFbZoBdLMn6jKzLjp6yEVjiW/VPxi/5Er0BbbZxlTOFHyFzHEPas5XJb5rbxEqi7HbvU3a6opn96fomN2pgeSOY5jrjWHsdnktqqW1uuR3yhxiD8CR9Lf536WizFdtgqRC8SvjpmWz/nxACqDWLjKT8/KO28EdkzRsZA/lZP+nPbWBF7Ypv0CXUxB2S8zqWNifQZfVLnKdkvJtsbYPDi2D1nZl+9DEW59swYJ64DtIUBRBs33HDDQxIR6sr3U7TBrxfsehC02jarTgH523Kwqf4eTAqs1rNCTLBsJw3syOTS2ozPmwIKAYSTH1ZkmGBZwaqTDHZk6/0mgbrTJmWQoYXve/vnsGmC6sHkzmTLJUfshS5tkOQzNkVnytRLg5Wx9uf04bbH4sscg9z0A/29yYd7UA/+kJUj9MS3M3FlzHFyhO51Yz9t8ppJEnnwN+TZJfGp9PwAH9pFz11px8hBwI8yLukz/gatQh/Qp22b9MemcTkGK5hM7tnwdZL5dnyO+d+cWAK0U32DsQJJkmgPPbgc3/NX3rMx/mo9bMTKts+5SlBJPN4F6u7ZlxOLGpOja29lljg/5u/I3+tX6PnzWF9UGBvIkT5hfNJXldi0tSd+RlypsWWffn4QWt3n9muv/+bO7RXa40SREyBiIH7c2nUumVsYd9QzdjIm+8Nk+xCYGpRt8lQ5SJA+CHMSsF0g6OaMHt1IgphcK1P2mIKgxWRJ4EB+ghkBpXemPqeNOZPK0iA/q/XYCf1IBNAxE2d0Zj86Y9MxnQ8TJsdcaiTZ5dIniS79vw1MUvRDJpRMDnPAZkz6JCTYBTtm1e/UqdP37eIryLdPlho7S8IJKsk19gXsziXqln2PCVZJ8RM2Vo65PaGu4E5x0FhCsvK4xz1ueI+/4hMcP+WvvXhMnKHtpdg1Hm7DVL/u6s+stjLesC1+RV8RpzLexvTCxvQNt92dZHq+NAeuODBeGKPEReyKr26TtEOdW5hP6BvqaRfaZH+YbG+Ay15M2D1nZl/OujN4euXGVhWA4wl2vf89zXFpY99wz24Lg23X1dtNcFmWQc7ExkTL+3Ylhs/YcNtJhoSBYxLkWQEgaNfVH+zMtumyH/beNniFfSdbyJKkhOCI/EkScwk4OlMOnXcN5PsEuZGFpI37ZZkUSGI22b4l/oKerHqxCpk+pQ3ekyShf7vRfiXyYEdsxQpRVs23pTeme2On9eNN/jGV+CwF9sU28SNs3q7GZUzsM/nDVrTDxvttdI/MvE7FEuAWwNY32KqOY/6KvnyHbJTv1UP7Nc7sE3To+Vo7jpARenGLOD8WE6b6lf0HmQuwJ/bJiS6rp7m/nXbRrdqxbudiHCxFL8aknzbF6l5/4of4HOMV2xJTiGXbQh9QT+YWfHjbBRGZj8n2BggIDHyCeoUAyCDizBAn5ZWB05bjkuSmCYpjOfuvEzHHUBcBaynaNhnY6NROWvuEAV4npvbyFckUurfBgyDA5dCplUj6KZMOoE89U6d/mDyou/YJ5ag7K3vIgB3aIMllTlZEA+1xTF2tYaLYB/QLl2CrDOjGVmVHpxqw+a6V+7DJpf1KxkmVfQ70BbbgBAPda4LEpXT6oJ0g6E9sl4SECZ6Vmwr19OSZK1/rn7RBe5EPudjqZV7qZmKbIuOj9mFizVIgVzvp04eVxLfW1pR70pOedMbW2P6wLkkzlqdiCbchoRtxtMJJKv6ArIBvsVWSZCY+8pmx3voH/06xS6IzF/yJvm/7n4WLGgszFlpZ6jzVI/3KiUUFfyZ2ZtxuA/3Q3tKT8ZYVa1ZRuSqRPgiJHVNx/riBHaue+BD9h03oM+C1LdeONWJJjWtAvGjH7ibG5hbm/ZoP9Gj9X+Zz4fpVRsCROfsjAOCIOCQrBQQjEoEkw5TjEg9Bu5Yj8GxKXlmFxflJ5FhRAS6rAt8tBRNIbfPUelLapU0CAwGbgDEWnLkFgDLYh8HNYG9XbWJH6iPwZLJhokOusbqZbKibfoq90Yd2KiTD2JrbL6reBLskSrzSr0zIyEx9TAzIUS+vs5pGm5SlDH3Nse2q0y4kgKIP9cdeyMFKHXYgmaD9+A6gS+x7rkC2nLhgD/qRJAAbbRoLLehBHdgWe1fq2KQNTpgy5ir5gVjrG9xbW29LoS3kpi58Iz+468GxqS/xAPlSH7LRb+iNj1M3MjDmpvyDNilL+yQ6JB2MqSX7E9/JuMTWtNfacCy+oR/jMj984/5okgKSibEEbx/MiSXsj8x8V/sKeXNvNeWiV/VX5I/dGXP0CXGDfiVeJCbwrxjbQt34GjGGNlvfDtRNOXyNY5CZdvGjqi/9wxUeytX+QVfkZesx1q/xZ2TbFmyGbPhVjUvITv0QvYhdtME2J85vQ06oqHMf9e0KcQk94zfM7Q888MBgk0AuwWd8LD5I38T/gD5PbGKDnLCM+U8P6gV8hXr4zHinrqnFImIT4xq70o9L5iYnER9qMwOcnEDHn8gTEDi7+/7v//5hoq/wJ+8EccrwB/A8GOEtb3nL8PqEJzxhqAc4HgdPIOM99TNoaIO/dXrmM5+5esMb3nDWYOvBMZmgK/zZ/TOe8Yzhz/UJNARSkrP8+f2nP/3p1Q//8A8Pf9rPH/QjLzIgb/uQlqc97WkPeXgB+6k/+xms/Pn+i1/84tHA9rznPW8oQ1naQ+6bb755kI33aRe7xI4EAGBgTwUU9KeO1I1+TD7UM2VrEotnPetZD9GbMvzJf/qS+n/yJ39y6JdAe9TPgzaACeQlL3nJWbbOSkC1PfT6jQBc/QQZOAY5sQOBGhnYD+iCTfk+Or/2ta8d6uU7XqH1t4AM+Gza61H9KLQ65TNy0fd1HLBhnxe96EWDP8cGYzL1YDWMMfTKV75yOKaSsUmCR1voxNhk0qD/ABtTJuOXPk+Z2ieU4XjsyEOJ8O3Pf/7zQxn6Hd2iK37Lw2wy2aHf6173urN8H79C3vgH/pg+SR9W2wFt8R4fQg50QE76/jGPecwZe7W+AsiKnVJXoA9pt/ZhJf4SP0Jv+goZ6Pv4aO1XHsCB7Pg8D6CpcILAHNL2VUg8mpIpjPkoOtZYwvfYdyqWRGb6vvpi1Yv+TBn6OGXQhTaRh3LEaNqkbzg+cCJVbRboyzqOsDFt4kM8JKTtswpjnD6M7+JXJMhtnRkL8XP0+Gf/7J8NfllBB2w01a/MDYy3Si8W9MBnkRm/R5bIjM1pJxArsWvsnvhWTwzozyk/r+MNe9S+5wFWvP++7/u+s8q19PRq2+2NN2ht2fY/3xMniR+ZZ5/61KcO8031EWzGmOEkJXrgf7zP/JvYQJ3Ytfpg5uG5UA91x/boXucWaO2JvGz4LNSycja9h9pccOWVV551veayyy4b/h9TZBs4Q2blIquuIiIi5wpWlLnS4uKhHDacKOXJpMF7tmUvcEbOioSJtoiInEuYj1ihn3PlTOQwMNmWA8MlN+6hNLCJiMhRgFtt6m0rIucSk205MNx3x31jrmqLiMi5hnuZSbZFjgom2yIiIiIiC2GyLSIiIiKyECbbIiIiIiILYbItw3/V8vAB/g/1oPAEMP7An1+CH0eQvX1y1/kCD7LgP1cPi3363dx+o00ecnE+ww+asdVh9vVJgv8mbp/UuE/SP/yfcu+zHC+YE6+++urhSav1ibI9+AvdpeYf/Ig4WX0X2fDnQNv1s+wPk+1jBANhbpDniWAkFnMgMeavkti2odcGf7RPPQzs4wYyM6HV5A9deNLWcT152AaSUB5lvQT4Lsl8ZVe/a+n12xj4ayvH+QY24OmLTLQn6bHYhwUJ06Y4nLixS4LMuOBJfXnSKJ/pr6OWbKPfpuTxfId4yrMn+K/vd73rXcPDssZIHCPZXWpc4pc1mUam2of4mX26DCbbxwgGCRPlnIHIqtXcJIb/x77nnntGH+k7BrK0bTBJ3H777Wc9Heu4wL+q3HbbbYMOgQCYx+vK7nAS1k4iu/pdS6/fZBxOqnjcMv1RJ17ZH8QN7HzUEuR9ctL12wdZAOBp0/w1Lk/JHIM4xrxNArzEP3tRP3OzcfLc4OPaZ8Lqwrvf/e7hMakEGByXLTBpZX/KcUweo8oZLo9rpUz7yFeg7Ac+8IEzCSyPb039BG6+ow0eocp+yvcSWuqnDjYe78qjgCMr9fJUI+qOjJxpUyfl+U/SPJ4YOMMloGZCzn+WbmqDrX18bK2LepC/tpk6WxkoP1Yf5dEBItsY2P8zn/nMQ2zWtvsbv/Ebw2OgsRFtZ+M4Hj9c5ZvqswptsJra+sQ2VDl5XG4muvhS7Dslx1h/Br7juPYxvG3fjdWd/qg6xnf5HrtCfHesz/m+jrXeeGmp/RZq/6Qe3rN/Toyjz3IsOvPK+Ilu2IN9rU/haz1ZolOvj9iXullxbnVPH0SWXh/MgeO5IsWjmfEjJvXv/d7v7U7um/oh+iPLnP7a1o96um7bZpg7/qHVuycDSdTLX/7y9Z6z4ftsHMfjwFsfn7IF7Z86dWo4CeU7PrOSjs8if8ZUW2d0qbbg2IyBXltjTNkg7ZAYsg956vctGQ+PfOQjz9QZOWo7vO/FxuoTY2WqnshH/Ywn3qfP0T+6bPKdKtdUTJ0CvTn+E5/4xCAD9aQtYgsyJpYz/ijT+mnPdlM2aPXK8YlFbZzEzzjx5rHswMo2JwX5DG29U30tp/Fx7TvC5MelIM5KcWAcDgfkDBRHhVwyZKMc3/OeM1oGEyt6OCgDnjpYLQ2U414qglbqZ+O/qwm4vKd+BitQhoSoF+wpw2TKK+0xaF/zmtcMA4hL+cjCfi5R8h1nudTPvWIf/vCHzwxy5KEOPkdu/reUuua0QV2BfQxibFXrYl/aJPjwaF0COEEooDflN9WHPabO2DmGwMIKayX10y4B7/rrrx9sjj60QbBiYk1bt9xyy9C/6I6NoPZZLhmG+A46ssVm+A6f58KEQx8hWyZU5MbmbEzG7KN+9KAPqh2RlfLVZvgPNk+iRRlkwu8AH37Vq141tB0/xxbxgzDVH1O+G52q3+EH+BZEnzn2qv0G8WmuSKR/qAcZeU99Y/B9xmPaxBbIje3jixnz+FVNVltZWp04JjLQd5BxE/liR2yNHPgnsrCPV+IHZbYFf0RedMiYoM4qP0Rm2qC9Xj9Ef2xT4xvfc6Uhq3h8f9NNNw115NgpP6IMG3VD2ybQDvWnTexaY2rLG9/4xuH7TeMfGdtxDfgynyF9VWNSZSpuZEzdfffdo7agTR4Sxpgm6eEzPhV/ab8PiaFcLQLK1TEA6Jp5ZYyxfogNGAO0nb5mQ/b4cguy811iADagTuIi7cRPej5B/2RcYMf4YfV/6qrjlfqBY3if8TnlO7SRMTA2Xqmn2nsT+Dw6cWxsE1mQjd+rYEtkZs4gJtKvPGYe21AutovMQJ30X8pAz29zXI1FbWyiPeTIZ+4rr30wJ/eRh+Lj2ncEx8L57rzzzuE9QRZHIyhVcOxXvOIVw0RDGQIdg5ZJmn0cy8ZgoWxgkDDwOSb151gcm8HIfpydjQE7tqrC95S99NJLh0HF+xoEGSzIgy7IVBOywESBfHwfuQnQBAZIG8jca6NC4CKg/viP//iZutCPYL0LqQ8b1PpI3Nr+qBAkCcbV7sDkOyY7QYeTJQIaEw1tJeAhP7bjslxkSAAM2JrP+E76FpmpL4F/W9ABmamLDX2YKCIH9ZP4YJ/cskGiQTBmgorNeE8ZtjF+9md/djgpIxHhODbsgf1jR3TENm3/0h/4eXyXKyj4He2N+W7sxRjKWKNObL6tvRg76I+ekYn2sdUm4kfRmY3JcFefZdzgY+k3ZOFz66/oj51iR2IAtiYGxH/Y7rvvvmGM7gL2j7+jE3W3YwI5SNroh+q3jPe2HziWeiIzG8czTgP+x774H1vPj+ibOlYoj7+3dqccYzNtEpvw78SnHjfccMPG8Y8MJMLoE/9DBsY5+zOeNpG4AYwL6kncwBaMqSlb7Av6AJ0zBtjwqSk7QdsPvNL3yIgNGEfsB3Tl/VgMDbRJnEBf5GEOwcdoJ3aIvyMzYA82+pfvaYdX/L+OY2wKqQd56UPiVkt0S30938l4rfM980f0nwsnWMwJQD1sSY4B3SLzWEwE5InubNgJPfDXgH8ic52PoJbZBeIF9mpzn9hc5mOyPQMGLUGlgsMxSCsEpJxdAgEFCE4hQSk/fiEpYUAQiDg+4OAM7F0n1SlaXVqYgFsIGgz0bSEooHO1CwnYVHCZgsGPLDW4Ux/7agBuoTxbTQJie46tQXAOBGkmjUyiQP2ZKIBkin3V3shKYCTQ9uy8ide+9rVnZI0NsGXkoH78rgZZAiQ+GH8E3tMnJDJjEwi2RvZ6QkZbrR3h8ssvX787LQPBeduVD+pED+wTqIuEBXvNnTgolzFbZedz7a8e9F8mZNoOHFvttw1Muj/90z99lo9hQ05GKoz/qnviBolD4DjkIuHYlvh76qMe6muTCFaz+G6O37KfyT9EvsTGas/Wj/CP+BHH4Ke1TexBfW2cZV+SGOB9bbMHx9BeTapiD2Shb/iMbkmUARmQCXu3/bUtSXypr2cLZNsmmdtEYlGdVxhLzDVTtP0AvfluG0hW6SNAHlZvea39iL/TD5GbPkOWWoY62Og3bJWx3huvVe/Q8x36ovZtxmsFeQ/a/y30e5V5DOxSy6Fr/BXIEbADfVvjG35cY84u9HwBG9KebIfJ9kxwbCYhVnaYdHqJ3dhEPjXBJ4CRmFF3tlzG2rdTbzO4ueSErkyIu8rBcQzOdtBvm4gFAh51sipS7ZX9U3DJjMCcZIE+JElEvl2g7/AJ+go7pc8C8rBVOdky4WdS2YaeL/X2pe7IUBO2kKS8l/QnkGOjVv7UCfgJ9kN/Nuyx66TMccjS9i11QtrcRE5ke/26qa8je2+c7OqzwG0DNX5wktP2/1Sc2Af0ZforMMYZO9UHklTUPmBLzKv927NT3ZeyxJC2Ptps+7TGWU4Ge6uTu0JcQ4c6/unT9CsnEtDKiewkdvThQYgt0KltA5mqXfdBxjy3CdAGcWfuGGrnu3qSsgutb5MIz/F37ELbmR/RhfGdsZOx3jsRJt7vypzxelDmjvd2jLUnEYxX9vXK9cbntrS+sOsVvvMdk+0ZsHLDlsDPZJVVp4NCMOmdgQNtTP1V0FIgD5eMWL0lwJBEMim3yeRBGNN5VwgqdcWiB5MP+iSR5BJyVgm2hctoBH4mbOrEJ9r2xyY2dKdsJv2jTK+f0LXeu3jq1KnBV0hIeI9dCMrb6kf53gQUe831Gex+0BXCfUxSgUmqjR814T0scnWA+zKzcdsO/ptEeopt+6GyyY+QKyf32InyxL+DJEwtrCSia5Jaxn9WtcNYAoTej3vc49af9k9scdCVyAoJKCvp2BH7Ylts3N6+VGEMcpLT+uuuV3UOAjLfeOONw/ihz/CJsdXgXr/tGl+PynjdhrmJ+7b0fGFfuc/5hsn2BnL/Ms6WBHTu5Z85UA8TAJeAqLvd9jnZbEOSV3TmlgCSUs5os/ozF4JAL/mZu4qDbSrUx4Dv2YptCoI1x6IHCTdycXlwW5CdpJI+49Ya2sUn2gmJFTPs2MqY7SArpXNJEO7ZG9tik16gzmVufKAne3tpkXJcfuWyI5epWY3KLQJzwVbIQwLYa3OuvegHkhb6t6W3rxK9s7pb6d260ZvQq8/iZySyyF/jx2EnL7nUHDnqxpioK5f0w778NvZE515d8aPIl/uLuQTOMfsk4x+/THt1/Gcc9ORk49iDEFuQvPTqb8fUtvR8m37EltiUH07SNrcNjSWime8YxxyDXPuc77Yhizvch0xsQQ/iTD0hmRqvm8Z6j6MyXreBvkHXtk/Zt4sNQnwBe5xrXzgJmGxvAAcmUSRQV+asBM2Bs0SCPKsNNSFlkLASUQcL5bY5W4/s28Jk1K5ik/QT5Nr2N7WBfpyotIOeZLWSBCln0MAxbRCtq8kV7DenTzhpoE4SbibagwSONuloT0T4URZttbr37LsUSTBa29BvBNCxkznskhOTtn+z+ggk8Xyu/RGfrvv43NqhhSsP2Ku1I4kgq01zfR9foj18rB1TvUm5Er25bFrh2Fau6FT14rgqZ2zQJmoHvSxfoQ826UX/oxvJCrLUDR9At+hB//G5rTP9sA2b/Cg2xWb4ah2P7Nuk17agP76LPdC7tsd47fUzCdg2/geZL+oxtEXMaP0Sqi02gd8BeqQe2mnHODERu1eSNLbxM2R/ne+om6sAPbaxyS5gs+gL7XiLf6FrOw7nLuhUxsZrnZeOGjWHqOT2p11J3+aEJsyZZ+WhmGxvAEcm8HAfKc7LVn/sd1CoO6vGaYNAQRttsCBQso9ymwY/QYhBwSrGthMWgwt5mGAiD5MB9zfX5GxOG5wJEwhYUaGe2I9jK+jGREQSSru8cgmxLZfbPki6Ux/lkWEOtEEAwn7tKkmPJG7InwQZmdhot+rUTpbUj834LuWog/6r0Kdc0t9nAlZhpZh7G7mEjBxsyIQdWE0bswErSfQrelQ9ST5yooH/ojf+wfcpA/U+ccpTbsp3meDoV2SK7zGB8J526qS7CXSmnYwp6kGudhLtgY9VnWKv9ioI/9aBDeMb/NUXiVT1WW4NQG6Or/bZZ5KCnIyVsTpJQrDF2Eox/YR9kQ2IedgJfdAr9ks/bAv2xLfp19aPYivsRKJTYyA6jSWFu4JuGf9ZQAjoTF8iW/U/7Ms44BkUc0Ev+p3bzagjfcOYou0pW2yCPkDWzBn00XXXXfeQ4ynHd9GF9vjMsWNtccKB3Dkm8vUe6hUZ0G/fJ0WQk74qP7K0/cCKK37Cd2zEEMbh2ELCFGPjdd9+uE/oZ66y0hfEeOTlFZ+b61M9ksRnTMYWshs+1GYDPDTgmc985jBZECQZ/C960YuGfYBDAsEGx+RzAjiTHA+MwZ714QPUQbkMhO/8zu8cElz20wb/z8j3b3nLW1aPfvSjhzKQe/oIzDD2MAogEPIwBeqkbpLGXAaPzIFByQNbIidy9eR5wxvecNZkizyb2qA+3mML/hT/N3/zNwf7fd/3fd+QqJMApE5sSlDLSQZBlD/gj12hVx9QNmWm4Hi2iy66aPXKV75yeF/Btk972tMGXYDv6R9kih14IEBk4EFF6M8kRVKa/g4veclLhld0RVYeAESSVi8ZY3u+R548bKCl7aOQtmtQRVbqwZ74B/Z93vOed0Ze9OA7+pN+Cxz3hCc8YdAXqIPjaDd60g62zkMVUjd2GysDre/Sfk+n2Jfxhr2QGX953eteN3w/RttvtI0cyIMP01b8CZkzfntwHPLiXxxLn/IvMPg68iRppZ7qG7zHpnyOLOiFfSIHr4kf+Hp8pY6bjOnYh/6tcYA6aCu6ciLF99XvKsQm5Ma/MtYqyEg7lEFWSF1T/UC9PVu2foQ9qY8HasQGrY/wGX1icx4EwthhX22jtlljX9v/Y6ArG+MfXdr4+axnPeus2Ed7yEG/xkfH4mil9jsb75EbPYkTU7ag37FhxkI+Vz8gkcQv2c/3//pf/+vVU5/61LPiD/Zv4zi6kJhFl5bYts536Yd2fmOM4BeU4bdFdbxX6BtkiT9Az4bxd+RHPtpE/vggumEn2qz1ITP1JJYx9/HQJuSiziyqjPkr5aiL9mq/Rf86XlPXXNCzjvNAvchM31ciS3Qb82vK1bjP92kjOnKSe+prJx0sdNBX0NaX9upnysYWrS/EFlD7Ts7Gh9rIkYFBzyoS9wa2Aed8gxUbgiIBbZtALocLK2xMOPisiBwdSMDbeYT5hasYxNaTHlc5qeBkqIWrcdiBxFsODx9qI3IEYaJgNUZERLaDk2BubyCOBhYwWNDZdiX6uPKDP/iDw+1OsQHJN7cwsaruCvTRwGRb5BzDigyXAF3VFhHZjqzacp/y1VdfPWz8ZoPbvUi2zwewAbcUYYPYgVsTuWWovQVFzg3eRiLnjN6lP5GjCqtFrBTpsyJHD5LNrOxy33HvtoqTDre5JUZxD/v5aIOjQO82EpNtEREREZE94D3bIiIiIiKHiMm2iIiIiMhCmGzLXuEX4PwSnAcd8Fp/IX7S4X45tpCHMHCv73GBX7TzcITzAfqHh3zw92DydbjnkwdYxG/bz4zpPOhlG/hv+cPwLR4zzf27gVhEP8s80r81lh1F6GP+A/o4wPiJT8a+50ucldOYbMveYFLjPz1PnTo1BGpe+WU0+88HCKhV1yTfJCvHAeTkZKlOYEwM6HScThhIovnP8k3wuPrjMlkfJvQ1T41LcsBnnnx49913D5/xaexWE9pNVN/Kyc1SvsU/UdR+ff/7339s+hmbnut4Sb9gr12SbWLgnLG3D5DxuJxEMZ7ig4wFbLTN+JHjj8m27AWCLI9MZ6LjoR8kMrzyl0TsZ6I937jllltWd95557H59wqePHb77bcPcgeeTvjWt761+7jmowoneaxublqxJgm77bbb/MvFLeHv1Bjb2/ytGr7FMfhW7I1vERuWPhlNPx8HSMCwybm82sJ//hO36lNu54KtGXsyDn/Fd8cddwxPw5TzBx/XPgMSSSYLJol3v/vdq9///d8fHrudx8O2ZAWHcjxul2NbWM35wAc+MJTjfX3ULZMP31F/faxuVhza/82sdUErFysUHIscyJ9HS4c58m6CS2IcxwpYTV4I3Mj3mMc85oyOsWdtJ7q1Ok/JFr1IZinH/4rSFuVqHWGunaiPCYPHj7d9U6ltUoZ6eZ/xw8TJ1h4fnXg0cWsHqHLObR9923p6tHW3x/EYacCG2CMbNkHeTf/Zukl27PqZz3xmaJNy6FD7dZPdp+qPD7HV/qf+HowDHgGdk6HItk3/01avH2tdler7dZwjB9/Vumg78ab1/TGm7BPYT51jvsM+xjN+jPx85gSG5BpZkZvHqrdjlXJTbY/51uWXX36Wb/VsNxYTa5vA98hOXXlENe1Sru1ndG6PnaLGKOzHe/otem4a15AyvT5FLh5Lzu052ITX2ATfgOrLc2Lm1Dw1Brau9fb8tJU/ZWj7S1/60rCv2hx6fVXBF9CJOqfmqdiX2IqN+D9tGLMH9dY4nHaQDV045mt50JlH4dNOjetz2GRzTqCYC+OT2AEdav9X+6TtdixMjY059VWqvSmHDrVPd7GDnMbHte/IVVddNdxjheMB/12ZQU5yGXBKyuGkGQw4MysE9XGpOD9PvQKCKYEAB2dVgFeOefaznz1McPXJggQGLkfRdhJa9uVSGnUxgGibYzPgaYs62RiY7Kct4ClTlOWY6NXKOwfa4NIYWx3wPbAnMteTOmyGPbFNlRubUx6QDXsnuEYvvqccOvCZ9qv+sI2d6EfsFHtQnvpjc8rQz/QbbVOeNnnPd6zqA5eDOS6P9+Y7bPsnf/InQ9scx0b56Eidecww7XIMUIZjgH2UYbW56sxKydSTKCnHPeToVutm5ZrPwG0/JFX0P/bCbsiYtqNLD/RlUsFu1Be/rrIjN4kE9qccMsQGtIdswH7kqKs/Vf6qN6ul2I/26Bf2Uzff4Svxl5b0Nz5A31I39VI/8qFDz084hnZYmeW79CNlYsfU1a5eISdj7kUvetFQD/ZGPuxMefyNV64Q4SvYinKx0VT/oj/tQrV/4gpQV8+GjKs8aS5ypT0+E49IYkkW2u+BtpC39cna99Tx/Oc/f6NvUY7HTGODOuZ6bWaspE1syZiLD0N8Ln0RG1E+8L71txZiFHVRjjhFm/QX8rBhn+zjteoOiWfZR5s11vJ9EqOUiU2e9KQnPSQuJ2bid7FJ4jl+hv3x3/a4TbS25jN9gu7xU/YhJ/bCHnzme8ZExh7+lPlxLP5WG2U8suGfdZ6qtqN+2qZ+7BUbpX/4nDqBY2kv5dIOddR4g6z4FGVpI32LPesCUkuVjY3jkY24Gtr+o3+wR+ZA2m/HJXXwyuf4Jf2CTL2xwb7Ux610fEaPsViM3BB9qQebEE+J5cgSO9DHtU2Zxr/+OwAkETg8A5ZLkgxMgitb+Nmf/dnhvkYCBOXYKMexv/iLv7gudbouBhKX6nD+XOLc9l43BgfJ9yte8YozddEmA4L99VIkA4qBSLkEsCSDBJOqF/JRfhuS0DCZEliR7SBwBo9syIpcbAQqZG71oi1uf0g5AgRBN+V2sVO1B4EKnUICUcrwSn8i7xQEQJKR6MRx2Au/CchDosFlRuRkAyaVgG7omPbRicmQBJBgOQZyA7aKDZjQkLvaIKA7EwZ2io+MgT3Qiz6qfs1+xkitH114sllkZ/K46aabBhvSBhs6Ilf1IyYjJqnozcYEwrHApMJ3TCbUxXgaS7THQLanPOUpk35CP6JXZKAM/dj65lxos9ZFH9Ie+mcfeqf/xmDybOMK9qlxJYlmxkt8h/amfGcK+ohEgoQCWaMLPpoJvSW+BbHzttAmfV3HPracE3sY08hAu2z4LfaeG/fSJnMCx3BsdOc1fh/oO2TLOGJrYy11sQ/oM8psA8km9VMPcmBX3iPHrn1bQf4au5IwAv2AzJyMZRxHl7H4C61/JP5Srp2nchztM66rfbelxnk2kkl0IR6mDeSnXPqnB98hG4koxyEjG7Zim0vGZeyL/oCfbgu+hx+MxeIKMjKO0iax+Ed+5EfO9CH7e7FYtsdkeyYMRhwxMNiZpHDWTLA4NQ6e1S2gHMcxiFKudVoCVQb8NjDpcyyDJfCZpIsgUAMsMtRygEwEnFYvPm8byNCZ+jiWwMqZ9kES78hOshCQn4DQnl2TuDGxA/rz+b777jsTJLexE/sJLgF7EIDvueeeof8IWAQe+pmygbqrrD3STj0OWes90pSp9VAW30AOYELFnkzStRzyIB8nKWMgO/XFVkBQZlJpbbotSepaG+MP7YSBrzB2AmXQux7LxAzxnfgR9ore1M8kx/6pCXEbsMOYn0SWqX7cxY70berilQ0bZR/6Mvml/THa7zmeMZm4Et9BzuoD+A4wTnaBelnRxI9q39AO8aWOr32Bn6ML46COfZLLObQ+mDE/J7nBN9NmbEsfVt2pn/EWiBn4SG4jgF1j7Rjpf9oOyEfMrP29K4wLYiGgK/Kj46b+TfxlHAU+U18bf5G9lgNs15t/qy23hfZrnE/djLOQvsW3x+A47IufB/ZR/9xEOeMS3419IScr20LfMGfMjcXRE3hPf2DfgL8T19r4Itthsj2TGsACAzOTPAMGONtvIahzKSYwCAggnM0SiHY5ewUSQAYWZ/51i0xTg4Mgyfe8MmHV42EXmRjQBAyCD6tW2ILEGz2nAlYPbEt9HMvqByc1PX0ow1YhqDC5xOa8zrVTW1fIxBm79PyhTt49CMicBFCOVZT4TCWrCLziG20Z2ieppkzVJRP2VJ/TPjpzIsQxvfYPCnUiN/rRb7HxQUFv+oaku+qd1aNt/WuM3vhlUmeyiT9hR+yMHcf6cRvaRAhf3SU5Immeiiv0BXW3OrKPMVNj1DbQThKMCp+ZvPeR6LUgK/W2bTIu57TXHocNoCbIY/Tq57dOY+ArbPhJ9V022mv7aVcSM7nSMxUzd6XXv7DJZom/7TzTi7+tbamb72+44Yb1nq/DFcBdaXUJtf34xBwS97A7428bu6csY6hC+2NyzgG/2jUWzxlDsh0m2zOZCqaV3uBg0NSAxFkjSSkOferUqWEFmIl724SBQcoxDKK6sb8duC1ZTWBAtsfDpuOnQC8CPzpyho3u6JmV/TlgM64UUA/6sNqRJHEu1ea72mmMXYIRbbH6yyvBmYQanepl/tY3UiYBOf3W6sJGolFXRlqwZa4+MBGn7n1M9sjHJJOTBWyPPL2Tkl1Ab+rs6Y0+U3pvQ2/8pq/zjyy0h1+3/ZjE/1wxJ65M+W0dL9tQVyYPkzFdtkmSDpNerEVW/GgfJGbmZHCXmLkUB52njirocOONNw62ThzPSc8+2MWXsRmxmPG/RCyW3TDZngmryC0MtAyGTPa91SGCbDv4WPHhMiuTNgkQA4JL4jUhbQNNOxmyQsWqGwG2t00NrkxUJAq9Y5m0t4EVx17Sht4E1F0SOo7lUhrysFrOyh2rI7WuXjCmX9gf/dGV962O2bYJQulv2mhh1XoT6IRtuReOvqcPWXWoelTfYAPKQPyIKwc9XeolwR7oWttHH3xgmxOhHlzWZwJlwqFu2iD5m0rutgE7sbrc05ltXwnL2PiFmtD3+pGrOFMJ667J7Da0cQW/Iq4AfZGx0cL++Na2UO+uq+JzaW1Hm+gxpstRImOA+NXz3W1j7RT0IVdOqZc5KzGTsXmuQH/izqmvnQC2urO1V1oqsV1vIWpuP/d8ZF8kLjPe0CVxbxd6+syZN9uxsXQslt0w2Z4Jq1Z10PKes8bcOkCQY8Jv77+jXFYzgYHBZZ06ORGI+D6DJoOivTxNexUuo2WFoIKsm1YzSLJokwm5TbS49FRXW9FhU2AjkKJXWxfHoWudyNGvDf7oVo9FB+oLHIOt23vHsFmVFUj8qStBHD2RYRc7tdBXyNL2M3VvmtCwK7KF+Ez6Pb5R66EMesT3WDWh73rtE/hbHSvUXVdfqZvVj7R/EJCP+mo/s29fSRg/WkTO1sboi16xz0Fhcuv5Jv9mkTG8qR8BH8Evq1z02UFPasbo+U4bV3JfKfJXsCH9tOs9sFziR892HNIOK6vbgr+3flz9FtJmGxNb3Y4CibW9/if+tHaD1p/xsZ5fTsVM4OSLmLmv8TGHti103zX+xnZtP1MXPyKvUBZqzIlvLwnyZc4G2mx1nYKYnjml9icxprXlnLHB90vGYtkNk+2ZMJC5XIRjMwi4TMMkxsoBwQxYUSAAkPTUcvku5Qiu3FdHGTb+rol9CYy0RWLJ4KMuAhL1JJgEfrhAEsB3TDLURVmOYXBtmthZiWMAsrIZWTiWlbCaOJCQbUrKojtyJxlBFmyW76N/bjWourUBBPmjPycd1Ie8NekBbEIdVX9WcuiXrEQe1E4t1B1b5V496t50DyFtYVvK57hTXztJSbBFFyZU6kXfyIlvUAYogy3RsdqG9tvJuIXVIWxIeY6LraZWw0nYALkpPwaJGiv71F9lmvKZbaDP8Rsu15JQVLtjpzrZURab7bKih77UH/tjY3w1PxKCTf0IlEd3/B+7Md63lWUb8IvIG9mJK7ymfymTlc5qQ2TEd6f8YArsTXyg79GVNnnFRknwe8S3kKX6FnbEVsjD/p5vk0iwn2PZ0ib9UH3hqMAVOmItYxdZ2fAJ+qJCzMLP0In4F7AFNqB/Y5N21ZP+bWMm44XYN7V6vE/wI3RD/pxEJP4yfvG39BVyMpY2ge2IXejCsdGr7Wf8Cb+gXjZkwE60vRT4PvGBfsx4ol+38cGMS/ou8TO+XBNm4CSzjo1eXCEWM58uFYtlN3yozQwYSP/qX/2r1eMe97jV2972tmHAMwje8pa3nPVn7+xjEDD43vOe9wwPfmAfl3WT+PFn+0wmDAbqoiz7CEgvfvGLhzLwzGc+c3iAAAGV/2vkf3mzjzYy8T/vec8b/uSfthic1PuSl7xk9brXve5MGYI8A5rjK/yBPcczIBno6IUsXHZKcgfIwH7kS50t2IFEG1l5GAgbslD/G97whrMuwRMMGPiUjW7UjR74Hm0RODkGmd7+9rcPAYUJA5vnwQ58hz1+4Rd+YfUzP/MzZ/R/7Wtfu/qhH/qhoUw4iJ1om4cr5AELvFbZPvGJTwwTwiMf+cizjs9tJbElevPABx4gkOPQl//kRGfgWGSjP/CNnj5t+8jHcfRbG5wrlMHu9A3HxQbIHhvgC0972tPOJELIhd1pi75K/7TQLltkwpbUTT2xCW3w15j0X2wE2Am5atxhEsbvmFzysIlnPetZw7HVftgWn6gyMQGiG5M9bfO5R+1vZMtYfOUrXzmMTfwEObA/iUKY04/Ygj7K+KXPfvInf3J4j058X3Ws/YaNnvCEJ5zxN2h9qUfiSnwHWdq4gi2Qq8pOP/FPGZG9tX0+Uz/27/UN32ET+n9sHGYcVd/ifetb7KM/Pvaxj52xF5fBGb+1TfyBcuhCvAViLeWqD7f2RPbWvoB89G2Oa0HvGqMCx7V92LaRWBtZ0RnfY8zWsUAdbHxPvbklAbnQlfEZm+Cn1SYc18YF9nHLGfvnsqn/Q88e2I6YzMNdILqh+/333z+MyTb+hnY8hsSL6JXYwnzDA2TqmOB9/Ibv8EFkI/lNuV6cRx7kntO3lfQL4w29GAM/8RM/MdRXfbD1LT4jT+rFT2rfAfWgB7JGdo7nM/3Bd4yBOjaor/WDXiyGnr2rHcJY/8s4PtRmR0g2WCUiKZSjA6sXBK3c1yxyEFj9Ae69FBE51xCTSJ45KZPjgw+1ERERERE5REy2RUREREQWwttIZsCtCtzvdBR/eHM+w31kkPvgRA6C/iQiRwliEvdVj90zLkcTbyPZEX5UZKJ99CApMjGSfaE/ichRgnhkon0yMNkWEREREVkIk20RERERkYUw2T4C8N+W/PE8/2cp+4d77rFvNv5/lP+r3TfcX8fDFuhPmQ92428cz5Xdjuv421Vu/tP8XOuL7IwV/utXlqWNf3Xju03w8BS2kwCxBr33AfVsG7Owd/swH95jX562ysOhtn3I2kHYRQfZDZPtIwCJH097euCBB9Z7dodgclIC474goGDfbEzyPKSE4EbivS/oR+ozgdgObMZDIc6V3Xg6HQ/2YewcJyL3tk+GY3JnHPCwl8Mg/VvB1uw/6PhDd+KdCcM4bfyrG98lucOG2LI9CeNhLTyM5jCTwKXA39B7H1DPtos2H/rQh4axUI/jGR48OI8HyfCAmvpAn6Uhfvz2b//2+pMsicn2CYNJjIF7EgLjPuFHJvfcc8+ZjQfh8LAiEm+Sln3A0/re//73D082k/nwqGLtdnIhwalJHfA0Ovqcx5cfBBJD4p3J9jRt/MvGw1KS3BEHsWV78kY/8aCnw0wCTyo8qRV75omQgO/ymbHA06HlZGKyPROCOhMG29jZLGX4bqoMpC4moW0nCQLi2LEk2lkdpP1NMvA9r3PkSRm2qRXA6E9dQH1VjvZzqLJX2L9Jtl3IU7n4W6WsulWbRI/aZt3f04Hvmah4zeeUm+q3HuhNOergGI6da/e0X+F79rNtI0fIcWy949iX/mP1hnKVqXb5rtptiqrnmPzUk3Kx/y5UnafqmfJRPveO7fn7PuVGljn1RMdN/hC5xsrxPftTX3y17ud91bnX5zmebUoe4PvoR3u8b+vbNO5auSkX6r722No2r+2xgTp6ctXjK7Wu9pglQZ70WWtL+qnVH6qs7ffRG1Iun4E2xmzWQtne3DBm2157u1Bl7Ok/Rtof84eczET+fOZ9q+e2/ss2JuucMrIc/s/2DHDOn/qpnxrek5zhqFzu4RJMYGByZsqtIClDQseKQP3rHi7TsXqQvxKkLGez7ONS3RVXXDHs78G9XiSGqY82aJOVQeB7BiWDijJsp06d6q5IMEjRgUth6EbZyHzLLbcMq76hpz8yc5Ze/xKxykcAoSxn7MiEbsiB/pRpH7Gex9K+6U1vOiNvWx96VX3nQj3cK9d7rDurqddcc83QLmW4vYQ26A9Abx7TP6d/Y1N0ZR+fqQ8bU9+UX7RErtxTOaY/9UU/6ovd8c2snlCGW2Y4ueCSZeQA9Oby5RTveMc7hnL0dY5t/R8Z2I+M2ApYOYPW51s98C9sRP+M2aSnJ/UgA7IEyuFLvFIur1P2Tr+d+tpY4W8+ococnfkbLuqpPo89Oa7KVHVLPbFFaB/DHLnTf3m97bbbzmqv0vobYHvqgcjd6s8+/IE+xb/T3jb+RZm6CperRO985zuHz8hFGdrhGOA4bIg97rvvvuE75GptXuVs5anQFlt0BOyZ+jb1DVS5q73e+ta3DvuBfUBd11577fA+cSyxm2NyLOUSxxMDWt/O8YlJHJurbOkPXjfFiTlMxb+AHzAOsVHaS9vIf/nll5+Jzchax1hkxWb568yMaewdn4j9obX3lJ/Tj6wG33HHHes9p0lcuvPOO4djW7nyWvtjbDy2zPGdJz3pSWfFT9qrYyXt1/k0diGpZqPPKZc4Q8zm+8yV8a1N/osvQcq1cbEXFyhDv2eOk/3h/2zvAM6LU3KLAIOagMXAJ1gwqADHZRAQ5G+//fahTAIbgy8w0Bg8DBbqYuM9+zZBwsqAIqClfuTi2MjBRMM+YAImWPYS7Qp1EsSqzASakEFZ9WdDHoJdyORBgOJ7yhKEEmi3hfrQCx1SX2zFBLYvMlFUsB1tEpAJQulfgmvtXwIkAWzTLTupLxvBkAC3CWyMzhyD/kx66J9kFugr5EvdlCNRJ2AzcVewKZNayjIxMllMyY/PUiY+y3H4P/upr0J/MQYol8ksPs+JGfvZ4rfoNxd8DT1pO3rGHtgz0B/0Z/VpxkAdh5vAvtRbdWajffQJ6I+/V5+Pj2ZMziXypS36Cblre5tAPvS/4YYbzvLTMf3xwcSTMdnRkXrjw5RjXFMf+yuJT6kLOIYEAl+jDr7vxSTqom38JHLjJ8SP3qomkEwQH4DYxzE1cW/j0VjfUC5+xUZM4IdqqZMtJwmV2IW6Uw7fwy+rT84BeWm3ykGC2La5FNiavoHEXJK8Hq2voj+yEnPaWMJJFb5ImYxX7J1j0Rc7Tvk5/oxt2n5DTk52kqRn7Pf6YxviO9vOPbRTxwob/njTTTd1/QGfShnGCO/ph4x72qsyJG62MiBrfJVyxH/KYTNApl5+suvcLLthsr2BDJK60ssgwakT2HF+ggzBJgOfQMUAIEDg7EBg4ZismADBYk4wYDDSZlYrIWeubVK1DcicZBOZGah1ciPwsMJaZaYcbTORBXRDl9gEMsB3gboJcG19mbQ3JbiboF9JVAlI2L8mAAS1OtHQv9iY/W3/0rebEisSiGpjJvKaMI/BKlpdPUwCkx+2IRe2QI4qb8oRhCv0WcrxSp9ih/hnj57P0gfp/zqJUGcdA0BAR4esqgDHUq6XdI2BDZl4aDswFqr8TFC8J2mo9mbi2cYPMwnib4F62Gq/YV90aX20HjcX5Kae6l/0LfXPhRMSbNr6KSdL+GjrpyTNreyUT+KDTPQ/++sVNz5TfztZI2tWfrclMYxYE6iP5KDG3rkgdysPcqNvm9hRLvqlnykX2/C5jYuBsdfamgRzzviuEIfwWeoA3uPH1LcP6EuuJLTbtnIC45CTwcgKYzEtvgIs2MQ/Mz4Za9QzJQf9gA/Uk3PKo1PiI7euZezX/qAt+mNTjK4wrok37djAl9qYGojFtE9MrL5E++xHvm1AD/yyypDPtFHnP+JgLYed8Sfahcxf6FRtg+9uE4PlYJhsbwCnxJFJNjijZ8DjxHFaYFIEJh+S02wZYAnSBAjqah28JhBT0CYDh8mCVamawOwK+lUIgjkjhshOwlJ1Q5cM6GwEvla3XSZKdCSJ4rW2yUaQSRDZBo6pk8zVV199JqjWRKIHgZp+a22ViWJT8l99BTLRbGLTcZmgaqAFyiU5qHLtIgdtEMzbfmVfDejQ2geQoefzTAjIuA3Ii0+QVOL/+CT6xV+n+iknIHOhDnRnrOF3jP3YG3iP7j3btCeJc2AixR+Z1GmztjWX2Lrt5+xr68T+rezsS2KSkzp0bGFfm8BcfPHF63fbk7FU4ywxoNVlDvRLtjZ+4Cub5MbPer5c4yJQro1v0QM/3QZWb+kfTvzxb97vovsYyIpfttucGDAGfZSxeKosvFR6dtxFL/yN8ZGTe8YIt7ZknNGntJXxmo1+IEbMXZDKuO7NPdxCmPmwheNoBxnrMeQE6Eudc0lc5bXWxca+dhy3Phibx18pH7+s7DI3y+6YbM+AST2rmEwGJGtMCHVVD8dmwNetnfwo3wtuvYDUwoChXdpnANNebxLcN8iM3q1u7Ee3TcH6IMEcndt2qW+OvVo4rk4y9CerZtteYuyRoHbYjPlT2IdctNFLotLuVBvbTDCbYBK97rrrBv9nQqPdXfxgDsjNiSyrdYx9/LD1u+i9LxlItvFJ6iV5oW3G+7Y2HEtkkH+OP1R/ou9JIHp1ovec+uZCu6yYEtOwN/3MCTEJxq6MxY8kaAdll6RxDBYqskqOz6X/x5K7baFe2mi3XfyXBJuxyBzIQgN+sHTixvigHfoUuPJU+xFf5fu2v9kot2lBpWXMd8b0pH1oj2Ej0d2m/dS1L/+lvp6v1rEuy2OyPQOcksDEZMC9qARFJnyCDuDIDKZTXzu7p0y7ZXAQ2Jg862ojJIBMwQQMBBku4SEDAWhp0I0JcEw3vs9A7q0ezNEN6sSdwJRbB9qNS3PtitwmkLGdaCL3Jig3lvQgN/26rTz7IAlPgnOFS6f7CKbojs+3Ppu+nmoD+Ti+J9+24P+MI06Q4v/0YbX7VD9tA+OaenJvIz9wwufqhJn3+0qGAH3wb24X4xXdSGjmkvjSgo+wv53wx8Yr9QD2RIZenbXcvqA+7Ez/YgNOikk8STK2AbmB42vcyIbv7APs0vNt9m8aezXeBfofX0N3boOhjn1cvdwn6MatLfkNT+y5bQK4LdiCNjjpZtUZObgKlPGP71Cm7etsc+VLv732ta/t1jPmO/gcx54amSfp27nEf1kI6tWFDNvMN9TXi1O9cS3LYbK9ARySib4GVQZOndi49xFnbh2aCYmJO8eyUlEvhQUG6CZoi6Q3AxG2vVS5C1xW7slM0GODBEImiJqUIXNrE+Rnf2wHbTlsS7neD+joizr5Iletawm4xNu77w/9aX+bQLpPcmUjJ30BeyBr7zaBbWGFrdf/7KOfNq1osapD2TZZv/HGG2evWuaEovV/xletl36K7hXsw9ibC23h0+gXqLeeOEZ36m59nrZya1nqqP7dyoh+2KKWYTxRf2v3KbinlHqpv5Jx2iYcvfGK3PQZUB/2Jj71yuVfGOawSQ/krv5AuyRTUO0+Rq0/8YgrgK3f0V+tfxyE2DbwmTZzr3iSt9onyMpJXAW5aryjDxh7NSnnuLZvD5vI08a8fdp0DNrE7+hXxkYdn9gb27RysA+/mjuOqBPfafsVpnyHsUAbjJUK7bf5wybqfNqCXNvamrhI++1x8VU5HEy2N0DQJ1lghYnkloCYf4BIQGVgsHHpEwemHK98ZvAlQWA1ADhjTV38UrkGjTGS9KZ+Bj6rPi2sXpFg8QM0yh4UVs8Z/AR+7kGnbYIXAaQmB0yM/AME7UY39G9h4CMfKzboQF2Ua23A6glBtdodW+UeOCDwczlz6dWf9G9sWm2Afeb03xLQL6wE4gfIg1zIhz24n3EfJwH4LO3gszxpLP6PL3LlYRPIxwoq/lH7kfEzN1nL5IOe1BH7tz8eq+PwF3/xF8+U47htEkPGNQkevhaZqbOdmNCfCazn8zkJyQkCOsff6Z/qM+gXu9Qxxiv6zIX+pl3qr36KnVjl7flplT1y5YoZctFv2IE62nI52dsEMmHPTavUfN+Od2w31Q5yUAY90TlJTS8e4bfoge/tA+xTYzIyEBPSD5B7ZfEL+p+NE03GZ4UkkmNTF6/MHXUM/+AP/uBwIjfn5KMFuyBfuyF/yElW5OgRe6ef2LAr9l0a/IAxiK2IR3UhgXGCrbBztSG+io6ZM+bAWEGfds7Hd8bu/c5YwXZsOQ55eK0nTXOI/7Yy4M9jMoyRuEhdsU3b97I8JtsbYBAR9AjQDHAGD4OAy301EDJRkBDzSjkGHMGBS6KBQMXZKgOfMjg/yTEJCd9NQQCgfspyLPUw8Dju0ksvXZc6PbAYqExqyDB25opevTbb/dGfemmPtpl8ScKQJfA9ujMRRDcSnGojoG7KYQOCF3LyyvG0FbAdl8tSH3ZnwuAyWiYFoL6c9IwxpmvLVLm2f6sNEvR7tuvVN0cevqdcC/trf5MYYScCJ3JVv6uTUXsczJWD/qe/aIt+4CSLfsAegbp68tJXyMJk0/Zj2p4jBzpShjrY8Bt+sd8eR72cGOJTtZ8YE2O07eOzjDeOpY74MnatOuKzyFB9FDu1uvG5+js+1Po78YR9yFnlrmOspWc32qIe/IB68AtOClr9OY7xDJGdfVV2iH8x2ccW1B+dAse0/hXQIzoxyScm1XaoszfesUst1wNZqBOdk8xTXxu38ds2bvfkZl/tG+jZGv3p/zYmtCehyEfyTf8jE2XwpVof9dR+4xWfq3XxPeOp2n0OyM4x+EK70a/pD8ohB8kc7WcxhROD2INX9Ml4ZqMcclZ9evaCsX2pfwrKYDvKY4sW/Ad/TX+gA2WxeRiTq0Ld6NjznXrSTj3VdxhjSdQ5jrGC3akrbfba53OrPzLQP23egY5TMoS2jcSc+BfjBLnIP8bGrewXH2oji5IzaFYjavInInJcSVxrbwcREfGhNiIiIiIih4jJtoiIiIjIQphsy6Jwfxn3AXoLiYicFBLXRETmYLIti8IPNeoPGkVEjjvGNRHZBpNtEREREZGFMNkWEREREVkIk+0F4b8s+V/LPGhhLvzp/L4evCAnG/yE/3Ot/jLXf/hP4335GfXQ7hiMAb7fdizI4ZOH7xxl8F38qbdt8mm+Z8zkf6TlZNPGufYzczR/TSuyJCbbC8KkxYMOGNzbwB/zjz3BawoCyC7HyXxi46OSNPLEwTycIvDQAp72uAkewrAvf6Ee2sXfe9x9992DXz/wwAPrPVI5SmMXf+IhGEf5xCgP/+ltJNyB2FvHBvBAFnTE3mMP/ToXINdRii0nhTbO8YCYfMY/eOgNc/VR8gU5eZhsLwhP1eJJj72nXS0BkwxPhTNoLAdPV8PG2z5+dyl4oho+RiJ7FKhPnpP5HKWxy5Py8qTbowxJ1D333POQrT5hj0Qbn6zww0aensfT/o7SvySRZPPEUE5M5XDAF0i28Xn/MUuWxGR7Brk0STAkeNeVE/bxmf310lTYR1LG2XcSmLG22jJVxkAZzuh734WePnzu6TZVX+qBlGPfFLHvmC3H2HQc7ff2I19PpjG9qIPvgNfe8STjOXasburhO8rl8dI9qCNled/Tj+/wsV5b7Jtrz7H6t4XHUt90001deXpQDpvQNjK0IM+U76ev0i9z2MYuQHna5pWt9Y3U15M/1DK8ryD72NjlfSsjx/fqSRtz9aq+yDHVF3txK7au8oXU1bIPOXelyoQcVW5OalodkYtjkKunI3Vt8kX28bot1EOdyEUbvB+zW+87YD/11HKBfXxuZYa0DTV+TTFlp7QFlKO+nrzQlm3l4/tN8myKuZsY8wXq69mrR7VhBZ3iM8BnylI/dWfMsS/lYrMpneeUkaOFj2ufAQkEl5649JjEhr9+4n9W2Z99l1xyyXCWnL+E2vWRvmmPlRd46UtfOrTHgGSQJaCwslPLtIkbg5ezdcqTAPE9q1VV/vr3VdRNPXyfcpShnTe+8Y2rF73oRUM55OCeR+qLXLyi+xVXXDGUIRCwUsexXJIGvr/22muH9y3Uz/dZTaPtqt8YXP5L/cBxrPLSdlYqrr/++tULXvCCs+pC5mc/+9nDbQ+RqepV7RS9+I7+rNC3lIGqQ46lTdoOtHnNNdcMbdAe3735zW9ef3s2T3rSkwYbVL8DVr+ykk2w5dI5K3W5gjJ2XGtPZHn+858/3K/IhDVWbg74Ov1AXdTJ6iJyBuREZiaY+AjvsWlsFT9iVZWxBHzPfmyKzSjLd7SFftQB7J8j9y5+FtkZk7Sb/uU4xk9WpKPHbbfddqZ+iG1yHNQ2p8Zu+rLKF3mq79Y2gHaqn/TAby6//PIzvoj/4EcZA4lbdVzUfqIsrxBfqnJSjrFXfbM3Xuf0W0uvvRbK4NcBWaMTdmXFOzGNeJXf11Qda1/GFyFxGF9EP/TCF3v9O4f0XwU/7fXvWBu9cY8OHMf+Ok8hM/MMUDfHEItqGxxb+xjQm3GAHWo5ZJ2K/dUHKr2ywGfqf9Ob3nSmnVyR4HOYG3Orr7TzQTvfJi4BtkJXxlGdU1piQ+JfLZO5OzEeWWr8r2OOz8hS9aHdGkcpw7jFr6mXz7yyMp/+lHOPj2s/AAwiBsydd945JAMELpw++5J0tZcs9wUBgMBLW1wqpW2CUyZpBiyBCZioKZNBT0BiUFImsibAoAfwPZ8Z/JRJOZLt9tJ2AgMTEWXYCErI1JbFbpRDnqc85SnrvWdDwCXAIH/aJvBV/XpgE47hVoocR3+QhCQJ2wYCI3qhT/THhkmmqBs5ge/QiT6HBFu+59hczk6SUqEc+kXeKShbfYx+wy7ptzGQI3ZBljF7YivkTLnWr7YFe9AW9U7Vgfz42w033HBGNzYmGNqvfkQ9+E7K0QbH4nO33377sD9y039jxM+4vYtj2JjIOG7OChFy5LjYk40+Yl/kJ/EKtEmZ9GGvL6bG7hyQnfqqXrRBLNrkJ4yT+AkTdg98G7syltNPJAPbxjrqwA51vMYWWdXbJ8hL0oa/YFPk7oGN8IPWF9mP7q0vJg5ThpOVH/zBHzzji3UMTfliC3agPvodH6WeJNpTPtT6bTtP3XfffUPCVmMIMjMnVPBb/JjvU44+JiZGf/TBnuhKmZSDxMhKjf11UacHSTz1Vfthh7RD/1AGW4TE3MxrHJuYO2c8j4FfP+c5zxn6E/2wI7JMxbNtQObemKN++j8608ftXMaiGXauYxH/bvtTjh4m2zPhjDRn5gQOHJzEJ/v4TJklJg2gTQJdYCAyMOvKTQ8CZBK2KiufCbD8wA54pSwTdlYOKEewrRDECAoEuJxJU46knMDeBiT2p1zqbSFAEjR4DdF1Sj8CIkGp2oUVC+TZth+iP3pxPPBK0Mdun//854d9PZiU0fO1r33tmQkSkItjCZh1IkJGtjF7VDi+9hv9Q79tmsjxxdp3kYUJqoK8tRx+BUxsu8LkTvtMesjagwmbPmcSrf7GcW3b7E8f857JmHp5zbFMXjA1ycbPOC4gK+Nojr8gQ9pLHfRjVvSQja32Df5DG5QL6YuaOByEtNe2wdjAzlOk/9FrzB+xdXQDXrn6ic9vQ8YyfRwiZ2LENjCuWKVst23BRiQvrS8SXzb5In075oubxuhcxnyIviO2VyiTeMGcgV3beQq9Wn8nhjEn8D3wSqxBh8R0xhZ9SL9XO3HcHXfc8ZDYz/5NsT/UeQf7MSZrf6A/bSEPsTQxlzEd3SBjC5u1yf8cqJ+NE6+0jR3Rr8b2g4D9e2MOP+SkJfvQBZ2rXTl5Yasxhz5vbS9HD5PtmbAaUBmbxAgCS8CgqqT9TQE9P7YhSDK5Z+NsmWDEagCvDFaCVNsOAYbAFyhH2wTeWh+fqacN4m19Y1AuMrIyyBn8HAhM9ThWJTbZpAd65SSqwj4S0BoUWzIhc3mwhcmmN2HPpU4kkGM3+Rly136D3slgKwt9y76D+jETLXVMrbikbXwxfdebNMbsNbZ/Co5p/SyT9yZqexl/rV/UuJCJGzJOssG2J4RjMHkjx4033jjolBOOKZ8Nc8rgg/QLkz+yo9Oc41oyvrgqwUnfNnL2oD4SjXbbhfTtYfriHKZ8KHG70toy47ml9XfKtbEm80Ha4ISkN0ewj3Zbf96mX3sy9o6P3Impvf4m5sZm24Ic6EPcygo5J1O7+miPsbpyYlJBnl5syvzLODp16vTVVjnamGyfcBJ0ONNvt5oYjK1A9oIgg79XX6/sHJCRRIFkkHoI7jlzn4LjWCGox8EugXFM/23otYtNdg38B+Hiiy9ev/s69HcbuJG5Tcr3AW1xiZSVt3b1LTChXX311cOkRhlk29WH5tDzlzl+dlBI4DJGsiHLviZwbM1qF0kCEy+rrKzwtlcxdoVVxZw8sfJG3dwDu61fIyfyISf9jZz0/65yUg8nwu22C/jgYfritoz50L5knPJFYiOJPa9j7fViy2GwRMzF1/EtEvr4KCdf2OBcw4ngddddN5ywcmUHPduFQDmamGyfcAiCwGSce7zqxqU6kq2xANWuyhLcqLNXFxsT87bkdoPch0aShlybYJJG5uiW46LzFL2kc9cAnfZ6x7OPFbjDpnfbC7LMsc2+YMJismKiYjW5TlasypB45X5L+pBJbskEBz/DBvHV+MsSJxsVLpGnzbqh+77AbtgvdXN5nYQsq8cHhRVE5OVKGK+MHyb8KXrJVysntwwgZ7tCe5jgiyTYh+mLc0kyubQPMS56Cw70ITIwRkjqxq7GHHZsWTLmxkfxA/yBGEFii59uyz5PQNArv1HifvL4KVe25Ohjsn3IkHQsTQ2aGYhMKBXKcJacYMXkzPt20mvvN+aHagSQthzHUl8vYG+CY5GzTm5tkt+De8RJ6OrlN+qKTpVW3txGE7hHr6cX5VgNnQqaBHYmJE4Wap05gehdHlyaVj8goaj3y84FPXbpV2ClEdvkB4CBPqK/6b8K90YuBW3SXvWznq/si+iX30VUGI9zbiOhjrZc27eMFcZp4BiSYxKkfcSbemsK5CSqjlH6mLFT5ULOSk/O3P9c6z+MGFkZ88U2FhwWdayRVB7Uh+bS6kv9yBK7EKNprx0zlKPfd4ktu1JjbuWgMRfdWMRJH9AGC0hcAeO7NqYGynFM7TvK77N/Mi64qkR74Vz5qWyHyfYhQlAiINUJZ5/kkjhn4JnoCNZMjOyjXSY8JjbuVWVfggcBlQmaxJIVQAIO72vwgEy0rGqhT+rj86lTp3Z6QiA2QV42AgqvrIZugnukCazIwXGRowYiQC8CEnpRltc2QKEXW8qgF0kGn5mIU2dWTJCPcoGkAfti02pjIOFcevW0hUDPJX/kiCzs2+UyO8Gd23x2WaXB/1h9aVfa+S1AJrbYC1sv+YRJ/KD1F3x5bALdB9ibkxx0oz105fYZ+ob3IWOXk5KapCIzn+OXvLYJBhM6/lhtSRvcSrSPH3Wxgoq8PJU045OxXlfUGMOMKcohJ+23Y4xYgn6RM7aA/DiaY6mLMpvgeMq3W7Ur45WTcuobS0qwUcrEfoyXfa5KzoEYw0YcQY/E3ikf2tcDcBin6B/7EfvwKfyvJtskscwLidUplx8wHiaJuW2/5btdYm7sj62pEx2xNa/YYaxOFqHoL2IlNqxzx77ICQZjKLKhe40Xgbb5To4OJtszYMBceuml60+nYV8uZQU+18HVfs5ATeI2Rlt3ry1o9xMMCMwMdpLOTBZcgiQYEkQIBiQYwIRZ71klKWIjCWJiYhLqXWZPfSSWqQ+d+Jz6Wt2nQGZkJ0Ay0RIoErxbu1c4jvaZdDgOnZm0CUrVLpRDRiYsyqIfelXdgV+3Uw9lqBd9qA99YwPqxUYEO8pl5QJ52U8b1cZc5q12GOvLHmP61/p6duYz+tEnyMFGMjFXlnZ//HXKb3tyhPRt/T6+Wu1FHdi7ts37+hnG2mLflL/QR+nf+Atbq2/LNu1xqb3WhZ74FeMJHdEVnfEpEpkwNnaRmXIcQ1LDfvys+i7ft7Zk4uc2mdbHK62sodWXyR35Yj/GJ5+RI7RjjHHBvloPx1BX5GTjSgZyphzyMtam+hEoTxuM0XarSTUJIskh+5E71L5DLvwzcmF/5DioL24LdWGfeqIMyDfmQzlJgapT6PVxT2bGNm1jJ+rnPbarsQ+QA3mwEb5AeW5rqPPEmE16bGM/9lVdpmJu9fv2uKnPvCa+Uyc69mzdEt8G+o6/C8Qm7J9qO7Cvt3+TbPhEO84AmXv1ybnDh9qcZ2S1ZCpxqjCwmcwJqnUlKzAxMKjn1jcFspFMtIFjE7seNwV67VrftjZekqMkyxj79KE5LOEvcziMvli6jYOMi8pR9cvD9sVtWcJurICSnHEFA+baYF++sA+WsAt1nos4MYepPkoyfurU+EPkZFl8qI0Mg7M3QAkq/MsAq98VLlFxmX3sHjgC0b4CHPXsEth2PW6Kg9Q3ZuNzwVGSZYx9+tAcaGvf/jKHw+iLpdvYl90Owxa7cNi+uC2HYbe5NjgXY2iMJexCfUdJx8pUH3F7Cd+zqi5HB5NtGeAsmctSXKrmrJhLr/zlESvaXEKbuhwtIiIi5x5uGexdhZZzi7eRyFlwCYr7wFjpJgHnPrV9rxiIiMjRgJhPgsZii4gcnN5tJCbbIiIiIiJ7wHu2RUREREQOEZNtEREREZGFMNk+AfA3QPlPVuAePH7omL9DEhEREZFzg8n2CYAHYfBH+oG/72OrCfgcSNKpS0RERET2g8n2CYQnSvEEq23//of/1K5Ju4iIiIgcDJPtGfAn8bklg9VfVoynbtGgPGUo28JxfJ/3lNt2BTrH9eqHqad/RX5uPalUHXkfGaF+F6oeUD9HvtoG+9L2HGpdveM21RUZ2Hg/RmuPVtf6OWW3qU9ERETOb/zrvxnw9MRXvepVwyNtk0TxhCYe9lL/m5TvfvRHf3T4n+rAU5ze/OY3n3kSFYnYy1/+8tVb3/rW1Y/8yI+cSdz4nserbnp4zBvf+MahXKAuEuv6uN3cVvLRj350dcEFFwz7SALRoSaBHEs5yvD0yPod8qQ+9KfdF73oRcNnQI+XvexlQxnKRi/q4/G/0evVr3718MhY2ua/u4Hyt9122+T/d9Pmm970pqGuyPXkJz95eMgO7SQZp65bbrnlrCdctjaC17/+9cNxoddXlOH2Gx5Pz9UBoH+vueaaoXwtS59SLuSqQHQErixQzv8pFxEROT/wr/8OAMksidM999wzJJgkUCRrFZJPkjISScpxKwefSTR55HmFJJIkMeVI0kjW2nIVjiGJJMm/8847BzlYxUa2KSIDCSnH0Sa6kJSTvAJ1kRhDdNwFZIn+JKzUz481eWUfJxk8QOEd73jH+ohxSHxjcxJhThhIcKmvykhyHag3NqIMG/3S/mCUJ2RiF8qmLtpjXws60W7KYcdaH32H7UiuY1/6lBOQOXqKiIjIycVkeyasULMBq6kkVyRZSc5IXFltJXnLKisrsSSLJIl1VRRIRFMf5UjmWImeIkkfiSLJfpVjiiR8P/3TP31mlZV6SEhJGKcS/G3hhAG5gCQXaIvVbSAhxT69pLaF42IjVqU5ru0HytS6XvGKV6ze9a53nWkbskr9oQ99aHjNbR6snEcu6qKvetAGG1AOu2Fz+hU44fm1X/u14YQg9qVPkXNTn4qIiMjJxmR7JtxKUCHBgiR6JF4kWEk0AwkX+0jGalKbhDxw7FTSTDtsJH25NSQkERyDhI/6kwgGjiNBbOs7CFX/2KhtN/s30Tuu3dcDm3Piw60dnGiwCl3hxIe6krQHPvfqR6dqo7aPIfvwA068uAqB3TedCImIiMjJxmR7T7BCPJYIkogdNOmaOn5T8kqS3ksQTyLoyso/91qTZHM1oGefsb6aeyLQwq0s11133dA2t8yQdJ8vNhcREZFxTLb3BMlbVrlbkngdZAU5SWC97zjkdoYx9pHsHxduuummoR+4Z5r7q7l/nNX7SvqqZ8td7MRK9qlTp4b70XMvPffjm2yLiIiIyfaeuOGGG4Yf/rX3ZnN/MElde8vCtpC4kSRya0S9HYW6N90XTNvcxtIml9zqwI88N92zTbv86K+W2/SjzHMFSTS3x3DbTKAPKvQV8IPICrec9BLwTdAm/dP2cesLsEv9IiIicnwx2d4TJFps/ECQ5I57hnnlc747KPzQjyQ3tymw8feBm+DHhSTM3OIQ2Ui0qecpT3nKmRX3JKjt0ye5JYN9/KCQZJ9bJnqJ5FEAHbDR3XfffaYP2nu2SYzzTymcbOS+bland1mNpk1OtDieNtmwUbtKzr6rr776LNuKiIjIycZke4+QjJJU808YJKi88kNIbinYx48QSZqTcD//+c8fNpLlTT+Q5BYU/qGDlenIRvLMv2rUf+3gn0L4TOKZvwEE2swx/IUgK+mcRBxF8o8i2ASZkRc9W9CPsqxKkySTGGOjXcBu1IfdaJON/mZ/JbcC7XpfuIiIiBw/fKjNAnCrAMkbSRUryktAkrhL/XNky60O7fdj+48i2Ae2Xalm5TknNdtyGP0uIiIiRxcfanNIkGjlHuul2LX+ObLxXe/7sf1HEXScSrS5pYZbaSq5Z5urBbuAbZbudxERETlemGzLeQkPs+GebW7F4b5tkm9uA3rhC1843AYiIiIisg9MtuW8hHus+Yu+JNbca8892yTcIiIiIvvCe7ZFRERERPaA92yLiIiIiBwiJtsiIiIiIgthsi0iIiIishAm2yIiIiIiC2GyLSIiIiKyECbbIiIiIiILYbItIiIiIrIQJtsiIiIiIgthsi0iIiIishAm2yIiIiIiC2GyLSIiIiKyECbbIiIiIiILYbItIiIiIrIQJtsiIiIiIgthsi0iIiIishAm2yIiIiIiC2GyLSIiIiKyECbbIiIiIiILYbItIiIiIrIQJtsiIiIiIgthsi0iIiIishAm2yIiIiIiC2GyLSIiIiKyECbbIiIiIiILYbItIiIiIrIQJtsiIiIiIgthsi0iIiIishAm2yIiIiIiC2GyLSIiIiKyECbbIiIiIiILYbItIiIiIrIQJtsiIiIiIgthsi0iIiIishAm2yIiIiIiC2GyLSIiIiKyECbbIiIiIiILYbItIiIiIrIQJtsiIiIiIgthsi0iIiIishAm2yIiIiIiC2GyLSIiIiKyECbbIiIiIiILYbItIiIiIrIQJtsiIiIiIgthsi0iIiIishAm2yIiIiIiC2GyLSIiIiKyECbbIiIiIiILYbItIiIiIrIQJtsiIiIiIgthsi0iIiIishAm2yIiIiIiC2GyLSIiIiKyECbbIiIiIiILYbItIiIiIrIQJtsiIiIiIgthsi0iIiIishAm2yIiIiIiC2GyLSIiIiKyECbbIiIiIiILYbItIiIiIrIQJtsiIiIiIgthsi0iIiIishAm2yIiIiIiC2GyLSIiIiKyECbbIiIiIiILYbItIiIiIrIQJtsiIiIiIgthsi0iIiIishAm2yIiIiIiC2GyLSIiIiKyECbbIiIiIiILYbItIiIiIrIQJtsiIiIiIgthsi0iIiIishAm2yIiIiIiC2GyLSIiIiKyECbbIiIiIiILYbItIiIiIrIQJtsiIiIiIgthsi0iIiIishAm2yIiIiIiC2GyLSIiIiKyECbbIiIiIiILYbItIiIiIrIQJtsiIiIiIgthsi0iIiIishAm2yIiIiIiC2GyLSIiIiKyECbbIiIiIiILYbItIiIiIrIQJtsiIiIiIgthsi0iIiIishAm2yIiIiIiC3HBlVde+eD6/cDFF1+8esELXrD+JCIiIiIic/jgBz+4+tSnPrX+dJqHJNsiIiIiIrIfvI1ERERERGQhTLZFRERERBbCZFtEREREZCFMtkVEREREFsJkW0RERERkIUy2RUREREQWwmRbRERERGQRVqv/HyhBExriVwkjAAAAAElFTkSuQmCC;" vertex="1" parent="5fLJpmokJjt_ChBzvtPg-58">
          <mxGeometry x="27.53" y="40" width="504.93" height="440" as="geometry" />
        </mxCell>
        <mxCell id="5fLJpmokJjt_ChBzvtPg-60" value="About Page" style="swimlane;whiteSpace=wrap;html=1;fillColor=#008a00;fontColor=#ffffff;strokeColor=#005700;" vertex="1" parent="1">
          <mxGeometry x="1700" y="710" width="480" height="700" as="geometry" />
        </mxCell>
        <mxCell id="5fLJpmokJjt_ChBzvtPg-61" value="" style="shape=image;verticalLabelPosition=bottom;labelBackgroundColor=default;verticalAlign=top;aspect=fixed;imageAspect=0;image=data:image/png,iVBORw0KGgoAAAANSUhEUgAAAnoAAAOoCAYAAABGK1mcAAAAAXNSR0IArs4c6QAAAARnQU1BAACxjwv8YQUAAAAJcEhZcwAADsMAAA7DAcdvqGQAAH0tSURBVHhe7d17tB1lnef/J4ZcOIEk3BIM4YAuQAUVnBbSHXu8dKuj4Dg23e0sB0fjWtJridqX1dPipSdiO16w0zOOUfwDZom02hNUFGcitqgQ1pLmtlaMDngJv5ZgQBCEBBIuISQ/35V6jnUqe59z9j67alc9+/1aa+fs2ufsS/ZT9a1PPfVU1Zzx8fH9QZIkScl5Rv5TkiRJiTHoSZIkJcqgJ0mSlCiDniRJUqI6HozxyJ9e9pt/5xyYkCRJUqMc8qsfh7FN6/Kp7joGvR1rrg77Fq/IpyRJktQkC7dsmH3Qu/AFj9uvJ0mS1BA/enhu2Lh9/mCC3vpVu8LqZXvzRyVJkjRMazeP9RT0PBhDkiQpUQY9SZKkRBn0JEmSEmXQkyRJSpRBT5IkKVEGPUmSpEQZ9CRJkhJl0JMkSUqUQU+SJClRBj1JkqREGfQkSZISZdCTJElKlEFPkiQpUQY9SZKkRBn0JEmSEmXQkyRJSpRBT5IkKVEGPUmSpEQZ9CRJkhJl0JMkSUqUQU+SJClRBj1JkqREGfQkSZISZdCTJElKlEFPkiQpUQY9SZKkRBn0JEmSEmXQkyRJSpRBT5IkKVEGPUmSpEQZ9CRJkhJl0JMkSUqUQU+SJClRBj1JjfDoo4+Gm2++Obvdc889+aO/tX379uxvuvnxj38crrrqqnzqwOsV/36650tSigx6kobuIx/5SHjxi18c3vnOd2a3P/iDPwgf/ehH898e8Na3vjVce+21+dTBPv/5z4f3ve99WeADr8kt+sM//MMpn98PAul3vvOdfEqSmsegJ2moCGPf/e53wxVXXBFuu+227PaZz3wm651bv359/lfTe/e73x2+/vWvh+c973n5I9Wj95FAun///vwRSWoWg56kobrlllvCH/3RH4VVq1blj4Twyle+MgtunXbhFtF795Of/CS7v3jx4vDII49k92eKoEagpFeu03uxq5ff8Tf8bRF/H9+b38X7ktQkBj1JQ0VAIzSVe8XYVfvxj388nzoYvX3/+T//53D44Ydn0+yWZdftTHvX3vve92a7ib/2ta9lvXK8VjGs8Zne8IY3ZH/H37zlLW/JpuM4Px6L4wljD6QkNY1BT9JQEejY5fqud70rC0udetbKCHmMyfvHf/zHcNxxx+WPzhwBjffkxmt873vfC+eee+6ksEawO+uss8Ktt9468Tf0GF5++eXZ7/m8fHben93O73//+7PHJalJDHqShordtIzRo2eOnjUOxKB3rVsPWTHk9Tser9MuXoJbDGuxp44evzlz5mSPEegIf4Q6SWoLg56koSNEsZuWAzFiLx27YQl0RYSsT3/601nv22wOumA84HOf+9zsSFxCJeGx2JPI2D+CJ5+B38cbPYC9jgOUpGEy6ElqFHaXEvroYSPUFRGy2F1KAOQgjn4xLjDutiUw8lr0JJaDJQeJECrjbbpxg5LUNAY9SUNDcKOnrFNoo0et3HsWd68SwDhIYibj+aZCqOT1CHzslo3B8tRTT80OumC3Mu9VvklSWxj0JA1NPOKWsXlcuSJi1ym7abuFKsIZQZAxdP3ggAp68IrvSbCLB3YQALlP8ItH8fL7Cy64IAumRXz+2QZOSaqKQU/SUNGbRohivBynLyGA8ZOgxbn0OiEgXnLJJVlQK19BYybYDctBFvTiEdx4T86X97GPfSz/iwPjATlI5Mwzz8z+5hWveEV2+pXirlt6/FauXJl99n5DpyRVac74+PhBJ53asebqsG/xirB+1a6wetne/FFJqg67b2PPGCGPXrUifs94unjePMTeNP6Wn+zqjQdp0CtIIIy9dJ2eX3xPQlvxdxEBkCDK7ziIo9vf8F7lzyxJg7Z281jYuH1+WLhlQxjbtC5/tDuDniRJUkv0GvTcdStJkpQog54kSVKiDHqSJEmJMuhJkiQlyqAnSZKUKI+6lTQ0nAKFU5NMhXPexVOkzBbvxfnzOO8dp1Xh3HeclJlLm0lSG3jUraTW4Px08Vx43LjW7Ne+9rVJj/E3g0LQu/baa7OrXcTz4XH+O0lKlT16khqDK1WsWLFi0tUnBonr44IrYNCzJ0ltY4+epOTQq7d+/frsUmRcHo3ARm9fGX/D7/k77t98880HXZu2iNeJu47Zjczf8rpcVo3LojHN1TPKeA67fXkvfnb6LJLUBAY9SY1H4GKXLpcpYzwdlzojZBV3637kIx/Jdv0y5o5xfQQ3eu46BbXo1ltvzV4L/ORvL7jggmx3LtfZZfduOcgRIAmIXE6Nz8LfEAqneh9JGhaDnqRGI4ARqP7xH/8x+0mQY9cu4+wYbwd67q644orw9a9/feJvLrnkko7XpZ3OmjVrwrve9a6J90Hs9SPwffrTnw4f+MAHJv0NPwmAktQ0Bj1JjUbvGkGKI2/pwaOnrtx7xjQ9bOWjczm6tldnnXVWfu/Ae/O6sdfvjjvuyB4788wzw/bt2yduPMcePUlNZNCT1HiXX355tnv0xS9+cbYbl120RfS0deq9G/QRtT/5yU+y0EeALN7e97735X8hSc1i0JPUaOyWZawd4/Nuu+227MZu3GKIoyev0wERsSduUHgfbj/96U873iSpaQx6khqNAEe4otcs9trxWDHYrVq1Kpsu7z5l3N4gdXsfpgmkktQ0Bj1JjbZy5cosXHEQBOPzCFQcCVvcVcsYOcbxcYAER8TG06yUx+zNFq/Huf54j6uuuir7PPxk+rvf/W7+V5LUHAY9SY3ByZLL4+oIcRzZyulV4nnrCFscJLFkyZL8r0L2N+9///uz3bUEQ06PQvgr4rXLu3zja/B4p2BY/kwcccvpWwiefB7Oucc07y1JTeOVMSQlgSNyywdkcBDHZz7zmex8eZKUAq+MIWnk0Iv3ile8IttlG0+iHM+t188pViQpFQY9Sa3HrtW4e5dTsDznOc/Jdu+yK5ZdrZI0qgx6kpLA6Ve+973vZVfH4BZPw9LP1TEkKRUGPUlJ4SANbgY8STLoSZIkJcugJ0mSlCiDniRJUqIMepIkSYky6EmSJCXKoCdJkpQog54kSVKiDHqSJEmJmjM+Pr4/vz9hx5qrw77FK8L6VbvC6mV780dV9Nhjj4Xdu3fnU6rS/Pnzw5IlS/Kp4XvqqafCjh078ilVae7cueHII4/Mp4bv6aefDg899FA+paodddRR4RnPaE5/BG3PPKDqLV26NMybNy+fUtHazWNh4/b5YeGWDWFs07r80e4Men164IEHwoMPPphPqUpjY2PhhBNOyKeGj4B/991351OqEoX+pJNOyqeGj5B/55135lOqGm3fpJU9bc88oOpR86n9OlivQc9dt5IkSYky6EmSJCXKoCdJkpQog54kSVKiDHqSJEmJMuhJkiQlyqAnSZKUKIOeJElSogx6kiRJiTLoSZIkJcqgJ0mSlCiDniRJUqLmjI+P78/vT9ix5uqwb/GKsH7VrrB62d78URU98MAD4cEHH8yn6rN169Zw8803h4ceeih/pD6HHnpoeOELXxhWrVqVP1IPLmzNBa6bYvfu3eHuu+/Op+pD2//whz8M99xzT/5IfYbV9lzQngvbNwUXtOfC9nX79a9/nS33tP3jjz+eP1of2p12OOqoo/JH6sF7Mg80BW3PPFCnxx57LFx//fVDa/vjjjsuvPzlL6+97an51H4dbO3msbBx+/ywcMuGMLZpXf5odwa9PtUd9FjYL7vssqGsZMqOPPLI8O53v7u2Bd+gF8JXv/rVsGnTpnxqeOpue4NeCNddd1342te+lk8ND21/7rnnZoG/LqMe9G666aas7YcR8Mpe85rXhLPPPjufqp5Br7teg567blti/fr1jQh5oDeRz9OE4jMKmhLyQNt/4hOfyHqYVL1vfvObjQh5oO3Z2KRnWdWj9/5LX/pSY+rst771raxnUe1j0GuBuMumSSj6LvTVY6XalJAXseL54he/mE+pKoRpVq5NY9vX46qrrsrvNcc111zjBn4Lueu2T3Xuur344osnBT3Gy7z2ta/Np+rBwk3gLIY7xm19/OMfD3PmzMkfqcYo77r9whe+EG655ZZ86sB4mT/+4z/OdqPVhband4EiX0TbV71rZZR33bKsFVf2tPmb3/zmWtsebGzwOYoreHbfn3zyyflUdUZ11y3fOXtNImrteeedF1auXJk/Ug826KlB/IzYfc+Yvaq567a7Xnfdzl2yZMlF+f0JT5zxprB/weHh7JV7wvGL9uWPqogxc9zqcOWVV+b3Dizwf/VXf5UtANyv67Z48eLwvOc9L1v57N17IPzzkwW+6kLM6y9dujSfGj4K/c6dO/OpahGuHn300XwqhHe84x3hxBNP7NhGVd1oe1bqrHyKBf/UU0+tPHTMnTu39mAzlX379k36Dqr0/e9/f9IGXhwf16mNqrwRLpgH77rrrvyThOwx5sOq0fbMA01B2zMPVI2Nu+IGxe/8zu+EV73qVR3bp8ob3z8/f/SjH+WfJGT1oI5xmtT8JoX8Jrnuvnlh6yNzwyH33x7mbbsxf7Q7d922DAvdMNGjVGQ3frXK3+8w27/uo+402TC///J853Jfr2H2ajdpQ0v9MehJkiQlyqCXEI7Q+9SnPhUuvPDCbFwfYys8OnI0MH4ytj032350sEu92PbcZ35Q+ljGWdYvuugi215dGfQSwQLOEXqM62C3CmN7GOfBgN7t27fnf6UUEfA5EjK2PTfa/kMf+pBFP3G0fTz1Umx77jM/8DuliwOkONURyzpjB4ttT/iTIoNeAjjPGgt4JxQAzn1FEVB6CHJTnYKDoyXt2UvTdKdf4Xf09ik9tH35SOgiwp+nv1Jk0EsAC/VUCHts/Sk90xVzVgRNOw+fBqN8uptOZvI3ah827Kc7+tu2V2TQazl2yxa36jhCivF55fMcNe2EyxqMYrtyZCRjdTjHWdF0KwS1U3mZZowW7V9k26epvAeHU+/Q9sWjo1kv2P6CQa/lyieUZOGmW3///oPOgz0jdZ0bUNWg/cpjMrvt3ilzF2+70e79tqHLfbvR7rRh+TQ4Mzkdk22fPoNey8UTWkas1BmgW95dN915mCgUbBG+973vzQbyzjQcaLiK7Rrbvnxt1Be84AX5vc4o9BzMw8EbzAMGvnYoX5mCQfjFqylgJldSYHlnubft26N8PlPqPct+sQevvG7ohAN2Ytt74Fa6DHoJmO5yaCzwU53JnOLOCiIWCcb8seI37DXfbNuekBeP2gTzANOu8JuP4RnTrcjZpTcVQl4c42vbtweXwWTZnsp0tYGQFw/moe3ZUDDspcmglwAKfrdrD1IM/vzP/zyfOlg55EWM/zHsNR+9Ot0KOiHg/PPP77pCiCGvPNbLFX470K4EuW5hj99NFQaKIS+y7duBNn/729/etX2pCYTBboohr8iwlyaDXiIo6lz0mt4bdtfwk4WdAdrdikG3kBcZ9tqBdmbXC4WdtucWHyvv4om6hbzIFX470OYs4/wk9NP2bPTxWLeNP3QKeZFt3w60NRvxLOu0PZfIYz6Ij3XTLeRFhr30GPQSwkLOVt573vOe7CcLe7et/W4hr/z3hr12IMwT9Gl7blO1fbeQx4qjyBV+O8S252hr2p6Nvm4BH51CXnlj0LZvB9qNZZ22/+AHP5jNB1ONx+4U8niNcq0w7KXFoDeCuoU8CkanXiDDXjq6hTw2EmJALHKFn5ZOIY/lnR5A2z5t3UIePYAERcNeugx6I2aqkMeNhZ0F37CXnqlCHj0BiPNBkSv8NHQLeSzvLPe2fbqmCnn8pDffsJcug94ImS7kRVOFvXJIUDvMJORF3Vb43S6zp+abLuRF3dq+23g+Nd90IS/qFvZs+/Yz6I2ImYa8qFvYU/v0EvKibvOF2memIS+y7dMx05AXdQt7ajeD3gjoNeRFhr326yfkRa7w26/XkBfZ9u3Xa8iLDHvpMeglrt+QFxn22ms2IS9yhd9e/Ya8yLZvr35DXmTYS4tBL2GzDXmRYa99BhHyIlf47TPbkBfZ9u0z25AXGfbSYdBL1KBCXhTDXi+FQsMxyJAXMc9MdSk1NcegQl5E2zPvqPkGFfIiwl6/NUPNYdBL0KBDXsRKwqDXbFWEvMgt++YbdMiLXO6bb9AhL3K5bz+DXmKqCnlqvipDnpqvqpCn5qsq5CkNBr2EGPJGlyFvtBnyRpchT9Mx6CXCkDe6DHmjzZA3ugx5mgmDXgIMeaPLkDfaDHmjy5CnmTLotZwhb3QZ8kabIW90GfLUC4NeixnyRpchb7QZ8kaXIU+9Mui1QLFwE+q4uPwwQh7vWb6wvYWlWuXv90c/+tFQQh7vuXXr1nzqgIULF+b3VIVyYNuyZUv2cxgh74c//GF+7wDeT9UpL/c333xz9nMYIS++d+SGRPvMGR8f35/fn7BjzdVh3+IVYf2qXWH1sr35oyp64IEHwoMPPphPVevSSy/NVvBRXNAef/zx7GfE4y94wQvyqcHjMxTf8+STT87OnF61sbGxcMIJJ+RTw7d79+5w991351PVuuaaa7JbEQW9HPBx1lln5fcGj4BffE8+wwc/+MEwZ86c/JFqzJs3L5x00kn51PA99dRTB23sVIVgTaAvImCVAz5Y7qtaAceNy6KLLrqosmBRRNszDzQF3wPzQNX4zvmOi7ot93xHVbVFp7YnVNaxTFLzqf062NrNY2Hj9vlh4ZYNYWzTuvzR7gx6faoz6HUq+E1w/vnnVxoso1EOegRrCn451A8bPYf0IFZtlIMeLr744o7BbpjqHB4wqkEP5Q38JiBQlgNoVQx63fUa9Nx12wL0nJ177rn5VDOwe7iOkDfq6KV5+9vf3qjdJazo6wh5OrAxVUfP2UzRo9i0WpSqN7/5zY1qez4LvXlqH4NeS7z85S/PtqKHveATOPgcHuxRH4L+hRdemP0cJtqelXxdvTn67cp12MGatmeZr3IcoCbje2a5b8JGFbWnynGAqpa7bvtU567bMnblMHai7t15bM0PYxD2KO+6LaPdaf9htD1Fvu6V/Kjvui2i7eOtTrQ5bTCMgDfKu26LWN5j3a/TMNveXbfdOUavJsMMeqPGoDe6DHqjzaA3ugx63TlGT5IkSRmDniRJUqIMepIkSYky6EmSJCXKoCdJkpQog17LcQTYz372s3DrrbeGH/zgB+Guu+7Kf/Nbt99+e9ixY0c+dTCef/31108cTcZr3Hvvvdl98Hyudarm4ZQLtDvtT7uV24nHOEK8G9qZto/P42+L8xDzxlTP1/D86le/mmh72qnc9swbnepBxNHj3//+9ydqAz9Z1iOeX6wDao5i23eqz7Rl+drURdR62j7+DfMCrxPXASzzUz1f7WLQazEWzm9/+9vhjjvumJhmYeXC18UFn99PFfS4Xmnx71k5UOQjns9rqzloj2uvvTYr9BTnPXv2ZG1PaCu2NW3JSqEbnsff8xP8bTEcUOyner6G45Zbbgk33njjRFvTThs3bgzbtm3LpjFd0GOZZ4UeX+Phhx+eqCXg+cU6oGZgOd+0adNEu9GGtD2PR7TldEGN58e6Tz2h7WPQY5k36KXDoNdirOQXLVoUzjnnnHDmmWeGl7zkJdkVNPbv359t4c8UZz0/++yzG3W+Kk0tbn2/+tWvnmh75gPOO8WW/kydeOKJ4Q1veENYunRp/oiajvBGoKPtWd5pf9qe5Xjz5s0TK+vpHHPMMVnbMw+oHQhnBLIzzjhjou35yTSPl3v2uqHWM8+cfvrp+SNKmUGvxdgKo0gXAxrB76yzzgrLli3LHzkYKwJCYtxiY/dML+FAw0dBZ0VdPqEohX+6FTchMW79s+XPvKD2YGXfqe1PO+20bIU/FTYAY9vHOjDTcKDhY3lF+XKITLPsT4UNhGJ7U/MdljEaDHotRqgjrJULNSuBFStW5FOTUdzj7r0YCCgejsVpF3rgKNLltmeemCroscuP3qBnPetZ2TTzw1S799Q8BDyWX25FbPCVN/yKCHj0+sTLGLK7nrZ3WEZ7HHbYYdnPTrtVaftuV5KIIY8OgPg37Ja37UeDQa/F2IKjWBPcWIhZmKfaOo8hD3T3u6u2vei9YRc9Y3MYVD1d24OQx2X7aPtuKwQ13ymnnJKt1BmjyfJML1059JUR8ggHtL276duLjXiWfXrjaH/adboxtDHksaenSZeSVH0Mei0Wx+edeuqpWeBj4WfFz09CXZEhLy20H22/evXq7D4Fn7bvtiuOecKQl444Rou2JMCx0ufWqe0NeWmh3jOmmtDHnhgOzOAAvE57ZQx5gkEvAWzdMxifgdX08tElT3EvYppueoqDIS8d7IajiBP6WJGzdU/PXREreW60uyEvHSzLse1f9apXZW3LxlxxI4/d++yunT9/fnZTGtjIJ+zT7oS+o48+etKpchA3/lnulyxZkj+qUWTQSwyhj4G5bMkVEQgIg3Glr/Sw4qf4l8fusVJghUDQp/ArPfTUEfpo4+LKPrY9u/nLGwBKA21M2xP0iwdXEPjZ+KMucCqe8l4ejQ6DXktR0L/85S9PWrAjCn15652FPQYBVvadnqf2+PrXv35Qry1iMS/22nJgDkHAoJ8GdtHSe1MWz4VYxMqftmeFT10w6LcbYZ32L2N9wLJfXO4JgHEDgKDfaZ7RaDDotRQLMcEtHoTBgs6NlT9HVdKz1wm9fYzV6DaWS+1A+xLYaHtW4LQ9g/JZkfO7TrvnmV8YyM08Uuz1UbvQvozHiu1I2zNcg922sS6U8TjDOphniidVVrtwtDxtTv1mmAZtz0967Ni473RaLWqBQX+0GfRajB4axmaw0DMYlxuFnF47BuxGbNUXV/wvetGLsum40HO/OHar/PfF36kZaGOOvmRlzxY+bc9YLB7jd1G5LZkv6OGj7ekBYOVQbF/+tvj3BITitIYvnjONkB/bnhoQe+4i2rbYdgzfIOgXL5dWbPvyvFB+voaPEM8BWIS2eBAGP2kn2j62X7ktWY6pC2wQxIM2ist2pzpQnFa7zRkfH9+f35+wY83VYd/iFWH9ql1h9bK9+aMqYtcnRzE2RafCnQr+T006Yoyt6LvvvjufGr6U254VzkknnZRPDR/h+M4778ynho/Pwy3VlTJt36SwSdvzfTdBbHu+nyZ9R4NCzTdsdrZ281jYuH1+WLhlQxjbtC5/tDt79BLBAuFCMZps+9Flz8voim2fYsjTYBn0JEmSEmXQkyRJSpRj9CRJklrCMXqSJEnKGPQkSZISZdCTJElKlEFPkiQpUQY9SZKkRBn0JEmSEmXQkyRJSpRBT5IkKVEGPUmSpEQZ9CRJkhJl0JMkSUqUQU+SJClRBj1JkqREGfQkSZISZdCTJElKlEFPkiQpUQY9SZKkRBn0JEmSEmXQkyRJSpRBT5IkKVEGPUmSpEQZ9CRJkhJl0JMkSUqUQU+SJClRBj1JkqREGfQkSZISNWd8fHx/fn/CjjVXh32LV4T1q3aF1cv25o+qaMeOHWHnzp35lKq0cOHCsHz58nxq+J544olw//3351Oq0ty5c8PKlSvzqeF7+umnw/bt2/MpVW3FihVh3rx5+dTw3XvvveGpp57Kp1SlY489NixYsCCfUtHazWNh4/b5YeGWDWFs07r80e4Men164IEHwoMPPphPqUpjY2PhhBNOyKeGb/fu3eHuu+/Op1QlVvInnXRSPjV8rOTvvPPOfEpVo+2bFPRoe4NePaj51H4drNeg565bSZKkRBn0JEmSEmXQkyRJSpRBT5IkKVEGPUmSpEQZ9CRJkhJl0JMkSUqUQU+SJClRBj1JkqREGfQkSZISZdCTJElKlNe67dOwr3X72GOPhccffzyfqt6hhx46tOsOeq3byUap7b3W7cF+/etf5/eqN8y2h9e6nazOtsdRRx2V36uf17rtrtdr3Rr0+jSMoMcK/vrrrw+bNm2qdUUfUfRf8IIXhNe+9rW1FgCD3m/b/pZbbgkPPfRQ/mh9htX2Br0Dbr755uw2rJBJG6xatSq71cmgF8LWrVvDNddcM7S2P+6448LLX/7y2tveoNddr0Fv7pIlSy7K70944ow3hf0LDg9nr9wTjl+0L39URax4udVl+/btYf369eFHP/pR2Lt3OOGb973nnnuysPG85z0vLF68OP9NtSj0S5cuzaeGj0K/c+fOfKp6bMX/j//xP7K2H0bAR2x7NjL2798fTj755Pw31Zo7d2448sgj86nh27dvX61Bmxrz2c9+NvvehxHwI96b+a/OtgdtzzzQFHwPzAN1+eY3vxm+9KUvDbXtH3300aztWQedeuqptQVvan6TQn6TXHffvLD1kbnhkPtvD/O23Zg/2p1j9FqAFf1ll1021IW9iLBB6Kx7N8Ko4rtuStvjW9/6VtbLoOpdddVVQ+vJ6YS2p2dZ1SPk8X03BWGPz6T2cddtn+rcdfuFL3wh60UrGsbYiXKwozv/3HPPzaeqM8q7btld98UvfjGfOmAY46bKbc8utT//8z/Pp6ozyrtu+c4/9KEP5VMHNKHt+QwXXXRR9rNqo7rrtiltT49yeS/Cu9/97lp6dd11251j9GpSZ9CjqBZ7dBgnxa1ubMnTwxBReD7+8Y+HOXPm5I9UY5SD3qc+9alJwWJYbc/8d/HFF08q+h/84Acr3+AY5aDHslbsPXvhC18YzjvvvFoCVhFtz3xYrEFvf/vbs89TtVENej/84Q+zvTgRu7DZsKp7GANtfumll2bDNiI27tnIr5pBr7teg567blugWGAp8q95zWvyqXqxcBcLDSv94mfT4JW3pjkgYhho9/KK/eGHH87vqQrltmf5qzvkgbYvD8R3ua9WMVihXHvrwnuWNyzLn03NZ9BrmWEU+qJhFJtRVl7ZD7v9JZTnS1VrmMu9Naf9DHqJYUwFA+U5Qkqjhban3T1QYvQU2577Gi22vaZi0EsEg3cZR/Pe9743O0rzE5/4RDa2j8H8ShvFnQN2aHvanfan7T1CbjTQzgzcj23PfPDVr37VXrcRcN1114ULL7xwUttTC8oH0Gi0GfQSwELNQl4eJM44Go7Y9HQI6SLkUeTLR2XT9pyagRW+0sVKnXYuhzrOu8eGn9JFwP/a1752UNtTC1gfGPQVGfQSwFnTpxocze9d6NNEiJ+q7Vnhuys3TfTWlwN+EYPmWfaVHjbupzrHHjXBtldk0Gs5Aly52K9cuXLSQRP8jbtw01Rue85vVT5gZqowoPYqL9Ncqqrc9ob8NLEBV8QBE+Vz21nzFRn0Wq580AUL+3ve8x4PiR8Rxd48iv273vWu7FxrRVP1+Km9yr30b37zm7PxWsXzWtr2aSq3/fnnn5+dyJiwH/E3tr9g0Gu58glrCX7sziuPy5vJaVHY+udEnQ7kbY/iqQ8o7OzOoQ2LZnJ6BMb60QNg27dHuV0ZmM+4La5HG9n2aerW9uUN+pm0P/XCnt+0GfRajgBXvHIAK3vOqF9e4Ke7ZM1NN92UDeDlbOz8tOi3Q7ldGZdT3q0z3UmW2TjgqE0O3OHAjnIvsZqp3Pbsoi+3PcM4psJyTpvT9swDHqndDuVlmuvQlsfsMX9MFfQI+FztJtZ82z5dBr0ETHdJLM5qP9VlpAh5X/rSl/KpA7t7DHvtwOWIpirmbAiUr2pQRKgrHqHHT6YNe8033dUS+N1UtYHlm7Yu7t4jLLjCbz5C3HSXBvxP/+k/5fcORsij7YsdArZ9ugx6CWChZ4Xfqeizkud33ZRDXmTYawfanLE5ndqe+YLrY3ZTDnmRYa8dCPjdrn/KY1NdG7VTyItc4bcD4/I6bcQxX3At4m7Xoe4U8iLbPk0GvUSwdU9hZyA+W/GEuzjdrcenW8iLDHvtwO45TpBM4aftudH23QIguoW8yLDXDrRvp7bnsX5CXuQKv/mo69R32ju2PQfk0Pbl61JHU4W8yLZPj0EvIRR2tvBY4Al+veyuBYWD5xUZ9tqDcTux4E/V9t1CXnnlYNhrj5m2fbeQR90obxC6wm8H2ju2/VlnndV1w75byKPtyxsFtn1aDHojqFvIY8uQnkAKRpFhLx3dQh5tzu6e8qlZDHvp6BbyaHvanR5gw16apgp5sVfQsJcug96ImSrkxXMwxa3Dohj2ygFB7TFVyIvtHQt/kWGv/aYKebHtGQLQLex58t32mi7kgZDXLex5Cc32M+iNkJmEvKi4AohYSUw1tkPNNZOQF3ULe7Z9O80k5EXdwl75uWqHmYS8qFvY49QtajeD3ojoJeRFnVYEap9eQl7UaUWg9ukl5EXdwp7apZeQF3ULe2o3g94I6CfkRVOtENR8/YS8yLDXbv2EvMiw1279hLzIsJceg17iZhPyopmsGNQ8swl5kWGvnWYT8iLDXjvNJuRFhr20GPQSNoiQF/WygtDwDSLkRYa9dhlEyIsMe+0yiJAXGfbSYdBL1CBDXsRKot/nqj6DDHkRKwpuarZBhryIsFc+v6aaZ5AhLyLkTXVlJbWDQS9BVYS8yC37Zqsi5Kkdqgh5aocqQl5kzW8/g15iqgx5ajZD3ugy5I2uKkOe0mDQS4ghb3QZ8kaXIW90GfI0Ewa9RBjyRpchb3QZ8kaXIU8zZdBLgCFvdBnyRpchb3QZ8tQLg17LGfJGlyFvdBnyRpchT70y6LVMcaU+jJBXDhUajmGEPFYwGp74/RvyRk9czg156odBrwWKJ6xkgb/mmmuGEvKuu+66SQWG9/NkmtUqt+X1118/lJC3devWgy5ufsQRR+T3VAWWr6Ji29cZ8giWN998cz51gHsLqlWuq8W2rzPkESyvuuqqfOoAa377zBkfH9+f35+wY83VYd/iFWH9ql1h9bK9+aMqeuCBB8KDDz6YT1WLYMdtOqwYyiuHQSqvXOraihwbGwsnnHBCPjV8u3fvDnfffXc+VS1WsF/84hfzqalVWYDLbc+K/j3veU+YM2dO/kg15s2bF0466aR8avieeuqpcOedd+ZT1SJcs2KfiTrbnve68MILK601EW3PPNAUtD3zQNXYiLvooosO2pjrpMq25/3Ln4HPVUfYo+ZT+3WwtZvHwsbt88PCLRvC2KZ1+aPdGfT6VGfQY0G7+OKLDyq4w0SRp9jXscCPctADbV/eih82eo7rCGCjHPTwhS98Idxyyy35VDNU2XtYNqpBD/TilXvTho0rpNR1pQyDXne9Bj133bYAoertb397LaFqJvg8rOib8nlSd/755zfqu6bQNyl8peyP//iPG/Vd1xnyRh2hqknf9Qtf+EIvh9ZSc5csWXJRfn/CE2e8KexfcHg4e+WecPyiffmjKmLsQp2D0xcvXpwtaLErvdydXgcC3u///u+HN7/5zWH58uX5o9Vji37p0qX51PCxRb9z5858qnp87+wmZx64//77h9b2z3rWs7K2/zf/5t/kj1Zv7ty5jQq5+/btq7VnnXmftuc7ePjhh8MjjzyS/6Y+xbbns9SJ/zfzQFPQ9swDdTn55JOz7+CJJ54Y2h4dPgOB8/Wvf33+SD2o+U3qzW2S6+6bF7Y+Mjcccv/tYd62G/NHu3PXbZ/q3HXbTZ0LPsWe2zCM+q7bTkal7Ud9120nda/whxm0R3nXbSd1b+QPs+3dddudY/Rq0oSgNyoMeqPLoDfaDHqjy6DXnWP0JEmSlDHoSZIkJcqgJ0mSlCiDniRJUqIMeso4wHh02fbS6HG5Hx0GvZb71a9+Fb7//e+HjRs3hmuvvTbceuutB53fjzOsT3VlhR/84AfZ8+OCz/Ttt9+e3QfP37FjRz6lpuDo39h23Ginu+66K//tAfy+/FgRv/v617+eHUUep3lOxPw01fM1HCyrLKNTtf3PfvazSW1ZRk348pe/PPE85gFeJ+L5xTqgZohtT73v1va05Y03dj+/Gq/Bc2P7co5GXieuO3i9qZ6vdjHotdi9994bNm3aFObPnx9OO+207HD0/fv3h29/+9uTghkL/VRbb8ccc0x27dJ4GgOeWwyL0z1f9SPkUehpK9qeG6ciIJhxjdSI3/O33XBS0hUrVoRFixZl0/xtcd5hQ2Kq56t+tAfLOMs/J7Mttn0xmNGOxbYso+1PPPHEsGzZsmx6165dE4EfPLfOk8JrZghk27Zty+o9bc/yS7sXQzptOVXbg7Y/4ogjsvvU92Lbl+uA2s2g12Is3CysZ555ZvbzlFNOCWeddVZWwIsFfzqEPF5D7UH7Es64TBJtz422Z8VfDHrTYV55yUte4vmqWoSeuDlz5mRtzzIf2/70008Pd9xxx4w3yph/WO5t+/ag7QlgxbaPdZ+gVgxrU2Gj/owzzshCotJn0GuxPXv2ZCvqMlbcL3rRi/Kpg7G1Rrc9W4VgF01xa1DNR09Lp7ZnC5+VQDe0PT2BBALQY8e8oPag7VlRl08kzAr/nHPO6XqCYQIgyzlDPRDrgD037UHNp33L4Zy9MrR9p5oQxV6/uCHA/amG9CgdBr0WY6Gm96a8sHYqBBHFnQWca1fGq02w4LuLpl0o7LR7eWzOTNqe+ebUU0/NHz0QHNQe9MATzlhxl3vvpuqdiyt5en8i2r78GmqulStXZj87jcWm7buFfOYVNuxp+/g31APbfjQY9FqMhfboo4/OBs1+85vfnHbgfDHkFVf0ah967ujBoc05mIJeGtq+W2iLbc94LHfTtxshn91utDdtT7tO1fa45ZZbsp/09nYLA2o+2o7lN/bE0/YccDNV28eQR9tPtSGgdBn0WoyFnrB39tlnZ8GNbn1W/IS+8oIfV/T0Bhjy0kA70vas9JkXKPi0cXlXXLEnz5CXBsZisqtu9erV2cqblTkr/vL4THpsCHlcl5shHYa89qOG0/YEN5ZpevZpe+aBMh5jnjDkjTaDXgIYVM2gXAo5K36KedyCj+KYLI+gTUtsewL/G97whqyHl1BXxNY8R2bv3Llzyi1/tQ8rfdqeFT+9vIT94vJN6KfdCftsCCodsWeXtucnNb585Cwhj/nBsXijzaDXUiy8dN+XQxsr/pNOOumgo6/o/WGrjmI/1bm11A60fafQRuhjnij+jsfiLjt28ZbnGbUL4a1T28ee+mKPLj0+r3rVq7LxuAzxMOi3G21b7rEHPbz02FEXIpb3uAFAz16n52k0GPRajHPoccRsGSGPAl9EAOTG1j/jeXo5BYeah5V2p101tD0Fvribhvs8xm4+tvI7PU/twYZauccesRawnEe0OzgKn3NsxiNu1U7UbnrsyxtrLNeE+GLdpxef9mcDgN4/aoYbeaPJoNdSLMBsqdFdz7g8inw8TQq76vhdJ7G7n5VFuddP7UH7UvRZcRfbnvmBgzQ6IQCwe5+Qb9BvL5ZfemcYi0u7//znP8+W5y1btmRt32ksFvWCXl0CgT367UXPHW3JKZLYYIttzzQhj135nbCBb9AfXXOXLFlyUX5/whNnvCnsX3B4OHvlnnD8on35oypi62nYu0EIbay8CWwPPfRQ9pMznTPgnt9FfE6Otoxb+kcddVR2wlWKPo/v3bs3POMZzwjHHnts9nt27y5evHhi65Dn83oLFy7MputGYSv3UA4TW8WMexom2pCiTpsz0J6ftO/v/M7vZLtqI9ryN8t4OPzww7Np/oYtfYICbT937tzs/xNXEHFeiFdLoO0Z9xefXzc+35FHHplPDd++ffuyZW2YWA6PP/74bPm9//77w3333Zd9T8997nOzW0S7suzEtqTdmW/4/MwHhx56aHjiiScmlm3aHnFe4Pn83TCXPdqe/1tT8N0xDwwLbUj70PbUIK6OwucZHx/Plv34XcW2jDWdx3kez+E1aFeWbeYH7iPWAf62vE4YBuY75l8d7Lr75oWtj8wNh9x/e5i3bfpL1c35zQyyP78/Yceaq8O+xSvC+lW7wuplB2YYTRZXsKoePRTxnH9NQJG9++678ylViULPmNOmYGV455135lOqGm3fpJU9bc88oOpR8zv1TiuEtZvHwsbt88PCLRvC2KZ1+aPduetWkiQpUQY9SZKkRLnrtk+MdfBw9Xowfmj58uX51PAxromxUaoeu+2adOF1dtsxLkr1YCwiY8WaYvv27eHpp5/Op1QlxgcuWLAgn1JRr7tuDXqSJEkt4Rg9SZIkZQx6kiRJiTLoSZIkJcqgJ0mSlCiDniRJUqIMepIkSYky6EmSJCXKoCdJkpQog54kSVKiDHqSJEmJMuhJkiQlyqAnSZKUKIOeJElSogx6kiRJiTLoSZIkJcqgJ0mSlCiDniRJUqIMepIkSYky6EmSJCXKoCdJkpQog54kSVKiDHqSJEmJMuhJkiQlyqAnSZKUKIOeJElSogx6kiRJiZozPj6+P78/Yceaq8O+xSvC+lW7wuple/NHh++xxx4Ljz/+eD4lSZLUHEcddVR+rzprN4+Fjdvnh4VbNoSxTevyR7trVdC74oorwk033ZRPSZIkNccll1yS36tOr0HPXbeSJEmJMuhJkiQlqlW7br/yla+ELVu25FOSJEnN8eEPfzi/V52kx+hJkiSNMsfoSZIkKWPQkyRJSpRBT5IkKVEGPUmSpEQZ9CRJkhJl0JMkSUqUQU+SJClRBj1JkqREGfQkSZISZdCTJElKlEFPkiQpUQY9SZKkRBn0JEmSEmXQkyRJSpRBT5IkKVEGPUmSpEQZ9CRJkhJl0JMkSUrUnPHx8f35/Qk71lwd9i1eEdav2hVWL9ubP9o+99xzT3j66afzKUmSNOqWLFmS3dpq7eaxsHH7/LBwy4Ywtmld/mh3SQe9H//4x2HPnj35lCRJGnXLly8Pxx57bD7VPr0GPXfdSpIkJcqgJ0mSlCiDniRJUqIMepIkSYky6EmSJCXKoCdJkpQog54kSVKiDHqSJEmJMuhJkiQlyqAnSZKUKIOeJElSogx6kiRJiTLoSZIkJcqgJ0mSlCiDniRJUqIMepIkSYky6EmSJCXKoCdJkpQog54kSVKiDHqSJEmJMuhJkiQlyqAnSZKUKIOeJElSogx6kiRJiTLoSZIkJcqgJ0mSlCiDniRJUqIMepIkSYky6EmSJCXKoCdJkpQog54kSVKiDHqSJEmJMuhJkiQlyqAnSZKUKIOeJElSogx6kiRJiTLoSZIkJcqgJ0mSlCiDniRJUqIMepIkSYky6EmSJCXKoCdJkpQog54kSVKiDHqSJEmJMuhJkiQlyqAnSZKUKIOeJElSogx6kiRJiTLoSZIkJcqgJ0mSlCiDniRJUqIMepIkSYky6EmSJCXKoCdJkpQog54kSVKi5oyPj+/P70/YsebqsG/xirB+1a6wetne/NH2+fGPfxz27NmTT6lft99+e3jggQfyqQMWLVoUxsbGsp8nnnhi/qikUfCrX/0q3HHHHflUd9SHM888M59Kw89//vOwbt267P+1Zs2a/FG1yfLly8Oxxx6bT7XP2s1jYeP2+WHhlg1hbNO6/NHuDHqa1iWXXBKuv/76fOpgBD6K3p/+6Z+GZcuW5Y8OBisUDPp1JfWPekBdmM4xxxwTPv3pT4c5c+bkj7RfsR7yf7M2tc+oBb25S5YsuSi/P+GJM94U9i84PJy9ck84ftG+/NH2efDBB8PTTz+dT6lft956a7jrrruyMPeSl7wknHbaadntWc96Vpg/f3649957w7Zt27K/4/GlS5fmz5y997znPeErX/lK+JM/+ZOkVhZSm1EPWN7pzX/Vq141URM63U455ZT8WWk4+uijw5133hne8IY3hDPOOCN/VG1y2GGHZbe2uu6+eWHrI3PDIfffHuZtuzF/tDt79DStuAV7wQUXhJe//OX5o7/Fbt0vf/nL2d+wq+biiy8e2FbuO9/5zuz1N2zYYNCTGiL26FEPqAtSm4xaj54HY2jW2D1DsT/77LPD7t27p92lw9/QI8BtkKp6XUnN0e9yzjAQxhvz/F7E58VhJDPV7/v18/+r6zlqJ3v0NK3pevQiCgc9cI899lj44Ac/mO22KWJXz8aNGw8axP2yl73soPF9sSevjNdcu3btpN49Bkd//vOfn/S6hE9e941vfGP+iKRB6adHj+WZoRjUiU5j2+Jrsux+5jOfyR8N2TIcx/pdfvnl4Zprrsl/M7PlnJrDHgfqUsTzqDmd6ll8P+rMZz/72Ym6Eusf4e1DH/pQx1qEft+PPSH8/2+77bb8N1M/D4RJnjOTmhr185zUOEbvNxyjp6LiGL2pjrBlvN6OHTvC1q1bs/F7J598cv6bEK688spw2WWXZcWeAnnWWWdlY3f4ewoO70Ex4zVA2x133HFZUXrqqaey3/He3IoBkudRdIuvyxhBXpeCye8ZQyRpcKgHLFssjzM9qpZhHSzLLO88vxheYvggHH3iE5/I/jYiNDFNQPzGN74xaTmn1vB6hK9OYYi680//9E9h3rx5Wb3huYQnnsfn379//6R6gvh+mzZtyuoKz+P/yXg8QhCP8TvuE46KQa/4foxn5nkzfT/GOm/ZsmViHDQ1jPfieaeeeupBAYwN3L/927/Nnsffx/9b/I553ite8Yrss0R8z9RLxlTzerGm893G5/BY8ftP0aiN0TPoaVos/DMJeqA48fcU4bgCoIh8/OMfz+6zVcwpCSia3M4555ysSFN4CHbx9fkdz7/22muz4s/WLsW9WCQpWv/zf/7P7PfF16VQ8rfxdVEurpL610/QA8vhLbfckh3MUAwvBCRCDvWA5bco9o4RRNhTQK9TXM4Jd3wOlnPCSXHjkh5CevoJPx/96EezoSV81vg8whrvWQ5R8f14vY985CMTnyn+TbegV34/3qOX9+P2yU9+Mvv7WBupnYRE3rMcKgl5O3fuzL4P6l/xvXgfAiAhr1j76FHltXjO3/zN32TP4Rbfi+eVQ3iKRi3oOUZPA0WRA8UkomCy2+Wiiy7qWEAoNIihbKbiFjdFq/y6fA6KGr75zW9mPyUNFhtTLNfdboSwsnjuOXrwwAbbt771rWyZ5ej6bggj5Q02nhN3HROY6DGLCF5gGEisS1HxvagjnRCEioFsOrHO8P/u9H4ETRR3zRbxfuWeNGobCLkEwYj/G7WPuhf/JuI1+E74rop1mIDd7TngMU6VVX4vtZ9BT7Wg0LEl2wlbksWfM8VKBt22PnnPE044IXvdYsGTNBgsVwSDbrdOyzQBhNDDcwlnMaARNMpBp4gerU54PZb14nLOfcZo0+PYre5QN+ghi3WkjNoxU7wfG6q8XznkRfH9CFyddHo/vo/4esXvMobYuJFcxueg9zOGYNAe6PYc3ivW0m6fUe1k0FNtKFRs4TOgmsHW9Lixtc158vrBLgaw24fX63SLW6YGPWnwGCLRabmLN37fCaGOAEPIo0eNgNFtgy2aKnjF38XlnNpAeGS60+fiRh2KfzNbM3k/6hR/06m3rFs47Ca+RhzqMhOxXnKwSKfPxy2GQetlWgx6GqhYTMoFiOJCqPv7v//7bBcHxZ1ixa6Rblvc04nFjtfqdrNgSdVhVx8hpduN33dC79GLX/zifKp7L9NMxfFW5RDFxmWnuhBvgzaT9yv2zPWrU1icKcJcp8/GLdZvpcWgp4GKY3KK4Y1dIwxSpjixJc9RdWxNM26P3QvTbcl3E1cibClPd+s3TEoaPMblcZqUuAyzIUhv11SmCje8HuLrxZ/s1u1UD8q3QaEHs9Prl2/DEL8TNrY7fabirdMYPrWXQU8Dw7gRthbZki9uocfwR/HgRm9fLDqzEXsNu42xkdRM8UAMziHHRhh1o3h+vE6m6m2Kv6P2gD0FjIerq4eKWjTVeL9BixuuvbxfPLDEejl6DHoaCIoHvXQobw3GLfFYhMtmUng6bc3HI/DiwORO+Ez8fja7OiQNTnGDkIMyGNLBrlzG691///35Xx2s23Iel2/CVqwxvN7znve8iXHBndALyLi0QYTBmbwf572jHg3i/eJu727fCe9FiI5nHkDc+OY53XpP6c2L36fSYdDTjFHEKI7FG0WNYslJOCkOnAKhvCs2DpRmbB7PKfrc5z6XjQ2ZDrt2ylhJUNh5PgWqiM/K5+I9uQ2iB1HSZJ1qQvlWxDSBDpyGBDHw8VpciaJbCKHWlJfz4gYmr1E8z1zc4KT3sByI+BzULGpHt2DWq+neb926dVktigc8zAa7iKmrvBZ1rvg9x/cC30nEhjE9gQRNfl98DvhuOTCO9qEtlA4vgaZpdSpcZQQptiCLhSWiaFx44YVZYeHv4i5XCg7hkGDI6/OzeDoAEPAY3xdRqBjXFws6W64ULQ66iK/Na/Je/GQl0um8VpL6x/Iad79OZ8OGDRPLK6GEcNVpWaf3iZrAefaKdYS6gre+9a0TJyTmxjIfD7aKw0LKCC0xWMbnURdirxrhh3pSFN+v+LmLCJfdLoHW7/vxd4xZ7vR+8XKQ5cvG8Ri1rVz74nvRg8e5+YqKz0HcBRxrMa/D+8324Jim8xJov+GVMVREEaAAUWTKNwoX57d617veNVE0yrisGYWDQsKVMzjfFIWGSwtRVI4++ujsDO88n8eKmI7FMhZBLmkW7x9xxBHZ1m3xtfnJ46wseH2u0iFpcNiQYpntVBPKt3hFBwISJwsmkJx33nnZ7s6iFStWZDWb5ZcrPEQxOL3//e/PXo9lnKtFsMxTfwh47EnohN8TKqk399xzT3a1CF6fx3nO+eefn//lb9FLVvzcZWy4/vKXv8z+H1zBoojXpdbxHuX343PGk0UX8X68VrdT0fB76hn/j3iJSPD9dap9fPZu78Vz+H8T6Gi/eNWNeMm2v/zLv5x0dZFUjdqVMezRU+0oTBQaSZrOdD1sUq9GrUfPMXqqnSFPkqR6GPQkSZISZdCTJElKlEFPktRYHITAzfF5Un8MepKkxuI0LOVTsUiaOYOeJElSogx6kiRJiTLoSZIkJcqgJ0mSlCiDniRJUqIMepIkSYky6EmSJCXKoCdJkpQog54kSVKiDHqSJEmJMuhJkiQlyqAnSZKUKIOeJElSogx6kiRJiTLoSZIkJcqgJ0mSlCiDniRJUqIMepIkSYky6EmSJCXKoCdJkpQog54kSVKiDHqSJEmJMuhJkiQlyqAnSZKUKIOeJElSogx6kiRJiTLoSZIkJcqgJ0mSlCiDniRJUqIMepIkSYky6EmSJCXKoCdJkpQog54kSVKiDHqSJEmJMuhJkiQlyqAnSZKUKIOeJElSogx6kiRJiTLoSZIkJcqgJ0mSlCiDniRJUqIMepIkSYky6EmSJCXKoCdJkpQog54kSVKiDHqSJEmJMuhJkiQlyqAnSZKUKIOeJElSogx6kiRJiTLoSZIkJcqgJ0mSlKg54+Pj+/P7E3asuTrsW7wirF+1K6xetjd/tH0eeOCB8PTTT+dTkiRp1B122GHZra3Wbh4LG7fPDwu3bAhjm9blj3aXdNCTJElKSa9Bz123kiRJiTLoSZIkJcqgJ0mSlCiDniRJUqIMepIkSYky6EmSJCXKoCdJkpQog54kSVKiDHqSJEmJMuhJkiQlyqAnSZKUKIOeJElSogx6kiRJiTLoSZIkJWrO+Pj4/vz+hB1rrg77Fq8I61ftCquX7c0fbZ8777wz7NmzJ5+SJEmj7phjjslubbV281jYuH1+WLhlQxjbtC5/tLukg96Pf/xjg54kSZqwfPnycOyxx+ZT7dNr0HPXrSRJUqIMepIkSYky6EmSJCXKoCdJkpQog54kSVKiDHqSJEmJMuhJkiQlyqAnSZKUKIOeJElSogx6kiRJiTLoSZIkJcqgJ0mSlCiDniRJUqIMepIkSYky6EmSJCXKoCdJkpQog54kSVKiDHqSJEmJMuhJkiQlyqAnSZKUKIOeJElSogx6kiRJiTLoSZIkJcqgJ0mSlCiDniRJUqIMepIkSYky6EmSJCXKoCdJkpQog54kSVKiDHqSJEmJMuhJkiQlyqAnSZKUKIOeJElSogx6kiRJiTLoSZIkJcqgJ0mSlCiDniRJUqIMepIkSYky6EmSJCXKoCdJkpQog54kSVKiDHqSJEmJMuhJkiQlyqAnSZKUKIOeJElSogx6kiRJiTLoSZIkJcqgJ0mSlCiDniRJUqIMepIkSYky6EmSJCXKoCdJkpQog54kSVKiDHqSJEmJMuhJktSDX/3qV/k9qfnmjI+P78/vT9ix5uqwb/GKsH7VrrB62d780fb58Y9/HPbs2ZNPqV/XX399uP322/OpyZYtWxZOPfXUcNppp+WPSEod9YC6MJ1FixaFNWvW5FNp2LhxY/j85z8fjjnmmPCJT3wi+z+qXZYvXx6OPfbYfKp91m4eCxu3zw8Lt2wIY5vW5Y92Z9DTtC655JJpizpF70//9E/Dy1/+8vyRwbjlllvCY489NvDXldQ/6gF1YTrUhU9/+tNhzpw5+SPtV6yHn/vc5wx6LWTQ+w2DnopiYTvnnHPCmWeemT96wM9//vNw2223TfT4/cmf/El44xvfmN0fhHe+853hgQceCBs2bEhqZSG1WQx69OSzgdfN2NhYOPHEE/OpNFCP+P/zf2dvhtpn1IKeY/Q0YyeccEJW2Io3wt8HP/jBcMEFF2RF/Stf+Uq49dZb82dIShk9duWaULylFvIQ917w/5PaYO6SJUsuyu9PeOKMN4X9Cw4PZ6/cE45ftC9/tH0efPDB8PTTT+dT6hfB7a677sp687oVbh6fN29e2LJlS3Z7wxvekP9mst27d4cbb7wxe8077rgj2y173HHH5b/9LXbZbt26Nfu7p556KhsLyGfg+dwvK78uOv2dpNljWWRZY7kv9/J3wwEMPIcesU7LfPw9r82ySz0BvWfxOf0u5+xx4DnUJl5/6dKlXXe5lt/v2muvzZ7H3/O8+Dm71SLM5v3i/4/nxdo3lfJ30q2mFvXznJQcdthh2a2trrtvXtj6yNxwyP23h3nbbswf7c5dt5pW3HVLr910Y+UuuuiirHDQy1c8QIPCcuWVV4Zrrrkmf+S32EJmwHZxhRF32ZbxmmvXrp20G5fB0V/+8pezYlXE6/I5DHzSYFEPqAvUA+rCTFADLrzwwiwolesDGO9GfSi/JkNBWJZZ7v/u7/7uoLow1XLOe/793//9RCgsetnLXhbe9ra3ZXsiiuL7UZM+85nPTNSVWP8IcR/60Ic61qLZvF+3/9/ZZ5/d9YCWqWrf3/zN33TcML/uuuuyg0k6Padch1M1artu7dHTtOLW5VQ9ehFFiiLH1tIZZ5yRPxrCpZdeGr7zne9kRY7ePopbDI38PVu+r3rVq8L8+fOzxyjaL3rRi7KiylYtwe+ss87KdpcUtzwJj//0T/+Ubf3zuuxKfslLXpK9Dq/LZ+dzO2BaGhzqActWLz16LJMM/9i0aVO2bL7iFa+Y6LUj/K1fvz4LGwSq4vJKkGGa99y5c2e22/SP/uiPsve95557wr333pt9luLrRX/7t3+b7Rngc5533nlZfaCG8Fp8hp/97GcHbbzyfoQ3as/KlSuzoPX7v//72WvQM0eN4/9AjSK8FYPeX/3VX4Vt27ZlIZAa18v70cPGaxK2Xv3qV2e1ks/ODeVg3Kn28TzwXrweNZjPHBHQP/vZz075HD5v6hvHo9aj5xg9DRSFHMWtUoo4oZsiztZuHN/CLW4lsyVM8Ywo4hTRWPBf+tKXZtPFlQqvy5jA4uvye268LgWaz0EhlTR8hJUXv/jF2XJJb1R0+eWXh/3792fLcKeQwd8ToOi5i+GJ5ZzlvtPrgVATN1A5DQr1g+dRb5gmuBFu+Lsy6hEblvH9eO50G7kELz4H78fzur0fAbKs+H48n+cR+N761rdmv+cz8v1EsfaBvSix9sWaSu3jNfleI6ZjLeR9ys/hBnr7lBaDngYqBjOKSkThprCwG4RQVkahAUW5F7FoUbA6vS6Ps1XMUcHl3RSSZo8AQs9Vt1unEEXvPMvlN7/5zWy55G9YRglE5d6uom4hkN2h4PWKYSgGoU67PalTxRDVyWtf+9r83szccMMN2c/p3q/T8BV0ej9CJt8VAbJYw/i/gu+rUwDlu+JGeIzo9eR1eM6znvWs/NHf4nFqMXWYUK10GPQ0NIRBigoHXvQjBsNiMSuiuBIAeR8KnKTBIoQQvrrd4oZfEY8RQlguGZfHBhuvw6mZphI3CMtYxtmTwOvFgMJpn+j1ogex00YgCEjsMu1WG7o9r5Ne3o+/LYu1qpP4HRY3nmPt6xaM43dMz14U6+xUYTqGxk6fUe1l0NNAxWLUqcCzy4Jevfe85z3ZVi9b4txna74fsajzWp16E7jFvykWSUmDwUYWJ0TudmPXYCdx9yvDNQhaLKsEw6lMFbxiD1UMbbH3i5pTrgnxRv2hB3AQG4GzfT+Cbi8YCoNewmj8jOzq7fT5uMWewkF8J2oOg54Git0DiGP1IooLR6pR2Ck4bPmyZcnujLhLo1+81nS3TsFT0vAUQ0qvQads165d+b3JeN1O9aB8G5S6368f9Np1+kzFWy8BUs3n6VU0rV5OrxJPi0Kwi7taeC6vQfHg9+VdMPH3vHYcEBzF1+t0ZYz4OwYcz3ZFIWnmplpmZ6JYE+htZ9mmB7DTBhk9TZjqcmPl0zqx65FTuRBqOBCiF/H9ul2Nh1678ulV4vtR2/gsveD9+B74/3d6v1jn+H3s9WRPCLtvORilvFHdDd8De0847Uq3ntZR4ZUxpD7Fo84oWsUwRwFG3F1T1u9u1VjgHE8itQdj2eKBVIQY6gI1gOA3lVhHyni9+Ls4xoxduYRC6lHxIIaqxPGIDBWp4/1iHZ1qfDOBlFsUd2/H8X0aHQY9zRpFmq3t4uH+RVP1tvHcbkehFVGwy1hBoNPJP8EKgPF7bPVKagZOg8LyTG8ggYUDBghKDPsoBpMywmHxqNoonlaF1yv2+HF6E+oLG6Cd0KtI0IyhczZ4X3rJpno/Pueg3i/2yDGmjjpXxv+NXsdYkxEPzOA5999/f3a/iM/O56N+d6q3ai+DnmaMIkwBiTcKF7tNKQ4xrLEbpzy+IxYl/p7nRXEXSLfxNYivRZgrb6Gy64QVBVuo7I7gdxQrbvG1CYDTDfKW1B9CRrEmdLoV8ffUCpZrjgoFIekd73hHdp9ePZbfTgh5LNOxR4rXilfTYGMyvl7EhiDvQ7DhILDi8whj1K64B2IQeH8+R7f3o4YN6v2offFceXwnfM+x9sX/Gwi7Ed9zPNqZK3AUn0O9ZIOYzzfI70TN4Bg9TYviWy7YZRQeDqqIu07K2IrttCVLQWFLnN91Gu/Dbtl169ZNbGHy+hdffPHEWBaKFAW02+frdwyRpO5Y3qbb1RoVx7q9613vyoIPyyTLZlEcQ0aAKZ6LLo6Z+/jHPx7+4R/+YaIWRIQrNjY7jTvjb6fqoeJ9iqcgQT9j9KKp3o/PyWt3ej/qYC9j9CICXTxStqzT/w3dajGor2w0px70Rm2MnkFP02IcSKcTaFK4KDwUPO5Ph10z8aSd/D1Fha1udiNQ4JnuVqzjZ2CrtNNRuozR4bXZio6fi9fqNCZQ0uywATbT0yLFnjYCXrz6Tbn3DWy0xdBCXYg1pRi8OK0IfxOX81hDpqs/BFPqAz388XkEzU6BJoagTp8R8f8RN1I76fR+3T4n70dd6xTKwJ4QXqfb8zvVPl5rqrBGTY3fI+L/ZVTqpUHvNwx6kqQmmK6HTeqVR91KkiQpCQY9SZKkRBn0JEmSEmXQkyQ1FkexcnN8ntQfg54kqbE4EtSj56X+GfQkSZISZdCTJElKlEFPkiQpUQY9SZKkRBn0JEmSEmXQkyRJSpRBT5IkKVEGPUmSpEQZ9CRJkhJl0JMkSUqUQU+SJClRBj1JkqREGfQkSZISZdCTJElKlEFPkiQpUQY9SZKkRBn0JEmSEmXQkyRJSpRBT5IkKVEGPUmSpEQZ9CRJkhJl0JMkSUqUQU+SJClRBj1JkqREGfQkSZISZdCTJElKlEFPkiQpUQY9SZKkRBn0JEmSEmXQkyRJSpRBT5IkKVEGPUmSpEQZ9CRJkhJl0JMkSUqUQU+SJClRBj1JkqREGfQkSZISZdCTJElKlEFPkiQpUQY9SZKkRBn0JEmSEmXQkyRJSpRBT5IkKVEGPUmSpEQZ9CRJkhJl0JMkSUqUQU+SJClRBj1JkqREGfQkSZISZdCTJElKlEFPkiQpUQY9SZKkRM0ZHx/fn9+fsGPN1WHf4hVh/apdYfWyvfmj7bNnz578niRJUghz587Nbm21dvNY2Lh9fli4ZUMY27Quf7S7pIOeJElSSnoNeu66lSRJSpRBT5IkKVEGPUmSpEQZ9CRJkhJl0JMkSUqUQU+SJClRBj1JkqREGfQkSZISZdCTJElKlEFPkiQpUQY9SZKkRBn0JEmSEmXQk5S0J554IuzYsWPiJkmjZM74+Pj+/P6EHWuuDvsWrwjrV+0Kq5ftzR+VpPYg1H3jG98I27Ztyx85YMmSJeGMM84IL33pS/NHJKk91m4eCxu3zw8Lt2wIY5vW5Y92Z4+epCRdccUVB4U87Ny5M2zatCncfPPN+SOSlC6DnqTkbNmyJQt0U7nhhhvCk08+mU9JUpoMepKSc9999+X3uotj9yQpZQY9SckhxM3ETP9OktrKoCdJkpQog56k5Bx77LH5vaktX748vydJaTLoSUrOc5/73PxedyeccEJYuHBhPiVJaTLoSUoO58p79atfnU8dbOnSpeE//If/kE9JUrrm/qYgXpTfn/DEGW8K+xccHs5euSccv2hf/qgktcfKlSuzEyPjqKOOynbTcjv99NPDOeecExYtWpT9TpLa5Lr75oWtj8wNh9x/e5i37cb80e7s0ZOUrNizR+9dvK1atSosWLAg/wtJSptBT5IkKVEGPUmSpEQZ9CRJkhJl0JMkSUqUQU+SJClRBj1JyeJatjfffHPYtGnTxO2nP/1p/ltJSp9BT1KStmzZEj71qU+Fb3/72+GGG26YuF155ZXZ4zt27Mj/UpLSZdCTlBxC3De+8Y3w5JNP5o9MtnPnzuz3kpQ6g56k5NCbN51t27Zlu3YlKWUGPUnJmeluWXr2JCllBj1JI8sePUmpM+hJkiQlyqAnKTnHHntsfm9qy5cvz+9JUpoMepKSc/rpp4elS5fmU5297GUvCwsXLsynJClNBj1JySHAveUtb+kY9vjdqlWrwktf+tL8EUlK15zx8fH9+f0JO9ZcHfYtXhHWr9oVVi/bmz8qSe1z3333TTro4pnPfGZYsGBBPiVJ7bJ281jYuH1+WLhlQxjbtC5/tDt79CQljfF6J5544sTNkCdplBj0JEmSEmXQkyRJSpRBT5IkKVEGPUmSpEQZ9CRJkhJl0JOUrJtvvjlceumlYf369RO3K664IuzYsSP/C0lKm0FPUpL++Z//OXz729/OzqNHsIu3bdu2ZYGPn5KUOoOepOTcdddd4ZZbbsmnOrv66qvze5KULoOepOT89Kc/ze91t3PnTnfhSkqeQU9ScoqXPJsKYU+SUmbQkyRJSpRBT1JyFi5cmN+b2kz/TpLayqAnKTnPec5z8nvdLV26NCxfvjyfkqQ0GfQkJefEE08Mp59+ej7V2atf/er8niSly6AnKUmvf/3rs9sJJ5yQ9d7F2ymnnBL+7M/+bEa9fpLUdnPGx8f35/cn7Fhzddi3eEVYv2pXWL1sb/6oJEmShmnt5rGwcfv8sHDLhjC2aV3+aHf26EmSJCXKoCdJkpQog54kSVKiDHqSJEmJMuhJkiQlyqAnSZKUKIOeJElSogx6kiRJiTLoSZIkJcqgJ0mSlCiDniRJUqIMepIkSYky6EmSJCXKoCdJkpQog54kSVKiDHqSJEmJMuhJkiQlyqAnSZKUKIOeJElSogx6kiRJiTLoSZIkJcqgJ0mSlKg54+Pj+/P7E3asuTrsW7wirF+1K6xetjd/dPj+5V/+JWzdujWfkiRJao63vOUt+b3qrN08FjZunx8WbtkQxjatyx/trlVB74orrgg33XRTPiVJktQcl1xySX6vOr0GPXfdSpIkJcqgJ0mSlKhW7br9xS9+ER5//PF8SpIkqTlOOeWU/F51kh6jJ0mSNMocoydJkqSMQU+SJClRBj1JkqREGfQkSZISZdCTJElKlEFPkiQpUQY9SZKkRBn0JEmSEmXQkyRJSpRBT5IkKVEGPUmSpEQZ9CRJkhJl0JMkSUqUQU+SJClRBj1JkqREGfQkSZISZdCTJElKlEFPkiQpUQY9SZKkRBn0JEmSEmXQkyRJSpRBT5IkKVEGPUmSpEQZ9CRJkhJl0JMkSUqUQU+SJClRBj1JkqREGfQkSZISNWd8fHx/fn/CjjVXh32LV4T1q3aF1cv25o+qKfbu3RuefPLJ7Ce3ffv2HXTDM57xjOwW7x9yyCHZz/nz52f3FyxYkP1O7UVbP/XUU2HPnj0T8wPKP0GbR9wv3pgX4ryi9qK9y7UhzgPdagPtH+tDcX5Qu9HuTz/99KTaUJwH4nwB2hxxvijPC3FeUTOs3TwWNm6fHxZu2RDGNq3LH+3OoNdwLIyPP/54eOKJJ7IFltsgxdC3cOHC7GaBby4KNCvxOC/wMxbtQaCYMz9wY1449NBDLfANRm3YvXv3RF2wNoyuWBsee+yxiXmhqtowNjZm+Bsyg17LFRdYbsWtrjrEws5KngXahXm44so8FvBBFu+ZiCv5WNw1PMXasGvXrtrnhVgbmBfcCBg+asOjjz6abfBxq1ucF/hpbaiXQa+l6LUbVgGfCgvyokWLwmGHHZY/oqrR/jt37hxaAe+GFT3zweGHH57dVz2oDdQF6kOTagPzQqwPqkeTa8PixYuzecHaUD2DXovEhfaRRx5pVAHvJG7NH3HEES7IFWGFvmPHjkYV8G6YFwh8bgBUo221gcC3ZMkSa0NF2lQbmBeoC24AVKfXoGff+xBQuB9++OHwi1/8Ilt4m17IwW4CehX4zA888EDtu5RTRhH/5S9/Ge67775WFHLwOZkPmB+YLzQYLFe//vWvW1cbCKTWhsFj12zbagM9z7/61a+sDQ1i0KtRGwNeJwa+wSDg8T22qYiX0f4GvtmjFsTvsQ29eN1YGwaDgMf3+OCDD1obNGsGvRqkEvDKLOr9KfbgpfK9WdT7U6wNKX1vsTY89NBD1oYexNpAwEuxNtDbp/oZ9CrGgnvPPfckFfDKKOoUJ1fwU6P92S3X5h686cSibvif3ijUBsYZWhumR/uzzKReG+6//35rwxAY9CpSXKmPwkwdV/AUdRfig7ElyxYtu+VGASt2Qgwrek1GbWCFN2q1wRV8Zywjo9QTbsdA/Qx6FYhb6qOyUi9ia9QV/G/FwM+KPdVem274/7Lrjv+7K/gDqA2jugvLFfxkMfCzjIxabTD818ugN2CMtxmVLfVu4gqehXjUClgRJzge1cBfRKhhBZ/qLqmZij38o7xMxBU89WGUxdow6mPWYvjn+1B1DHoDQvFmhmW8jQ5gIaaYjWLojQXMrdUD+B74PtgQGjXx/z7qgb8o7q4cxeWD//uo1sVO+B74PkaxNtTFoDcAcUYd9R6LTuJKbpS22ChYo96b2Q0bQqPUmxPnf2vDwUa1Nox6b2Y31AbDXjUMerNEkaJYUbTUWQzCozA2h4Bnr+7UYo9G6kE47p6zNnQXw94o7MK0NkyP72cUxzNXzaA3C4a83lDoUt5i4//nQPOZSX3ZibvuXWFNj++IlXuqyw7/v1HZ0B2EOKbXZWdwDHp9iisqZ8bepNo9b8jrXaphj/mA+cHa0JsUlyHmAeZx5nXNnOvXwTLo9cGZcHYIeymdfsWQ1z9CXkq7ajh9CvOD+pPasmTI65/r2cEx6PUojilx5psdBiSnUNA5ZYYhb3ZiQW87/h9czF2zQ9hL4eAV/h+GvNnh+3PDafYMej0w5A0WIanNhZBd0J4yYzDaXtBT65kcNr7LttcGNwAHgzF7Hqk8Owa9GaKAE/JSG080THynFPQ2fqfsevYIusFixdjG8ZvWhsFrc21gHrY2DBb1NqXhPnUz6M0QC6+FfPD4TtvWE8JndguzGqwg23aqDXqmrQ2Dx3fatl5eeiENedWg5no+yv4Y9GaALQl30VWnTcWRlU8K48majJV7W4KTu+iqxYq9LRtVzLNstKo6baoNTWLQmwYzlVto1SNMt6Enx57d6tG724aeHGtDPagNbejJsTZUj++3zWN5h8WgNw0PvqgPC3CTv+tHH33U3puasGJv+pgce3br0/TawLxqbahHG2pD0xj0puAWWr2a3JNj70392GXX1CMvrQ31avLyZ22oH9+3y9/MGfS6GJWFl92lDCb/6U9/mt24P0x8nibuphmVFTvt/4tf/CKbF/g57N3pw54fO7E2DEdTd+FSG0Zhr0+TakOTOwWaaM74+Pj+/P6EHWuuDvsWrwjrV+0Kq5eNZmpmJkq1K54F9Qc/+EF261a8TznllPCc5zwnrF69Ohx11FH5o/U45JBDwnHHHRee8YxmbIc8+eST4d57782n0kKx/pd/+ZewefPmsH379o7Fm/ZnXjj99NPDi170ovzR+hx55JFhyZIl+dTwcd3SNp/jbSozrQ3MB2ecccZQasPxxx+fTw0fwzkefPDBfCotbagNy5cvD2NjY/nU6Fi7eSxs3D4/LNyyIYxtWpc/2p1Br4NUF14W2O9+97vhZz/7Wf7IzBD2/v2///e1FvWlS5eGI444Ip8aLrZeU+vNY/7+P//n/4QtW7b0tGXOPMC8wDxRFwI/K/cmBP9Ua8ONN96YzQ+99toNozY0KfinXBsIeb0YRm1oWqdAXXoNenN/s8BclN+f8MQZbwr7Fxwezl65Jxy/aPQOROAyRil1xbPgXnLJJeGf//mf+9r9QjEjIO7fvz/beqsDPSaLFy8Oc+bMyR8ZjhQPwPjOd74TLrvssvDzn/88PPXUU/mjM8O1XOntIRiwBV/H1jTzHfPBoYcemj8yPKnWBpZv2rZXw6gN9LBbG6pRrA29GkZtYFlsSm2o03X3zQtbH5kbDrn/9jBv2435o90Z9EpSW3gpxJ/61KeyrvdOWBiPPfbY8OxnPzvbSma62zkD6QmkV/D5z39+5QtxU1buqa3YP/e5z2WBv1vAY6t8fHw8HH300dmN4t3pb3mcFTzzAfNO1ZoQ/FOsDRdffHG477778kcmi7Xhmc98ZjYvTFcb2O3L7tx58+blj1bD2jB49Op/4QtfGFhtoDeQ3arMO1VrSqdAnXoNeu66LUmpK57/yz/8wz8ctGuOgv2Hf/iH2RY44206oXB///vf79h9zwL/X/7Lf6l8d82wd9mltpuOkNepPZkPfu/3fi9bSXcK8HwH7OJla79Tj/B//I//MZufqjbs3fkp1QZ6XS6//PJ86rdmUhtirw0/y1auXJnVhk7z0SBZGwaH9cO6des6dgYwHzA/MC90alOWiTg/dKoNa9asqWVXbpOG+tTBXbezkNIWe7eQx0J7wQUXZL1yUwU1fkf3OwGABZmttIj7vH7VC/Cwt9xT2mLvFPJo43e+853ZuBpWmt16Yijw9Nq98pWvzKbLYzxvv/32cPLJJ2db+VUa5pZ7SrWhW8ibaW2gl+/MM8/sWBvo8fvXf/1Xa0NLdAt5xdpAe3erDewFIgzS3vxNuTYwf3CgBn9XpVHr1XPX7Sxw3q4Utti7hTx6Xlhwe9m1wkqeFTyvVRy3EbfeWMirNKwFOKUVe6eQR8/L+973vqyI94L2pufvtttum7Tbhh6/l770pZXuthvmyj2VFXu3kEfPy2tf+9qeawMreE57UgwK1Ia4cVAlagM9OXVLpTZ0C3n91AbmG2oDz73jjjsm1QY2BGMQrAq1Ye7cuWHhwoX5I2nrNeiN1qEqU2CAbxsuszOdbiGPQj6b3WuERLbgizgyq+rdF6xcKax1Sz3kzWb3Gr1/f/3Xfz3p+cxvV155ZT5VnWG0Cz1WKWwAThXy+u2BYx5429ve1rE29HPgVy+oDeU6V4eUQx7tOJvawF4gakMR8wHjeas2jHmhLQx6uW6DjNtkqpA3iF0phD1CQlGnFceg1b0As1JPIfT/3d/93cBDXkTYe93rXpdPHdBtnM4gDaNtUlixcxDVoENeEbWhuLuXZZawV7W6L4WVQofAVCGP0D6I2vDGN74xnzqAoLd79+58qhq0Swp1uwoGvVwKWwOcJqGqkAcKAAW9iDEZqS3AKVxHkdDVaZfMIAfKs0u/PGCfAzaqVmcPL8EyhaDXqbd10LWB1ytifFbVdZW6UOcu9RQ6BGiXbiFvUMq1gfnge9/7Xj5VnarXRW1l0PsNVhwpjL8pG2QhjxiHUV6533TTTfm96hQHfFcthdBf/r4GHfIixnwWdTqqd9Bon7qW1zrnuyqV/x911AbaqY75oc4NsxR6jMrzwqBDXlSuDWx8MpauSqkMuRk0g95vpLBiB93l7D6JW9eDLuRR+XXZLVS1uhZgds2kMB6L4s1BE2AFXEXIA69d3mVX7i0YNEJeXVvuqaw4irXhHe94R2W1oXwZrPJRmFWoK3wRkFKrDVWFPFAbijWHYR11jNtMIYwPmkfd/gYzX9VbGnXg5JR0mb/mNa/JxklUhRXGt771rXzqQAH8d//u34Uqj4xlAeZoSy55UyV6Bwh7bccRbpwCg61qVupVHvHG8lM8Ipuj9ao+4pLzpy1atCifqgbzXNUrprpQD2JtqPIktpxGozjwnqMvOQisytpA+Dr88MMrP6fejh07siN9265YG8rBfNA4GTdjxyPmwyrXTWA+qGKjtkk86rZHhJS6dgOlgoWo3ItTR69oeZdDFdwa7F25cNdxItlU5rfUxF7DqK6gXEcPr7Whd+XaUMf84O7bg4180Etlt23dikEPKYQwegZS2GKvW/m8dnXMC3XsorE29Kc8P9Sxcq+jNqSw27Zu5XmhjmWK2mBbTTbyQc+ttPYghFXZ+5rCLtthGNZukqrby9rQHlW3lb277eLRt5ONdNAjNNiD05/yllkdVyuour1csfen3GNTx7yAKtvLHpz+lUNRufe/CtaGZirPC3VtFLpen2ykg549OP0h5BWPrGThrWsBrrLNLA79KQ62RtXXvI2qXPlaG/pDbShuBNbZ21tlr5u1oT933313fu+Aqg/EiAzmk430UbcUpLZ1yf/0pz/Nrit6ww03ZCen5dxE3FjZxpN5Vn0BaS5aXjw/FkdYVnW6hjKuZ1jV0ZZ1HEQwSPSkcfJT2p/5YdOmTdl9HuNoN9QRuq666qpJJ5Llmql19OJwpHxVR1uy66dNKwtqGctluTYwL/A47VPHBtmtt96avWdUZ23gaNIq/n/0FnId9DbpVhs43U3cMKujNlx55ZWT1rEc9V31+gm0Ge9T9zXS69LrUbdzxsfHDzqvyI41V4d9i1eE9at2hdXL0t19cf/990/a+mwqAginLCBczeTzspKNp9WoQvn6qbxX+eSYVeH0KlVsFdKDc++99+ZTzUbBjkV7JpgPaJ8qwhfz5gc+8IGJ0xOxov3kJz+Z3a/D8uXLK1m5t6U2sOHHCn2mtYETZ3OalapqA1fnKQa9Ks/nWTZ//vxw3HHH5VODQ1CJG05NRvszH3Be05nUBpYbzqdXVW1g3uSSnBHv8dGPfrS28MVphBYuXJhPpWXt5rGwcfv8sHDLhjC2aV3+aHcj3aPHFTGaPA6HBferX/1quOyyy7LzlHFOqpmgMMWtORbmQQYjVuyf//zn86kDKOZVrGy7Wbp0aX5vcAh6TR/AGwsnxbyXIxnZgmdDgecwLwyyrTZs2DBp1y3n54onY63DggULKinmnE/x6aefzqeaJ9aGL33pSz3VBnr2qqwNX/ziF/OpA7hkYl21gY2NKmoDu22bXhsId5/97GezHtWZ1gbmmSprA9c6Lg7x4Zx9VZ+3r4i6QH1IkefR60GTx12wAH74wx+e1fUBWXi5kDm3QfVOlC+MztnP6xqTBbrkqwjnTR94/7//9//OQl4vAa+MlTsXMx/UlUx4vWLPLurq2Y2qWoZHpTYQ1AdVG4q9N6Anr45d+BG1gdugNXleoO2oDYS8QdSG4kbbbHSqDa973evye/VocrvVbWR33VIQtm3blk81Cyties06FWC2urieZPHSU/TgsTVNjw9d9p0WeP6Wy2DNpvB+4xvfCP/3//7ffOqA//pf/+tAewVmoooueb6zJl6wnHmA3WGddsWw9U3vGd8/N9o2tn3cpdetcM92lxrzWzl48nq8bp34Dth9O0iE/kGt8AaNFWh5YyuiJrBrtlwb+L8wKJ7xe51qyiCug9ypNnzsYx+bVb3pB7tu2YU7SA888EAjT8JLWxLOOl1yMNYG1hVsiMfawHOYH6quDf/tv/23SfPaMGrDYYcdFo455ph8Ki297rod2aDX1DFZ3Qo5xZvekuJFw7vhNeg2Lwe+2RT0ToV8GAsvKFwMwh+kJo7J6lbIaT8uK8Vturak6DIvlLeu0W9B7xTy+ByE/rpX7FWM2WzqmKzZ1gbmJ1bw3WrD2rVr86nedKoNzJvstq1bFWM2f/nLXzbuwJxB1AaCHvMC80TZX//1X2fzVa861QZqwmw7GfpBZ0CVl/sbJsfozRDjE5q2ldatkFMwzzvvvBkvKKz42JpjYSuusOix4v/9/Oc/P39kZjoVcj7LBRdcUOk1VLthAR50j17Txmt2K+QxrNO+M/nuKfaMi+HcduWxXPQSvvjFL+5pxdipkOPcc88Np512Wj5VH464HfRRfMwHKdYG5pdYG+jxLfZgx/u9rty71Ya/+Iu/yKfqxXw+6HFZfDdNGq/ZrTbQdnzvM60NLDeMqeU7u/322/NHD6D399/+23/bU+9ot9rAPNpPaByEQdeGpnCMXkt1K+T0urB11it6vQhiv/d7v5c/cgA9O/EIyZnoVshnu6tnNqoYh1PFa/ZrupA308BfxJGWbKUX24z3memRu+hWyOlN6mceHYRRGK/ZqTbQjswL/dYGeu/KtYH36cVUtWFYRrU20JYs3/3WBnrjy7WBsDdTU9WG2ewG1mCMbNBrUjGfKuTNdiF529veNmmXDltWMz28fapC3k9BabKmFPPpQt5swjW9Oe94xzvyqQNmMhQAUxVybqpGt5DHSn2mbdcNtYH5Kuql16WptSHloDdVyKMtZ4Pa8MY3vjGfOqDttaFpG2zDNLK7bjkihwVn2KoMeRFd+ccee2xWyDnyaSbd+k0OeYzLGvRJk9k9M+yCXmXIi+jNYX5gl8brX//6GY1va3rIO+KII/J7g8F4LMbpDdtUIW8m7TYT7LqLtYGT2ba9NjCkY9CX4Hv44Yfze8NTZciLmKe4MT+wu3Um49tGrTY0hbtuW6SOkAdWDrzeTAboYpR68pqijpAXUcwpwjPZYh/Fnrwm9ODUEfJgbWi+OkJexEYgy/VM5jF7+dvDoDcksw15LGTve9/7wp/92Z9l58IaFAt5/QYR8mg35gXmiUGdGsRCPhyzDXnWhnQMIuQVa0N5We6XtaFdDHpDwHnyZtuTF89mHu+zMM9WWwp5Fdc2HZZBhDxeI7Yb8wTn3ZttQR/lQs7QgGEZRE/eKNeGKgyr3gwi5LHRV6wNvJ61YfQY9GrGgle+hBh63V1bDgAszLMp6G0q5CkFPVbqswl5UfFvZ1vQLeTDQW2YbcjrZLa1gSsvjGrIw7DqzWxDHsrtM9vawDzaltqQ0npitkb2YAzG4dR9rixWoJ/61Kcmnb8K/YzJo/BzXcPioHFOlcH5sRhYPdOQwGeiB6h8Qt0mF/IqBlwzL9R9rixWvjfccEM+dUA/IY8B9PRCFc+FxXxBm/K7Zz/72fmj0/vOd76TXVu5PI82NeRRzAd9fdNhHKgVa0Nxee435NHenWoDK2l+12ttuO222/JHDmhybeBqCFWcR6/ucZvUhvL33s+YvHhwTfE0SswXnCSZ+aCXeYvPxLWV21Ib5s6d63n0ciMd9DhJbp0YL1M+b1m/B16wADNwlgW2WNDZ0oq7bghDHGXZCYGQs6LTu1jeOmtyIUcVxZzvcKYXhh8EVqJcn7JoNgdexDBXnL/4/xD+2B3Ia8ZbGaGGwHnppZdmK5fy99DUQg6Wg8WLF+dTgzGMjcBOteG9731vXz153WoDJ0+frjYwL/zrv/5ruPLKK8MXv/jF1tUGrpgTw82g8J3UeaqOTrVhNgdexNPmdAp709UG2p+NPz4PtaRNtYGTPQ/6CkpN0WvQG9lLoLHgsoVbFxbeD3zgA5NOVjyIhYTX7dSVXkSAiAsxReuhhx7q2mPR9EKOKq51W/f1LD/3uc9N6kXl+y6ftLQfhHdu3fD6zA8R881U806TCzmYDwZ9maO6awMbXSzDRZzeYrYnoZ6uNpTnBWtDZ3XXBnatFkNZXbWhuJ7AdLVhEPNolaqoDU3hJdBmiF0+dEH3cpWI2WCLvbjyYCuL3rzZYsGkR3Dnzp0HjeeI+H/GhZb73XquWGjPP//8xnd38/nolh8kdtfVdT1LVsDlcZoU8kF878xXFGwud1bszYlo+zgvcOv0N2Dl8s53vrOv3uY6sdVOD++gsTzVhZVvcdnlO+eScrNFbaBnj+DWqTaU54UUagPnTRv02CzqAtdGrwOhvzwekquYDKo2sFyzHuq03BfXE9ymqw2cg7HJmP9nG46byl23PWDXbR1jLyi0/+t//a986oB+d9F1wq4KrmdKUefi/CykvaAAsFvgZS972cB3e1Sh2+7o2aAXp1tPxqCxYieIRazYBxmo2IplXmD+mqpgd8JzOHEuGyGcOLXpOHH2oMdrcuUYenDqqA2dQj9XLxlUbeB1qA0s43EF3ou21YYqehsJv70sQ7PRKfQPsjYwFCCGf3pvuwX7TtpYGwbdu9sUBr0esKXWy4zer//3//5fNjg6onhW0eXNVh9FgfEcoLejW2Fngad4c3UEds1VUSCrwP9p0GOyorrGbF511VXZ1nPELpBBf/8UZeYz5odYlLv12PC3p512WlbEuUD+85///Fas1ME8X8Vnras2ME6KW0Sbce3RQWP+Yl5gJc/3xYZNcR4sivONteEADtLavXt3PlWtK6+8clKoJGQP+v8Uw/9LX/rSaWsDbc/fMh9wibQ21QYO0hrmqZKq5Bi9HhCCuhW7QWK3LYOgo7rHNsQteXo+WMjbUrg7qWrcBb0327Zty6eqw5b0X/7lX+ZTB4ruJz/5yXyqerw/8wIrE+aDOE+01XHHHZet4AdtWLWh34Oz+pVSbeDzL1++PJ8anLrGbJbHcdMWH/vYx7L7dbA2tEevY/RG+kQzdc0E5SLRz5F0s8FCy+WueN82F3JU1RXPuJ46tv6GPS9QuHlP5gfmhTYXclS1DA+rNtS9fFobpkddqOOcbISs4pjx8fHx/F49UqoNtFeqIa8fIx30Bj22Z6baXlCHadCnVSmqYzxHeRyg80L/qmyvumpDeX4oHgWr3rS9NhD0io488sj8nnplyJtspIMeW2p19OKUi7n6V2XBraM41DWoexRU2V519eKU54e297AOU5XzQx1Br8x5oX/DaK8mG+mghzpmCBfYwaCQV7ny5Sitqg2rFzlFVX+Xw1hZlHt1NDO0VZW1ocrewm7sIOifdXYyg14Nxbx8OpA6BvamqOq2qqMXx3lhcKqeH+qoDeUxmgzIV++q7o2vOkiiPC9w+hP1jnaqY9ltk5EPenX04pQXYE6KWaXNmzdn52NKrXegjraq4uS7ReUxebRRlVvuBAeO6uRSRympY8Vbx/xWnh+2bt2a36sG84G1oT9VhwfmBc7hGFW9nqA2MC+kWBs02cgHvTrSf3mAdfHSV4PGhae5LiEL8Ic//OFkuv/r2kqreoXBbnyOaoton/I1TgeFQs4lsDiFx+WXXz7pNB5tV8c1LOsYw8t57YqqXLlTG5gPqA1cZiuV2kAb1VEbqh6Cw+sXD8CgfaqaH2JtYF5IrTbUEfrbZuSDHqpegDkBaXHmq2oBppAXL5/D+3S7LFrb1DXOsepxgGB+KOKi4YMWC3mx56Z4Yt62q2urveoeXnr7i/M2of8nP/lJPjU45drAfJFKr15d8wI1vOraUD6HIkFs0DrVhpSGkNQ1P7SJQe836ugd+IM/+IP83gFsRQ1yi7pcyMGugGLvUZvVtZVGIa965c7Jsssrd3a3D0qnQo54xZS2o5BX3dMWVV0bmA/K7XLllVfm9wajW21I5VQuddRvUBuqHgtIbSjuvqU2DLJToFttSGU9wfJUV21oE4Peb9SxW7C8cmdBG9TWWrdCzvV0U8CCW/zuqlbH7tvyyp3rnVKEZ6tbIecSRnVecaFKda3YUcduwfLKnV54drcPwlS1ofiebVXXbtvoiCOOyO9Vg9rwu7/7u/nUAXQKlJfnfoxCbXC3bWcGvVwdC3D5smeMi6AQz8ZUhZyfKai7K573q3rLneJaDK/07nYqwr2YqpBzSwEbZXWGflT9fhyJ/brXvS6fOsDaMDNV1+0yakPVu2/LtYHlmTGVs6kN7JpNvTYQ+qveG9NWc5csWXJRfn/CE2e8KexfcHg4e+WecPyiffmjaWMm4dqWxUvQDBpjs9hFV7yGJl3zrOSf/exn93SxaJ7zhS98IXzve9/LHzkgtUIOrl9ZdXEt40LmXNi+KrQ1Fysvjpvj5LlMM59wsf5esHvnv//3/37Q9VlTKuRgi73uYk7of/TRRyutDYzVu/XWWyedQJnawHuWx3ROh9pw6aWXhhtuuCF/5IAUawP/l7prA21SZW0g5LE+uv322/NHflsbXvSiF/W84cFRtZdddlnytYHvZVR69K67b17Y+sjccMj9t4d526Y/atqgV1D1AozTTjstW2CLBf3nP/95VuSZUcunYimjiPO3FHJWBEUpFnJW6nXuqos4QWodK3cU25H5ghU0W97lgfqdEPDYtUPPzVNPPZU/ekBqhRzDCP3s4qy6NhD8OQK3XBuYN1hRz7Q2XHPNNdlKvdM1dK0Ng1FHbWDDH+XaQE9vr7WB51gb0tJr0JszPj5+0Ny6Y83VYd/iFWH9ql1h9bK9+aPp27dvX1Yg+VmlbrvYQCFmC54FOQ6WpoBz8kw+GysCpstSLOTge2DrdhgefvjhsGPHjnyqOozV7DZek0HSzA/MC7GwM98wL3Arh/0oxULOiv2YY47Jp+plbWieYdYG2qfcQ1YFa8PMDLM2DMPazWNh4/b5YeGWDWFs07r80e4MeiV1rdwp6JdccslATn/Cwr5mzZrkCvmwF966Vu6YqqD3goL/xje+MZnB1UXDXLGjztow2/GaEbXhHe94x7S9P20z7Nqwd+/erDbUYZC14a1vfWu2+zc1w64Ndes16LnrtqSObnmw0L3sZS/Lrsl33333TdpdM1O8xrnnnhvOO++85Ao5ht0VX8cuu4gVMkfiEvz7XcHzGn/xF3+R/UzNsHbTFdVZG175yldm95kXZlsbehn72xbDrg28NxuATz75ZP5IdWJtKO/W7wXDAi644IKJXcIpaUJtqJu7bgegri33iC14utnZapvJSp6tFxbc8ilbUtKUrvg6e/Ui5gVOokxhnw7tz7xAD14q58LqpClb7MOoDVu2bMnmh5nUBkIB84G1oXrDqA3UBMZszrQ2EBDpwbM2pMVdtwPAgnvPPfdk3fN1o3DEG1tvjLlhgaXnjxmaQp7aLtpOmrTw7ty5cygXGKft6eFjUDUr+TgvgO+HW3F8TqqasmLHMFbuEe/LRgDhb1RrAzXhmc98ZmNqQ93BP6LtmReYJ0a5NnB6naVLl+ZTo8OgNyDsrvvlL3+ZT6lOTVx4Cf579uzJp1SXpq3Ywe5bwpbq17TaMMxOgVFHTSDQjqJeg95oHIvcB06MWfeJenVg4W3iFtoo9KI2ESv2JoU8MB7I2lC/JtYGxuo1pbd51NR9suw2M+hNgQV4VM7L0xT03jQRK3ZOcKz6sMuWWxNZG+pnbVDU5NrQRFaqKbAFaU9OfZrYe1PU9M+XEr7nJm+xN7F3KWXWBkVNrw1NZNCbBlsNbq1Vrw0rTnpwRuns68PUhhUnl6lLfbB7E3AJujbUBnfh1oPv2VDdG9dYM+DWWrX4bpu6W6asDSudtmN5a8tuGVc61eK7ZeOqDdiFe+SRR+ZTqgK1wfGxvTPozQBbawQRe3Kqwe7xNq0s6cmxl7caFPE2BWl7eavFd9u22uDYsWrQe+5Gdn+sTjPUpi3LNmELrY27vwin9O5pcFjG2rj7i/nAsbyDR21o4zJmbRi8ttaGpjDo9cCu+cGikLd5C61p53drM77HNn+f9OIwP2sw2lwbYi+vtWEwYm2w17x/fnM9omvegj57rBjb3g1P4THszV4qK0bmZ2vD7FFj214bYjixNsyO3+NgGPT6YEGfHUJeKt3wFqLZiWE5lV1d1obZoTakstfE2jA79owOjkGvTxb0/qQU8iILen9SC3mRtaE/1gZFqdaGYTHozYIFvTcpFvLIgt6b+H2lWsitDb1hd621QeB7Ou644wx5A2TQmyUKugdoTI+VXqqFPEo9vAzKqHxPhr2Z4TtKvYYa9mbG76kaBr0BYGuULRBnzs443QArvVEQC5Xn2euMI9dHqZAz3zPOiF1RmozvhI2/UaoNrCe8mkpn1AbXo9Ww+gwIvRNuiUwWC9uohR5WYIRbe3MmY4NoFJcRVuyuwCbju2BeYDjHKKE2EPytDZPxfTA/uEFUDb/VAaJ4HX/88S7EvxG3zkZ5NyY9Fa7gf7tyG+UhDswDo7jR00kMvqNeG+wYOFAb+B5GpVd3WAx6FYi7a0ZxIY69WW6dHRB7eket5yKKgd/dVb9dNo4++uiRrg3uyj4gDmMY5dpAxwg/VS2XtoqwYhu1hTiu1O21mIyVOmORRmkFXwz8o95rUXb44YdbG5QZ1dpA2GcZMPDXw2+5QnEhZqsl5YWY/1tccEelWPWDFTwru9R37TMWj3nelXp3sTasWLEi+dpAXbA2TC2G/9SXmVgb7OGvl0GvBhQ4Zu7UttrYGiO0uGtu5vjO2LXP/JBaj07cFcVYPLfUZ2bBggVJ1wb+b+6amxnan17wVGsD/y9rw3D4jdeIrbYUinqxiBNaXHB7R/vH3t62F/UY8Li5Uu9PqrVBvUu1NrR5vm4719BDUCzqbVoxcmCBAW+wykW9Ld8pn5PPa8AbrGJtaNNRqbQ/vTXWhsFpa+Cj7dkFbW1ojrlLliy5KL8/4Ykz3hT2Lzg8nL1yTzh+0b78UQ0au20o7Nz27ds3cWsSFtpFixZluxQo5Cy0c+bMyX+rQYnfMwVy3rx52Xywd+/e/LfNQfszvy5btixb+biVXg1qA/MC88T+/fsbWxuYF6gLbABaG6oRawPfNeGfuvD000/nv20O2p95lnDK57U2VOe6++aFrY/MDYfcf3uYt+3G/NHu5oyPj+/P70/YsebqsG/xirB+1a6welnzVjYpe+KJJ8Kjjz6a/RzWip7CwkLLuDsWWKZVP9p/9+7d4bHHHsvmh2FhXjj00EOzn9w0HMwHzA/Drg3UhRg6rA3D0bTa4EZfvdZuHgsbt88PC7dsCGOb1uWPdmfQa7A9e/aExx9/PFuQuVW1RU+xpmi7Mm8u2p55gOLOfMGtKhTsOB8Y9JuJeeHJJ5/MVvTMC9aG0UXoYx6wNowOg17CWIBZqCnw/CzeZoKFNBZu7nOjgPNT7cKKnfkhzgvc5zHuz2Slz3xQnhfYXWgvTTsVa0NxXrA2jB5rQ/oMeiOsW1GPC65GBwW9W1F35T16utUG54XR0602uJ5oj16Dnq2akLj1Vb658I4e2rzTvMBNo6fTfMBNo6dbbXA9kS5bVpIkKVEGPUmSpEQZ9CRJkhJl0JMkSUqUQU+SJClRBj1JkqREGfQkSZISZdCTJElKlEFPkiQpUQY9SZKkRBn0JEmSEmXQkyRJSpRBT5IkKVEGPUmSpEQZ9CRJkhJl0JMkSUqUQU+SJClRBj1JkqREGfQkSZISZdCTJElKlEFPkiQpUQY9SZKkRBn0JEmSEmXQkyRJSpRBT5IkKVEGPUmSpEQZ9CRJkhI1Z3x8fH9+f8KONVeHfYtXhPWrdoXVy/bmjw7fli1bwvbt2/MpSZKk5jjnnHPye9VZu3ksbNw+PyzcsiGMbVqXP9pdq4LeFVdcEW666aZ8SpIkqTkuueSS/F51eg167rqVJElKlEFPkiQpUa3adfuzn/0sPPTQQ/mUJElSc/zu7/5ufq86SY/RkyRJGmWO0ZMkSVLGoCdJkpQog54kSVKiDHqSJEmJMuhJkiQlyqAnSZKUKIOeJElSogx6kiRJiTLoSZIkJcqgJ0mSlCiDniRJUqIMepIkSYky6EmSJCXKoCdJkpQog54kSVKiDHqSJEmJMuhJkiQlyqAnSZKUKIOeJElSogx6kiRJiTLoSZIkJcqgJ0mSlCiDniRJUqIMepIkSYky6EmSJCXKoCdJkpQog54kSVKiDHqSJEmJMuhJkiQlyqAnSZKUKIOeJElSogx6kiRJiTLoSZIkJcqgJ0mSlCiDniRJUqIMepIkSYky6EmSJCXKoCdJkpQog54kSVKiDHqSJEmJMuhJkiQlyqAnSZKUKIOeJElSogx6kiRJiTLoSZIkJcqgJ0mSlCiDniRJUqIMepIkSYky6EmSJCXKoCdJkpQog54kSVKiDHqSJEmJMuhJkiQlyqAnSZKUKIOeJElSogx6kiRJiTLoSZIkJcqgJ0mSlCiDniRJUqIMepIkSYky6EmSJCXKoCdJkpQog54kSVKiDHqSJEmJmjM+Pr4/vz9hx5qrw77FK8L6VbvCMQsP+rUkSZKG4B//vwVh4/b5YeGWDWFs07r80e6mDHqSJElqnlkHvf3zD8unJEmS1CQLfnpN/0FPkiRJ7efBGJIkSYky6EmSJCXKoCdJkpQog54kSVKiDHqSJEmJMuhJkiQlyqAnSZKUKIOeJElSogx6kiRJSQrh/wdLvdH+VM6vSgAAAABJRU5ErkJggg==;" vertex="1" parent="5fLJpmokJjt_ChBzvtPg-60">
          <mxGeometry x="15.339999999999918" y="30" width="447.05" height="660" as="geometry" />
        </mxCell>
      </root>
    </mxGraphModel>
  </diagram>
</mxfile>
